<svg width="274" height="148" viewBox="0 0 274 148" fill="none" xmlns="http://www.w3.org/2000/svg">
<g clip-path="url(#clip0)">
<path fill-rule="evenodd" clip-rule="evenodd" d="M14.0322 147.242L99.7088 146.845L122.546 146.839L130.112 146.836L152.993 146.83L257.529 146.805C257.529 146.805 281.439 119.428 255.899 93.4264C229.418 66.4673 216.542 88.423 208.402 50.4749C187.913 -45.0459 -14.6578 10.5491 38.475 91.8336C57.6064 121.101 0.816421 105.545 14.0322 147.242Z" fill="#EBF3FA"/>
<path fill-rule="evenodd" clip-rule="evenodd" d="M165.502 146.852H48.0463V44.7297C48.0463 40.2208 51.6921 36.5525 56.1735 36.5525H158.681C162.442 36.5525 165.502 39.6317 165.502 43.4163V146.852H165.502ZM49.8936 144.993H163.655V43.4161C163.655 40.6565 161.423 38.4112 158.68 38.4112H56.1734C52.7106 38.4112 49.8938 41.2456 49.8938 44.7295L49.8936 144.993Z" fill="#C8DBF4" fill-opacity="0.12549"/>
<path fill-rule="evenodd" clip-rule="evenodd" d="M48.9701 60.0306H164.579V57.9634H48.9701V60.0306Z" fill="#C8DBF4" fill-opacity="0.25098"/>
<path fill-rule="evenodd" clip-rule="evenodd" d="M48.9701 76.6764H164.579V74.6092H48.9701V76.6764Z" fill="#C8DBF4" fill-opacity="0.25098"/>
<path fill-rule="evenodd" clip-rule="evenodd" d="M48.9701 93.3217H164.579V91.2545H48.9701V93.3217Z" fill="#C8DBF4" fill-opacity="0.25098"/>
<path fill-rule="evenodd" clip-rule="evenodd" d="M48.9701 110.028H164.579V107.961H48.9701V110.028Z" fill="#C8DBF4" fill-opacity="0.25098"/>
<path fill-rule="evenodd" clip-rule="evenodd" d="M74.1877 107.96H77.0747V97.1509H74.1877V107.96Z" fill="#C8DBF4" fill-opacity="0.25098"/>
<path fill-rule="evenodd" clip-rule="evenodd" d="M71.0118 107.96H73.5135V96.2116H71.0118V107.96Z" fill="#C8DBF4" fill-opacity="0.25098"/>
<path fill-rule="evenodd" clip-rule="evenodd" d="M71.0078 96.4109L68.5248 96.1053L67.1072 107.767L69.5903 108.072L71.0078 96.4109Z" fill="#D2E3FC" fill-opacity="0.501961"/>
<path fill-rule="evenodd" clip-rule="evenodd" d="M154.852 107.96H157.739V97.1509H154.852V107.96Z" fill="#C8DBF4" fill-opacity="0.501961"/>
<path fill-rule="evenodd" clip-rule="evenodd" d="M151.676 107.96H154.178V96.2116H151.676V107.96Z" fill="#C8DBF4" fill-opacity="0.25098"/>
<path fill-rule="evenodd" clip-rule="evenodd" d="M151.671 96.4143L149.188 96.1087L147.771 107.77L150.254 108.076L151.671 96.4143Z" fill="#D2E3FC" fill-opacity="0.501961"/>
<path fill-rule="evenodd" clip-rule="evenodd" d="M53.0375 107.96H64.8421V105.847H53.0375V107.96Z" fill="#95C0F4" fill-opacity="0.501961"/>
<path fill-rule="evenodd" clip-rule="evenodd" d="M51.5944 105.847H63.3989V104.393H51.5944V105.847Z" fill="#B7D3F3" fill-opacity="0.501961"/>
<path fill-rule="evenodd" clip-rule="evenodd" d="M52.755 104.393H64.0724V102.939H52.755V104.393Z" fill="#D2E3FC" fill-opacity="0.501961"/>
<path fill-rule="evenodd" clip-rule="evenodd" d="M52.4805 102.939H62.7012V101.829H52.4805V102.939Z" fill="#C8DBF4" fill-opacity="0.25098"/>
<path fill-rule="evenodd" clip-rule="evenodd" d="M109.699 107.96H121.504V105.847H109.699V107.96Z" fill="#D2E3FC" fill-opacity="0.25098"/>
<path fill-rule="evenodd" clip-rule="evenodd" d="M108.255 105.847H120.059V104.393H108.255V105.847Z" fill="#B7D3F3" fill-opacity="0.501961"/>
<path fill-rule="evenodd" clip-rule="evenodd" d="M109.415 104.393H120.733V102.939H109.415V104.393Z" fill="#D2E3FC" fill-opacity="0.25098"/>
<path fill-rule="evenodd" clip-rule="evenodd" d="M109.142 102.939H119.363V101.829H109.142V102.939Z" fill="#C8DBF4" fill-opacity="0.25098"/>
<path fill-rule="evenodd" clip-rule="evenodd" d="M107.866 101.829H119.67V100.375H107.866V101.829Z" fill="#B7D3F3" fill-opacity="0.25098"/>
<path fill-rule="evenodd" clip-rule="evenodd" d="M109.027 100.375H120.344V98.9215H109.027V100.375Z" fill="#D2E3FC" fill-opacity="0.501961"/>
<path fill-rule="evenodd" clip-rule="evenodd" d="M108.754 98.9213H118.974V97.8112H108.754V98.9213Z" fill="#C8DBF4" fill-opacity="0.25098"/>
<path fill-rule="evenodd" clip-rule="evenodd" d="M100.85 107.914H102.863V96.2116H100.85V107.914Z" fill="#C1D9F4" fill-opacity="0.501961"/>
<path fill-rule="evenodd" clip-rule="evenodd" d="M125.594 107.914H127.606V95.6757H125.594V107.914Z" fill="#C1D9F4" fill-opacity="0.25098"/>
<path fill-rule="evenodd" clip-rule="evenodd" d="M131.689 107.914H133.702V96.2116H131.689V107.914Z" fill="#C1D9F4" fill-opacity="0.501961"/>
<path fill-rule="evenodd" clip-rule="evenodd" d="M98.3062 107.914H100.849V95.2473H98.3062V107.914Z" fill="#E4EEF9" fill-opacity="0.25098"/>
<path fill-rule="evenodd" clip-rule="evenodd" d="M134.122 107.914H136.665V95.2473H134.122V107.914Z" fill="#E4EEF9" fill-opacity="0.501961"/>
<path fill-rule="evenodd" clip-rule="evenodd" d="M95.7637 107.914H98.3068V95.851H95.7637V107.914Z" fill="#B7D3F3" fill-opacity="0.501961"/>
<path fill-rule="evenodd" clip-rule="evenodd" d="M122.032 93.9936L119.527 94.4337L121.867 107.919L124.372 107.479L122.032 93.9936Z" fill="#B7D3F3" fill-opacity="0.25098"/>
<path fill-rule="evenodd" clip-rule="evenodd" d="M93.2197 107.914H95.7629V97.7005H93.2197V107.914Z" fill="#C8DBF4" fill-opacity="0.501961"/>
<path fill-rule="evenodd" clip-rule="evenodd" d="M137.449 107.914H139.993V97.7005H137.449V107.914Z" fill="#C8DBF4" fill-opacity="0.25098"/>
<path fill-rule="evenodd" clip-rule="evenodd" d="M90.6774 107.914H93.2205V97.1509H90.6774V107.914Z" fill="#95C0F4" fill-opacity="0.501961"/>
<path fill-rule="evenodd" clip-rule="evenodd" d="M87.7269 107.914H90.2701V97.1509H87.7269V107.914Z" fill="#D2E3FC" fill-opacity="0.501961"/>
<path fill-rule="evenodd" clip-rule="evenodd" d="M140.346 107.914H142.889V97.1509H140.346V107.914Z" fill="#D2E3FC" fill-opacity="0.25098"/>
<path fill-rule="evenodd" clip-rule="evenodd" d="M84.7083 107.914H87.2514V96.2116H84.7083V107.914Z" fill="#AFCDFB" fill-opacity="0.501961"/>
<path fill-rule="evenodd" clip-rule="evenodd" d="M128.888 107.914H131.432V96.2116H128.888V107.914Z" fill="#AFCDFB" fill-opacity="0.501961"/>
<path fill-rule="evenodd" clip-rule="evenodd" d="M132.26 58.0103H135.147V47.2009H132.26V58.0103Z" fill="#C8DBF4" fill-opacity="0.12549"/>
<path fill-rule="evenodd" clip-rule="evenodd" d="M135.821 58.0107H138.322V46.2622H135.821V58.0107Z" fill="#C8DBF4" fill-opacity="0.25098"/>
<path fill-rule="evenodd" clip-rule="evenodd" d="M139.737 58.1248L142.22 57.8192L140.802 46.1577L138.319 46.4633L139.737 58.1248Z" fill="#D2E3FC" fill-opacity="0.12549"/>
<path fill-rule="evenodd" clip-rule="evenodd" d="M85.8002 74.6103H88.6873V63.8009H85.8002V74.6103Z" fill="#C8DBF4" fill-opacity="0.12549"/>
<path fill-rule="evenodd" clip-rule="evenodd" d="M89.3608 74.6108H91.8625V62.8622H89.3608V74.6108Z" fill="#C8DBF4" fill-opacity="0.25098"/>
<path fill-rule="evenodd" clip-rule="evenodd" d="M93.2772 74.7253L95.7604 74.4198L94.3428 62.7581L91.8596 63.0637L93.2772 74.7253Z" fill="#D2E3FC" fill-opacity="0.12549"/>
<path fill-rule="evenodd" clip-rule="evenodd" d="M51.5945 58.0103H54.4814V47.2009H51.5945V58.0103Z" fill="#C8DBF4" fill-opacity="0.12549"/>
<path fill-rule="evenodd" clip-rule="evenodd" d="M55.1549 58.0107H57.6565V46.2622H55.1549V58.0107Z" fill="#C8DBF4" fill-opacity="0.12549"/>
<path fill-rule="evenodd" clip-rule="evenodd" d="M59.0725 58.1222L61.5556 57.8167L60.138 46.155L57.655 46.4606L59.0725 58.1222Z" fill="#D2E3FC" fill-opacity="0.12549"/>
<path fill-rule="evenodd" clip-rule="evenodd" d="M144.491 58.0105H156.295V55.8966H144.491V58.0105Z" fill="#95C0F4" fill-opacity="0.12549"/>
<path fill-rule="evenodd" clip-rule="evenodd" d="M145.934 55.8966H157.739V54.4429H145.934V55.8966Z" fill="#B7D3F3" fill-opacity="0.12549"/>
<path fill-rule="evenodd" clip-rule="evenodd" d="M145.261 54.4428H156.579V52.9891H145.261V54.4428Z" fill="#D2E3FC" fill-opacity="0.12549"/>
<path fill-rule="evenodd" clip-rule="evenodd" d="M146.632 52.9894H156.852V51.8792H146.632V52.9894Z" fill="#C8DBF4" fill-opacity="0.12549"/>
<path fill-rule="evenodd" clip-rule="evenodd" d="M87.8308 58.0105H99.6355V55.8966H87.8308V58.0105Z" fill="#D2E3FC" fill-opacity="0.25098"/>
<path fill-rule="evenodd" clip-rule="evenodd" d="M89.2738 55.8966H101.078V54.4429H89.2738V55.8966Z" fill="#B7D3F3" fill-opacity="0.25098"/>
<path fill-rule="evenodd" clip-rule="evenodd" d="M88.5995 54.4428H99.9168V52.9891H88.5995V54.4428Z" fill="#D2E3FC" fill-opacity="0.12549"/>
<path fill-rule="evenodd" clip-rule="evenodd" d="M89.9713 52.9894H100.192V51.8792H89.9713V52.9894Z" fill="#C8DBF4" fill-opacity="0.12549"/>
<path fill-rule="evenodd" clip-rule="evenodd" d="M89.6626 51.879H101.467V50.4253H89.6626V51.879Z" fill="#B7D3F3" fill-opacity="0.12549"/>
<path fill-rule="evenodd" clip-rule="evenodd" d="M88.9883 50.4254H100.306V48.9716H88.9883V50.4254Z" fill="#D2E3FC" fill-opacity="0.25098"/>
<path fill-rule="evenodd" clip-rule="evenodd" d="M90.36 48.9714H100.581V47.8612H90.36V48.9714Z" fill="#C8DBF4" fill-opacity="0.25098"/>
<path fill-rule="evenodd" clip-rule="evenodd" d="M106.472 57.9642H108.484V46.2622H106.472V57.9642Z" fill="#C1D9F4" fill-opacity="0.12549"/>
<path fill-rule="evenodd" clip-rule="evenodd" d="M81.7266 57.9639H83.7389V45.7257H81.7266V57.9639Z" fill="#C1D9F4" fill-opacity="0.25098"/>
<path fill-rule="evenodd" clip-rule="evenodd" d="M75.631 57.9642H77.6433V46.2622H75.631V57.9642Z" fill="#C1D9F4" fill-opacity="0.25098"/>
<path fill-rule="evenodd" clip-rule="evenodd" d="M108.484 57.9641H111.027V45.2973H108.484V57.9641Z" fill="#E4EEF9" fill-opacity="0.25098"/>
<path fill-rule="evenodd" clip-rule="evenodd" d="M72.6683 57.9641H75.2115V45.2973H72.6683V57.9641Z" fill="#E4EEF9" fill-opacity="0.25098"/>
<path fill-rule="evenodd" clip-rule="evenodd" d="M111.026 57.9641H113.569V45.901H111.026V57.9641Z" fill="#B7D3F3" fill-opacity="0.25098"/>
<path fill-rule="evenodd" clip-rule="evenodd" d="M84.9537 57.5274L87.4591 57.9674L89.7992 44.4823L87.2938 44.0422L84.9537 57.5274Z" fill="#B7D3F3" fill-opacity="0.12549"/>
<path fill-rule="evenodd" clip-rule="evenodd" d="M124.779 74.6092H136.584V72.4953H124.779V74.6092Z" fill="#D2E3FC" fill-opacity="0.25098"/>
<path fill-rule="evenodd" clip-rule="evenodd" d="M126.222 72.4953H138.027V71.0415H126.222V72.4953Z" fill="#B7D3F3" fill-opacity="0.25098"/>
<path fill-rule="evenodd" clip-rule="evenodd" d="M125.548 71.0415H136.865V69.5878H125.548V71.0415Z" fill="#D2E3FC" fill-opacity="0.25098"/>
<path fill-rule="evenodd" clip-rule="evenodd" d="M126.92 69.5881H137.14V68.4778H126.92V69.5881Z" fill="#C8DBF4" fill-opacity="0.12549"/>
<path fill-rule="evenodd" clip-rule="evenodd" d="M126.611 68.4778H138.415V67.0241H126.611V68.4778Z" fill="#B7D3F3" fill-opacity="0.12549"/>
<path fill-rule="evenodd" clip-rule="evenodd" d="M125.937 67.024H137.254V65.5703H125.937V67.024Z" fill="#D2E3FC" fill-opacity="0.25098"/>
<path fill-rule="evenodd" clip-rule="evenodd" d="M127.308 65.5701H137.529V64.4598H127.308V65.5701Z" fill="#C8DBF4" fill-opacity="0.25098"/>
<path fill-rule="evenodd" clip-rule="evenodd" d="M121.902 74.1274L124.407 74.5675L126.747 61.0822L124.242 60.6422L121.902 74.1274Z" fill="#B7D3F3" fill-opacity="0.12549"/>
<path fill-rule="evenodd" clip-rule="evenodd" d="M113.57 57.9639H116.113V47.7506H113.57V57.9639Z" fill="#C8DBF4" fill-opacity="0.25098"/>
<path fill-rule="evenodd" clip-rule="evenodd" d="M69.3405 57.9639H71.8836V47.7506H69.3405V57.9639Z" fill="#C8DBF4" fill-opacity="0.25098"/>
<path fill-rule="evenodd" clip-rule="evenodd" d="M116.113 57.9638H118.656V47.2009H116.113V57.9638Z" fill="#95C0F4" fill-opacity="0.25098"/>
<path fill-rule="evenodd" clip-rule="evenodd" d="M119.063 57.9638H121.606V47.2009H119.063V57.9638Z" fill="#D2E3FC" fill-opacity="0.25098"/>
<path fill-rule="evenodd" clip-rule="evenodd" d="M66.4441 57.9638H68.9872V47.2009H66.4441V57.9638Z" fill="#D2E3FC" fill-opacity="0.25098"/>
<path fill-rule="evenodd" clip-rule="evenodd" d="M115.307 74.6094H117.851V61.9426H115.307V74.6094Z" fill="#E4EEF9" fill-opacity="0.25098"/>
<path fill-rule="evenodd" clip-rule="evenodd" d="M111.981 74.6092H114.524V64.3959H111.981V74.6092Z" fill="#C8DBF4" fill-opacity="0.25098"/>
<path fill-rule="evenodd" clip-rule="evenodd" d="M109.083 74.6092H111.626V63.8462H109.083V74.6092Z" fill="#D2E3FC" fill-opacity="0.25098"/>
<path fill-rule="evenodd" clip-rule="evenodd" d="M100.585 74.6092H103.128V63.8462H100.585V74.6092Z" fill="#D2E3FC" fill-opacity="0.25098"/>
<path fill-rule="evenodd" clip-rule="evenodd" d="M97.0359 74.6092H99.579V63.8462H97.0359V74.6092Z" fill="#D2E3FC" fill-opacity="0.25098"/>
<path fill-rule="evenodd" clip-rule="evenodd" d="M56.9958 74.6094H59.539V61.9426H56.9958V74.6094Z" fill="#E4EEF9" fill-opacity="0.25098"/>
<path fill-rule="evenodd" clip-rule="evenodd" d="M61.0764 74.716L63.6008 74.4051L62.0712 61.8319L59.5468 62.1428L61.0764 74.716Z" fill="#E4EEF9" fill-opacity="0.25098"/>
<path fill-rule="evenodd" clip-rule="evenodd" d="M53.6677 74.6092H56.2109V64.3959H53.6677V74.6092Z" fill="#C8DBF4" fill-opacity="0.25098"/>
<path fill-rule="evenodd" clip-rule="evenodd" d="M50.7716 74.6092H53.3148V63.8462H50.7716V74.6092Z" fill="#D2E3FC" fill-opacity="0.25098"/>
<path fill-rule="evenodd" clip-rule="evenodd" d="M122.082 57.9642H124.625V46.2622H122.082V57.9642Z" fill="#AFCDFB" fill-opacity="0.25098"/>
<path fill-rule="evenodd" clip-rule="evenodd" d="M94.9746 91.2547H96.9869V79.5527H94.9746V91.2547Z" fill="#C1D9F4" fill-opacity="0.25098"/>
<path fill-rule="evenodd" clip-rule="evenodd" d="M96.9866 91.2546H99.5297V78.5879H96.9866V91.2546Z" fill="#E4EEF9" fill-opacity="0.25098"/>
<path fill-rule="evenodd" clip-rule="evenodd" d="M99.5291 91.2547H102.072V79.1916H99.5291V91.2547Z" fill="#B7D3F3" fill-opacity="0.25098"/>
<path fill-rule="evenodd" clip-rule="evenodd" d="M102.073 91.2544H104.616V81.0411H102.073V91.2544Z" fill="#C8DBF4" fill-opacity="0.25098"/>
<path fill-rule="evenodd" clip-rule="evenodd" d="M104.615 91.2544H107.159V80.4914H104.615V91.2544Z" fill="#95C0F4" fill-opacity="0.25098"/>
<path fill-rule="evenodd" clip-rule="evenodd" d="M107.566 91.2544H110.109V80.4914H107.566V91.2544Z" fill="#D2E3FC" fill-opacity="0.25098"/>
<path fill-rule="evenodd" clip-rule="evenodd" d="M110.584 91.2547H113.128V79.5527H110.584V91.2547Z" fill="#AFCDFB" fill-opacity="0.25098"/>
<path fill-rule="evenodd" clip-rule="evenodd" d="M141.022 74.6094H143.565V62.9074H141.022V74.6094Z" fill="#AFCDFB" fill-opacity="0.25098"/>
<path fill-rule="evenodd" clip-rule="evenodd" d="M143.792 74.6094H146.335V62.9074H143.792V74.6094Z" fill="#AFCDFB" fill-opacity="0.25098"/>
<path fill-rule="evenodd" clip-rule="evenodd" d="M77.9016 57.9642H80.4448V46.2622H77.9016V57.9642Z" fill="#AFCDFB" fill-opacity="0.25098"/>
<path fill-rule="evenodd" clip-rule="evenodd" d="M137.812 91.3064H149.617V89.1925H137.812V91.3064Z" fill="#D2E3FC" fill-opacity="0.25098"/>
<path fill-rule="evenodd" clip-rule="evenodd" d="M139.257 89.1925H151.061V87.7387H139.257V89.1925Z" fill="#B7D3F3" fill-opacity="0.25098"/>
<path fill-rule="evenodd" clip-rule="evenodd" d="M138.583 87.7387H149.9V86.285H138.583V87.7387Z" fill="#D2E3FC" fill-opacity="0.25098"/>
<path fill-rule="evenodd" clip-rule="evenodd" d="M139.953 86.2849H150.173V85.1746H139.953V86.2849Z" fill="#C8DBF4" fill-opacity="0.25098"/>
<path fill-rule="evenodd" clip-rule="evenodd" d="M139.646 85.175H151.45V83.7213H139.646V85.175Z" fill="#B7D3F3" fill-opacity="0.25098"/>
<path fill-rule="evenodd" clip-rule="evenodd" d="M138.971 83.7212H150.289V82.2675H138.971V83.7212Z" fill="#D2E3FC" fill-opacity="0.25098"/>
<path fill-rule="evenodd" clip-rule="evenodd" d="M140.341 82.2674H150.562V81.1571H140.341V82.2674Z" fill="#C8DBF4" fill-opacity="0.25098"/>
<path fill-rule="evenodd" clip-rule="evenodd" d="M131.709 91.2598H133.722V79.0216H131.709V91.2598Z" fill="#C1D9F4" fill-opacity="0.25098"/>
<path fill-rule="evenodd" clip-rule="evenodd" d="M125.614 91.2596H127.626V79.5576H125.614V91.2596Z" fill="#C1D9F4" fill-opacity="0.25098"/>
<path fill-rule="evenodd" clip-rule="evenodd" d="M122.651 91.2595H125.195V78.5928H122.651V91.2595Z" fill="#E4EEF9" fill-opacity="0.25098"/>
<path fill-rule="evenodd" clip-rule="evenodd" d="M134.936 90.8252L137.441 91.2653L139.781 77.78L137.276 77.34L134.936 90.8252Z" fill="#B7D3F3" fill-opacity="0.25098"/>
<path fill-rule="evenodd" clip-rule="evenodd" d="M119.323 91.2598H121.867V81.0464H119.323V91.2598Z" fill="#C8DBF4" fill-opacity="0.25098"/>
<path fill-rule="evenodd" clip-rule="evenodd" d="M116.427 91.2597H118.97V80.4968H116.427V91.2597Z" fill="#D2E3FC" fill-opacity="0.25098"/>
<path fill-rule="evenodd" clip-rule="evenodd" d="M89.6702 91.2595H92.2133V78.5928H89.6702V91.2595Z" fill="#E4EEF9" fill-opacity="0.25098"/>
<path fill-rule="evenodd" clip-rule="evenodd" d="M86.3438 91.2598H88.8869V81.0464H86.3438V91.2598Z" fill="#C8DBF4" fill-opacity="0.25098"/>
<path fill-rule="evenodd" clip-rule="evenodd" d="M83.4458 91.2597H85.989V80.4968H83.4458V91.2597Z" fill="#D2E3FC" fill-opacity="0.25098"/>
<path fill-rule="evenodd" clip-rule="evenodd" d="M79.4838 91.2595H82.0269V78.5928H79.4838V91.2595Z" fill="#E4EEF9" fill-opacity="0.25098"/>
<path fill-rule="evenodd" clip-rule="evenodd" d="M76.1559 91.2598H78.699V81.0464H76.1559V91.2598Z" fill="#C8DBF4" fill-opacity="0.25098"/>
<path fill-rule="evenodd" clip-rule="evenodd" d="M73.2595 91.2597H75.8027V80.4968H73.2595V91.2597Z" fill="#D2E3FC" fill-opacity="0.25098"/>
<path fill-rule="evenodd" clip-rule="evenodd" d="M127.885 91.2596H130.428V79.5576H127.885V91.2596Z" fill="#AFCDFB" fill-opacity="0.25098"/>
<path fill-rule="evenodd" clip-rule="evenodd" d="M193.41 55.3249H178.48C177.795 55.3249 177.234 54.7607 177.234 54.0711V39.5733C177.234 38.8837 177.795 38.3195 178.48 38.3195H193.41C194.095 38.3195 194.656 38.8837 194.656 39.5733V54.0711C194.656 54.7607 194.095 55.3249 193.41 55.3249Z" fill="#C0D8FB"/>
<path fill-rule="evenodd" clip-rule="evenodd" d="M192.763 54.5881H179.127C178.501 54.5881 177.989 54.0727 177.989 53.443V40.2013C177.989 39.5716 178.501 39.0562 179.127 39.0562H192.763C193.389 39.0562 193.901 39.5716 193.901 40.2013V53.4431C193.901 54.0729 193.389 54.5881 192.763 54.5881Z" fill="#DFEBFD"/>
<path d="M185.945 40.9712C186.144 40.9712 186.305 40.8087 186.305 40.6082C186.305 40.4077 186.144 40.2451 185.945 40.2451C185.745 40.2451 185.584 40.4077 185.584 40.6082C185.584 40.8087 185.745 40.9712 185.945 40.9712Z" fill="#B7D3F3"/>
<path d="M188.811 41.661C189.011 41.661 189.172 41.4985 189.172 41.298C189.172 41.0975 189.011 40.9349 188.811 40.9349C188.612 40.9349 188.45 41.0975 188.45 41.298C188.45 41.4985 188.612 41.661 188.811 41.661Z" fill="#B7D3F3"/>
<path d="M191.185 43.7838C191.385 43.7838 191.546 43.6213 191.546 43.4208C191.546 43.2203 191.385 43.0578 191.185 43.0578C190.986 43.0578 190.824 43.2203 190.824 43.4208C190.824 43.6213 190.986 43.7838 191.185 43.7838Z" fill="#B7D3F3"/>
<path d="M192.226 46.9283C192.425 46.9283 192.587 46.7658 192.587 46.5653C192.587 46.3648 192.425 46.2022 192.226 46.2022C192.027 46.2022 191.865 46.3648 191.865 46.5653C191.865 46.7658 192.027 46.9283 192.226 46.9283Z" fill="#B7D3F3"/>
<path d="M191.34 50.4039C191.54 50.4039 191.701 50.2414 191.701 50.0409C191.701 49.8404 191.54 49.6779 191.34 49.6779C191.141 49.6779 190.979 49.8404 190.979 50.0409C190.979 50.2414 191.141 50.4039 191.34 50.4039Z" fill="#B7D3F3"/>
<path d="M189.075 52.6898C189.274 52.6898 189.435 52.5273 189.435 52.3268C189.435 52.1263 189.274 51.9637 189.075 51.9637C188.875 51.9637 188.714 52.1263 188.714 52.3268C188.714 52.5273 188.875 52.6898 189.075 52.6898Z" fill="#B7D3F3"/>
<path d="M185.945 53.6117C186.144 53.6117 186.305 53.4492 186.305 53.2487C186.305 53.0482 186.144 52.8856 185.945 52.8856C185.745 52.8856 185.584 53.0482 185.584 53.2487C185.584 53.4492 185.745 53.6117 185.945 53.6117Z" fill="#B7D3F3"/>
<path d="M183.066 41.661C183.266 41.661 183.427 41.4985 183.427 41.298C183.427 41.0975 183.266 40.9349 183.066 40.9349C182.867 40.9349 182.706 41.0975 182.706 41.298C182.706 41.4985 182.867 41.661 183.066 41.661Z" fill="#B7D3F3"/>
<path d="M180.693 43.7838C180.892 43.7838 181.053 43.6213 181.053 43.4208C181.053 43.2203 180.892 43.0578 180.693 43.0578C180.493 43.0578 180.332 43.2203 180.332 43.4208C180.332 43.6213 180.493 43.7838 180.693 43.7838Z" fill="#B7D3F3"/>
<path d="M179.652 46.9283C179.851 46.9283 180.013 46.7658 180.013 46.5653C180.013 46.3648 179.851 46.2022 179.652 46.2022C179.453 46.2022 179.291 46.3648 179.291 46.5653C179.291 46.7658 179.453 46.9283 179.652 46.9283Z" fill="#B7D3F3"/>
<path d="M180.538 50.4039C180.737 50.4039 180.898 50.2414 180.898 50.0409C180.898 49.8404 180.737 49.6779 180.538 49.6779C180.338 49.6779 180.177 49.8404 180.177 50.0409C180.177 50.2414 180.338 50.4039 180.538 50.4039Z" fill="#B7D3F3"/>
<path d="M182.805 52.6902C183.004 52.6902 183.166 52.5277 183.166 52.3272C183.166 52.1267 183.004 51.9642 182.805 51.9642C182.606 51.9642 182.444 52.1267 182.444 52.3272C182.444 52.5277 182.606 52.6902 182.805 52.6902Z" fill="#B7D3F3"/>
<path d="M186.208 46.9282C186.408 46.9282 186.569 46.7657 186.569 46.5652C186.569 46.3647 186.408 46.2021 186.208 46.2021C186.009 46.2021 185.848 46.3647 185.848 46.5652C185.848 46.7657 186.009 46.9282 186.208 46.9282Z" fill="#B7D3F3"/>
<path d="M186.257 42.0292H186.159V46.5653H186.257V42.0292Z" fill="#B7D3F3"/>
<path d="M188.651 44.7907L188.469 44.5567L186.078 46.4445L186.261 46.6785L188.651 44.7907Z" fill="#B7D3F3"/>
<path fill-rule="evenodd" clip-rule="evenodd" d="M212.735 135.879C212.735 135.879 229.243 120.081 233.875 123.754C238.507 127.426 212.735 135.879 212.735 135.879Z" fill="#CDE0FB"/>
<path fill-rule="evenodd" clip-rule="evenodd" d="M211.542 138.917C211.542 138.917 242.255 125.083 249.522 132.398C256.789 139.712 241.094 138.81 235.282 137.991C229.469 137.173 211.542 138.917 211.542 138.917Z" fill="#CDE0FB"/>
<path fill-rule="evenodd" clip-rule="evenodd" d="M210.251 135.531C210.251 135.531 210.396 134.753 210.593 133.615C210.977 131.393 211.561 127.799 211.663 125.927C211.818 123.095 214.082 121.085 216.566 123.967C219.051 126.85 211.207 134.754 211.207 134.754L210.251 135.531Z" fill="#CDE0FB"/>
<path fill-rule="evenodd" clip-rule="evenodd" d="M218.967 81.4418C216.72 75.5246 206.708 78.4602 206.708 78.4602C206.708 78.4602 200.846 89.8084 198.856 90.2662C196.866 90.724 201.985 79.5792 201.985 79.5792C198.042 79.5948 188.573 85.42 188.573 85.42C188.573 85.42 190.447 97.7762 188.407 97.727C186.366 97.6778 187.302 86.701 187.302 86.701C183.637 88.2248 180.555 93.0183 180.555 93.0183C176.87 100.689 186.85 105.054 186.85 105.054C186.85 105.054 187.408 109.35 185.258 114.561L185.258 114.561C185.258 114.561 184.752 115.534 184.301 117.147L185.331 117.042C185.387 116.756 185.453 116.478 185.53 116.21C185.53 116.208 185.53 116.206 185.531 116.205C185.533 116.201 185.534 116.197 185.535 116.193C185.589 116.026 185.668 115.788 185.767 115.497C185.767 115.497 185.767 115.496 185.767 115.496C185.767 115.495 185.768 115.495 185.768 115.494C186.02 114.843 186.187 114.363 186.288 114.019C186.289 114.018 186.289 114.017 186.289 114.016C187.037 111.974 188.142 109.301 188.995 108.677C188.995 108.677 188.865 108.527 188.727 108.224C188.812 108.369 188.901 108.519 188.995 108.677C191.139 112.3 200.02 112.04 204.83 110.528C209.641 109.016 207.36 107.839 204.489 105.844C201.617 103.85 196.135 105.008 194.408 104.287C192.682 103.566 194.986 102.436 198.286 102.358C201.587 102.279 203.554 105.408 208.895 105.379C214.236 105.349 217.264 94.9284 217.264 94.9284C213.726 96.4394 206.973 95.0759 206.594 93.834C206.215 92.5921 215.926 91.7355 217.4 91.202C218.873 90.6689 221.214 87.359 218.967 81.4418Z" fill="#DFEBFD"/>
<path fill-rule="evenodd" clip-rule="evenodd" d="M57.6004 133.692C52.9755 128.002 61.6894 119.553 61.6894 119.553C61.6894 119.553 76.4267 120.163 78.0328 118.411C79.639 116.66 65.534 115.415 65.534 115.415C67.8244 111.43 79.1158 105.199 79.1158 105.199C79.1158 105.199 90.399 114.226 91.5272 112.13C92.6553 110.034 81.1313 104.65 81.1313 104.65C84.7702 101.817 91.3452 101.46 91.3452 101.46C101.147 102.152 99.757 114.781 99.757 114.781C99.757 114.781 103.734 117.824 110.189 118.652H110.189C110.189 118.652 111.455 118.702 113.329 119.175L112.63 120.158C112.311 120.05 111.995 119.956 111.682 119.879C111.68 119.878 111.678 119.877 111.676 119.878C111.671 119.876 111.667 119.876 111.662 119.874C111.463 119.833 111.18 119.775 110.832 119.708C110.832 119.707 110.831 119.707 110.831 119.707C110.83 119.707 110.83 119.707 110.829 119.707C110.031 119.587 109.455 119.479 109.052 119.383C109.051 119.383 109.05 119.383 109.048 119.382C106.574 118.962 103.262 118.539 102.145 119.043C102.145 119.043 102.071 118.824 101.847 118.51C101.942 118.68 102.041 118.857 102.145 119.043C104.534 123.305 99.1499 132.151 94.8612 136.152C90.5726 140.153 90.7109 137.164 90.372 133.104C90.0331 129.044 94.3554 124.159 94.6299 121.994C94.9043 119.829 92.4444 121.512 90.4615 124.81C88.4787 128.108 90.4747 131.906 87.3638 137.299C84.2528 142.693 72.0784 139.748 72.0784 139.748C75.6319 137.035 78.1635 129.408 77.1394 128.308C76.1154 127.207 69.6552 136.551 68.2712 137.736C66.8875 138.921 62.2252 139.382 57.6004 133.692Z" fill="#CDE0FB"/>
<path fill-rule="evenodd" clip-rule="evenodd" d="M142.989 131.784H96.1729V108.734L143.167 108.734C147.517 108.734 151.043 112.282 151.043 116.658V123.68C151.043 128.156 147.437 131.784 142.989 131.784Z" fill="#FCECDB"/>
<path fill-rule="evenodd" clip-rule="evenodd" d="M191.966 118.217V121.685C191.966 123.538 191.601 125.273 190.96 126.765C189.675 129.766 187.284 131.783 184.547 131.783H94.7033C94.1088 131.783 93.6271 131.128 93.6271 130.32V129.8C93.6271 128.992 94.1088 128.337 94.7033 128.337H147.933C148.943 128.337 149.864 127.727 150.233 126.781C150.235 126.776 150.238 126.77 150.24 126.765C150.752 125.449 151.042 123.95 151.042 122.358V117.95C151.042 117.139 150.965 116.353 150.821 115.604C150.818 115.592 150.816 115.579 150.813 115.566C150.425 113.592 148.683 112.182 146.683 112.182H94.7032C94.1086 112.182 93.627 111.526 93.627 110.717V110.199C93.627 109.39 94.1086 108.734 94.7032 108.734H184.999C188.181 108.734 190.865 111.638 191.698 115.604C191.873 116.435 191.966 117.312 191.966 118.217Z" fill="#B5453C"/>
<path fill-rule="evenodd" clip-rule="evenodd" d="M96.1729 120.259L102.825 120.646L96.1729 120.88V120.259Z" fill="#F4D2B8"/>
<path fill-rule="evenodd" clip-rule="evenodd" d="M96.1729 123.876L111.999 124.263L96.1729 124.496V123.876Z" fill="#F4D2B8"/>
<path fill-rule="evenodd" clip-rule="evenodd" d="M140.87 90.2014H102.177V70.7767H141.019C144.652 70.7767 147.597 73.7397 147.597 77.3949V83.4331C147.597 87.1711 144.586 90.2014 140.87 90.2014Z" fill="#FCECDB"/>
<path fill-rule="evenodd" clip-rule="evenodd" d="M181.474 78.7686V81.6909C181.474 83.2524 181.171 84.7147 180.641 85.9716C179.576 88.5009 177.597 90.201 175.331 90.201H100.961C100.468 90.201 100.07 89.6485 100.07 88.9677V88.5301C100.07 87.8493 100.468 87.2967 100.961 87.2967L146.296 87.2966C146.539 86.887 146.752 86.4439 146.933 85.9716C147.357 84.8632 147.597 83.5996 147.597 82.2579V78.5431C147.597 77.8599 147.534 77.1969 147.414 76.5663C147.211 75.4969 146.847 74.518 146.362 73.682L100.961 73.6819C100.468 73.6819 100.07 73.1294 100.07 72.4474V72.011C100.07 71.3288 100.468 70.7765 100.961 70.7765H175.706C178.34 70.7765 180.562 73.2233 181.251 76.5663C181.396 77.2661 181.474 78.0051 181.474 78.7686Z" fill="#AFCDFB"/>
<path fill-rule="evenodd" clip-rule="evenodd" d="M102.177 80.4888L107.683 80.8155L102.177 81.0121V80.4888Z" fill="#F4D2B8"/>
<path fill-rule="evenodd" clip-rule="evenodd" d="M102.177 83.5368L115.278 83.8632L102.177 84.0598V83.5368Z" fill="#F4D2B8"/>
<path fill-rule="evenodd" clip-rule="evenodd" d="M106.935 146.852H160.327V131.743L106.481 131.743C102.624 131.743 99.4963 134.889 99.4963 138.771V139.367C99.4963 143.501 102.827 146.852 106.935 146.852Z" fill="#2B478B"/>
<path fill-rule="evenodd" clip-rule="evenodd" d="M157.532 146.852H218.345V131.743L157.371 131.743C153.448 131.743 150.269 134.942 150.269 138.888V139.544C150.269 143.58 153.521 146.852 157.532 146.852Z" fill="#FCECDB"/>
<path fill-rule="evenodd" clip-rule="evenodd" d="M146.232 146.852H220.424C221.02 146.852 221.503 146.366 221.503 145.767V145.677C221.503 145.078 221.02 144.592 220.424 144.592H146.232C145.636 144.592 145.153 145.078 145.153 145.677V145.767C145.153 146.366 145.636 146.852 146.232 146.852Z" fill="#2B478B"/>
<path fill-rule="evenodd" clip-rule="evenodd" d="M146.232 134.003H220.424C221.02 134.003 221.503 133.517 221.503 132.917V132.828C221.503 132.229 221.02 131.743 220.424 131.743L146.232 131.743C145.636 131.743 145.153 132.229 145.153 132.828V132.917C145.153 133.517 145.636 134.003 146.232 134.003Z" fill="#2B478B"/>
<path fill-rule="evenodd" clip-rule="evenodd" d="M218.345 139.297L210.092 139.551L218.345 139.704V139.297Z" fill="#F4D2B8"/>
<path fill-rule="evenodd" clip-rule="evenodd" d="M218.344 135.82L198.709 136.074L218.344 136.227V135.82Z" fill="#F4D2B8"/>
<path fill-rule="evenodd" clip-rule="evenodd" d="M198.911 136.024C198.911 136.024 199.753 136.673 200.031 137.74C200.081 137.927 200.112 138.126 200.119 138.337C200.165 139.755 200.119 142.963 200.119 142.963L202.603 141.359L205.081 142.963V138.615C205.081 137.792 204.868 136.992 204.474 136.468C204.283 136.215 204.05 136.024 203.787 136.024L198.911 136.024V136.024Z" fill="#699DEE"/>
<path fill-rule="evenodd" clip-rule="evenodd" d="M198.911 136.024C198.911 136.024 199.753 136.673 200.031 137.74L205.01 137.803C205.01 137.803 204.814 136.276 203.787 136.024L198.911 136.024V136.024Z" fill="#568CDB"/>
<path fill-rule="evenodd" clip-rule="evenodd" d="M141.631 108.734H201.845V90.2011H141.452C137.102 90.2011 133.576 93.7495 133.576 98.1265V100.629C133.576 105.106 137.182 108.734 141.631 108.734Z" fill="#FCECDB"/>
<path fill-rule="evenodd" clip-rule="evenodd" d="M133.541 97.3917V101.381C133.547 101.993 133.694 102.575 133.96 103.108C134.431 104.058 135.271 104.847 136.328 105.353C137.14 105.74 138.079 105.961 139.076 105.961L203.641 105.961C204.397 105.961 205.011 106.477 205.011 107.113V107.583C205.011 108.219 204.397 108.734 203.641 108.734H92.1044C88.9034 108.734 86.0763 107.398 84.3671 105.353C83.2899 104.064 82.6581 102.495 82.6581 100.799V97.6526C82.6581 96.4905 82.974 95.3917 83.5392 94.412C84.9731 91.92 88.0112 90.2017 91.5269 90.2017H203.641C204.397 90.2017 205.011 90.7156 205.011 91.3514V91.822C205.011 92.4578 204.397 92.973 203.641 92.973L138.879 92.9729C137.331 92.9729 135.93 93.5266 134.952 94.4118C134.529 94.7955 134.185 95.2412 133.941 95.7305C133.688 96.2432 133.547 96.8033 133.541 97.3917Z" fill="#7EB2FC"/>
<path fill-rule="evenodd" clip-rule="evenodd" d="M201.843 99.4679L193.567 99.7795L201.843 99.9671V99.4679Z" fill="#F4D2B8"/>
<path fill-rule="evenodd" clip-rule="evenodd" d="M201.844 95.2028L182.153 95.5143L201.844 95.7021V95.2028Z" fill="#F4D2B8"/>
<path fill-rule="evenodd" clip-rule="evenodd" d="M182.355 95.4525C182.355 95.4525 183.655 96.0402 184.085 97.0061C184.161 97.175 184.21 97.356 184.22 97.5464C184.292 98.8299 184.22 101.735 184.22 101.735L188.057 100.282L191.884 101.735V97.7976C191.884 97.0532 191.555 96.3291 190.946 95.8549C190.65 95.6252 190.292 95.4522 189.886 95.4522L182.355 95.4524V95.4525Z" fill="#F99746"/>
<path fill-rule="evenodd" clip-rule="evenodd" d="M182.355 95.4525C182.355 95.4525 183.655 96.0401 184.085 97.006L191.774 97.0635C191.774 97.0635 191.472 95.6803 189.886 95.4523L182.355 95.4525Z" fill="#ED7D2B"/>
<path fill-rule="evenodd" clip-rule="evenodd" d="M273.737 147.185V147.299C273.737 147.482 273.597 147.632 273.427 147.632L0.389909 147.632C0.219885 147.632 0.0797119 147.482 0.0797119 147.299V147.185C0.0797119 147.002 0.21974 146.852 0.389909 146.852L273.427 146.852C273.597 146.852 273.737 147.002 273.737 147.185Z" fill="#2E3552"/>
<path fill-rule="evenodd" clip-rule="evenodd" d="M126.849 44.2481C126.849 44.2481 128.246 46.3284 129.043 50.7016C129.741 54.5316 130.353 55.9458 131.361 56.7312C132.369 57.5166 137.984 59.8357 137.984 59.8357L137.564 60.8254C137.564 60.8254 129.334 59.6976 128.409 58.3135C127.485 56.9294 123.96 48.7517 124.233 46.8683C124.507 44.9849 126.849 44.2481 126.849 44.2481Z" fill="#6D5545"/>
<path fill-rule="evenodd" clip-rule="evenodd" d="M147.006 89.9328C146.932 90.7404 148.049 90.9369 149.343 91.0019C150.638 91.0669 150.247 91.3334 152.02 91.6567C153.794 91.98 154.505 91.4916 154.633 91.2503C154.748 91.0364 153.923 90.7018 153.044 90.3237C152.934 90.2766 152.823 90.2278 152.712 90.179C151.723 89.7414 151.168 88.8488 150.397 88.0213C149.666 87.2375 148.973 84.7277 148.973 84.7277L146.562 84.2099C146.562 84.2099 147.239 86.4687 147.474 87.4329C147.612 88.0001 147.408 88.6342 147.227 89.1169C147.13 89.3796 147.032 89.6483 147.006 89.9328Z" fill="#6D5545"/>
<path fill-rule="evenodd" clip-rule="evenodd" d="M149.343 91.0018C150.638 91.0668 150.247 91.3333 152.02 91.6566C153.794 91.9799 154.505 91.4915 154.633 91.2502C154.748 91.0363 153.923 90.7017 153.044 90.3236L153.031 90.3387C153.031 90.3387 151.783 90.7648 150.344 90.3709C149.17 90.0502 148.036 89.3448 147.227 89.1168C147.13 89.3794 147.031 89.6482 147.005 89.9327C146.932 90.7406 148.049 90.9369 149.343 91.0018Z" fill="#C65447"/>
<path fill-rule="evenodd" clip-rule="evenodd" d="M123.001 61.173C123.001 61.173 139.019 59.9602 142.034 61.8749C145.05 63.7897 149.886 86.0938 149.886 86.0938C149.886 86.0938 149.588 86.3345 148.921 86.4072C148.301 86.4746 146.935 86.1078 146.935 86.1078C146.935 86.1078 139.985 76.1281 139.495 73.6142C139.006 71.1 139.125 68.8567 138.011 68.7966C136.896 68.7366 122.999 70.4964 120.897 66.7705C118.795 63.0445 120.533 59.356 120.533 59.356L123.001 61.173Z" fill="#ED7D2B"/>
<path fill-rule="evenodd" clip-rule="evenodd" d="M140.877 92.5215C140.803 93.3291 141.92 93.5256 143.214 93.5904C144.509 93.6554 144.118 93.922 145.891 94.2453C147.665 94.5685 148.376 94.0803 148.505 93.839C148.619 93.625 147.794 93.2904 146.915 92.9122C146.805 92.8649 146.694 92.8163 146.583 92.7676C145.594 92.33 145.039 91.4373 144.268 90.6098C143.537 89.826 142.844 87.3162 142.844 87.3162L140.433 86.7984C140.433 86.7984 141.11 89.0573 141.345 90.0216C141.483 90.5888 141.279 91.2229 141.098 91.7056C141.001 91.9682 140.902 92.237 140.877 92.5215Z" fill="#6D5545"/>
<path fill-rule="evenodd" clip-rule="evenodd" d="M143.214 93.5904C144.509 93.6554 144.118 93.9219 145.891 94.2452C147.665 94.5685 148.376 94.0803 148.505 93.839C148.619 93.6249 147.794 93.2903 146.915 92.9122L146.902 92.9273C146.902 92.9273 145.654 93.3534 144.215 92.9595C143.041 92.639 141.907 91.9334 141.098 91.7054C141.001 91.9681 140.902 92.2368 140.877 92.5213C140.803 93.3292 141.92 93.5257 143.214 93.5904Z" fill="#C65447"/>
<path fill-rule="evenodd" clip-rule="evenodd" d="M119.864 62.1717C119.864 62.1717 134.093 62.8494 137.032 64.8808C139.971 66.9122 143.941 89.389 143.941 89.389C143.941 89.389 143.633 89.6177 142.964 89.6642C142.342 89.7073 140.992 89.2874 140.992 89.2874C140.992 89.2874 134.433 79.0432 134.041 76.5118C133.649 73.9805 133.855 71.7435 132.744 71.6397C131.632 71.536 117.678 72.7505 115.721 68.9448C113.765 65.1393 119.864 62.1717 119.864 62.1717Z" fill="#F99746"/>
<path fill-rule="evenodd" clip-rule="evenodd" d="M126.235 31.4307C125.691 30.902 124.937 30.6652 124.395 30.5591C124.569 30.4518 124.853 30.4696 124.853 30.4696C124.534 30.3345 123.711 30.4744 123.711 30.4744C119.56 27.4997 117.096 34.1374 116.789 35.7478C116.481 37.358 115.917 39.6616 113.961 41.6583C108.944 46.7788 116.112 52.7044 116.112 52.7044C116.142 52.7348 119.709 45.054 123.291 43.8202C124.318 42.9074 125.081 41.0232 125.14 40.8747C124.617 42.3897 124.132 43.1902 123.772 43.6185C126.981 41.8845 127.678 32.8321 126.235 31.4307Z" fill="#163560"/>
<path fill-rule="evenodd" clip-rule="evenodd" d="M119.266 41.8517C119.266 41.8517 120.591 41.7252 121.916 41.8517C122.816 41.9378 123.708 42.219 124.215 42.4324C125.469 42.9598 125.338 45.1938 122.706 44.7801C120.075 44.3664 119.081 42.5142 119.266 41.8517Z" fill="#6D5545"/>
<path fill-rule="evenodd" clip-rule="evenodd" d="M124.105 43.481C124.12 43.4891 124.48 45.4027 122.757 45.3262C121.626 45.276 119.187 43.8989 119.402 42.9244C119.505 42.4613 120.359 41.2594 120.531 38.5166L120.737 38.5719L124.199 39.5064C124.199 39.5064 124.046 40.612 123.974 41.6583C123.913 42.5367 123.911 43.3736 124.105 43.481Z" fill="#6D5545"/>
<path fill-rule="evenodd" clip-rule="evenodd" d="M124.199 39.5062C124.199 39.5062 124.045 40.6118 123.974 41.6581C122.014 41.4708 121.096 39.5992 120.737 38.5719L124.199 39.5062Z" fill="#6D5545"/>
<path fill-rule="evenodd" clip-rule="evenodd" d="M120.41 37.9627C120.41 37.9627 119.816 36.1172 119.922 34.6976C119.998 33.684 121.405 30.2177 124.862 31.6611C124.862 31.6611 125.878 32.0334 126.687 32.952C127.332 33.6826 128.165 35.1159 126.108 37.9267L125.512 38.9016L120.41 37.9627Z" fill="#163560"/>
<path fill-rule="evenodd" clip-rule="evenodd" d="M124.292 41.1106C124.292 41.1106 119.763 40.0218 120.481 37.1947C121.198 34.3678 121.097 32.3232 124.018 32.899C126.94 33.4746 127.226 34.6972 127.214 35.6994C127.203 36.7015 125.488 41.321 124.292 41.1106Z" fill="#6D5545"/>
<path fill-rule="evenodd" clip-rule="evenodd" d="M126.089 33.3596C126.089 33.3596 124.009 36.3567 121.99 36.3581C119.97 36.3594 119.278 35.6365 119.278 35.6365C119.278 35.6365 121.027 34.8499 121.846 32.8998C121.846 32.8998 125.56 31.5412 126.089 33.3596Z" fill="#163560"/>
<path fill-rule="evenodd" clip-rule="evenodd" d="M125.715 33.5498C125.715 33.5498 126.449 34.528 126.49 35.3056C126.531 36.0833 126.255 37.5909 126.697 37.6513C126.697 37.6513 128.202 35.6377 127.481 34.093C126.717 32.4553 125.715 33.5498 125.715 33.5498Z" fill="#163560"/>
<path fill-rule="evenodd" clip-rule="evenodd" d="M129.442 61.4162C129.066 61.8689 127.891 62.0079 126.635 62.2158C125.647 62.3799 124.609 62.5858 123.871 63.022C122.195 64.0121 116.718 67.3588 115.113 67.2066C114.49 67.1477 114.607 65.9524 114.984 64.3663C115.577 61.8616 116.819 58.3833 116.819 56.8708C116.819 56.0455 117.092 54.0921 117.457 51.8589C117.486 51.6788 117.517 51.4976 117.547 51.3142C118.268 46.9721 119.267 41.8522 119.267 41.8522C119.267 41.8522 120.38 44.2972 122.551 44.2972C124.72 44.2972 124.217 42.4326 124.217 42.4326C124.217 42.4326 126.197 42.6667 126.665 43.1739C127.133 43.681 128.319 45.8724 128.555 46.4702C128.555 46.4702 128.603 47.2307 126.731 47.5928C126.731 47.5928 127.187 49.6573 127.241 51.0334C127.281 52.0501 126.551 55.232 126.342 57.2111C126.267 57.9121 126.257 58.4621 126.37 58.7115C126.515 59.0313 126.984 59.3497 127.517 59.6621C128.574 60.2817 129.889 60.878 129.442 61.4162Z" fill="#1C468A"/>
<path fill-rule="evenodd" clip-rule="evenodd" d="M127.516 59.6622C128.717 61.7228 124.258 62.3423 123.52 62.7785C121.844 63.7687 116.718 67.359 115.113 67.2066C114.49 67.1477 114.607 65.9524 114.984 64.3663C115.577 61.8616 116.819 58.3834 116.819 56.8709C116.819 56.0455 117.092 54.0921 117.457 51.8589L119.389 49.9923C119.389 49.9923 121.459 55.3763 123.433 56.2587C124.467 56.7207 125.547 57.0258 126.341 57.2111C126.267 57.9121 126.257 58.4621 126.37 58.7116C126.515 59.0315 126.983 59.35 127.516 59.6622Z" fill="#2C3A64"/>
<path fill-rule="evenodd" clip-rule="evenodd" d="M118.672 43.4638C118.672 43.4638 117.02 42.4545 115.423 44.3692C113.826 46.284 116.558 59.9722 118.925 60.6753C121.554 61.4564 129.441 61.4162 129.441 61.4162L129.112 60.4533C129.112 60.4533 120.917 57.7964 120.581 57.3618C120.245 56.9273 119.512 43.6846 118.672 43.4638Z" fill="#6D5545"/>
<path fill-rule="evenodd" clip-rule="evenodd" d="M119.266 41.8519C119.266 41.8519 115.874 42.1598 114.888 43.2825C113.903 44.4054 113.615 47.4477 113.615 47.4477C113.615 47.4477 116.603 49.8745 120.203 48.9326L119.266 41.8519Z" fill="#1C468A"/>
<path fill-rule="evenodd" clip-rule="evenodd" d="M140.325 56.491L140.648 53.4971L136.44 59.0765C136.44 59.0765 138.202 59.9594 138.305 59.7905C138.409 59.6216 140.325 56.491 140.325 56.491Z" fill="#163560"/>
<path fill-rule="evenodd" clip-rule="evenodd" d="M134.027 56.4911L130.14 62.4639H136.669L140.325 56.4911H134.027Z" fill="#1C468A"/>
<path fill-rule="evenodd" clip-rule="evenodd" d="M140.324 56.4909L140.629 53.5258L138.43 56.2944L140.324 56.4909Z" fill="#EFDECE"/>
<path fill-rule="evenodd" clip-rule="evenodd" d="M130.339 62.1572L130.041 61.9428L133.904 56.1667L134.027 56.491L130.339 62.1572Z" fill="#EFDECE"/>
<path fill-rule="evenodd" clip-rule="evenodd" d="M133.904 56.1667L140.055 56.3404L140.325 56.491H134.027L133.904 56.1667Z" fill="#FCECDB"/>
<path fill-rule="evenodd" clip-rule="evenodd" d="M132.619 61.2784C132.498 61.262 132.345 61.2649 132.199 61.2749C132.669 61.0548 133.142 60.8163 133.142 60.8163C133.142 60.8163 132.931 60.5989 132.124 60.8875C132.033 60.92 131.942 60.9277 131.852 60.9177L132.984 60.4056C132.782 60.2231 132.241 60.3687 131.818 60.5243C131.517 60.6356 131.18 60.5859 130.927 60.3875C130.922 60.3842 130.918 60.381 130.914 60.3776C130.933 60.3756 130.95 60.3745 130.97 60.3717C131.63 60.274 131.799 59.894 131.615 59.9374C131.432 59.981 130.324 60.0619 130.324 60.0619C129.824 60.0328 128.832 60.4175 128.832 60.4175L129.387 61.4476C129.387 61.4476 130.981 61.7461 131.396 61.6168C131.43 61.6063 131.47 61.592 131.515 61.5751L132.964 61.4792C132.964 61.4794 132.938 61.3219 132.619 61.2784Z" fill="#6D5545"/>
<path fill-rule="evenodd" clip-rule="evenodd" d="M188.692 101.498C188.692 101.498 197.06 105.166 198.578 105.099C200.097 105.032 209.456 102.231 209.456 102.231L209.218 103.851C209.218 103.851 201.995 108.03 199.47 108.267C196.984 108.501 188.484 106.022 187.663 105.499C186.842 104.976 186.307 102.027 188.692 101.498Z" fill="#ED985F"/>
<path fill-rule="evenodd" clip-rule="evenodd" d="M187.436 88.0046C187.436 88.0046 184.349 87.4148 182.812 88.5443C180.027 90.5904 179.878 97.6448 178.834 98.6956C177.79 99.7464 175.274 99.2981 175.05 104.736C174.826 110.173 176.052 110.628 174.592 113.055C173.133 115.482 175.21 117.912 175.21 117.912C175.21 117.912 174.359 116.572 174.723 115.605C174.723 115.605 175.078 117.739 176.425 118.239C177.773 118.74 177.972 119.106 178.188 119.84C178.188 119.84 189.685 113.913 189.697 109.708C189.71 105.504 191.96 101.339 190.855 99.5172C190.855 99.5172 191.347 100.297 191.407 101.164C191.407 101.164 192.07 99.8857 190.921 98.6959C189.772 97.5062 192.269 95.0438 191.9 92.1922C191.646 90.2345 190.281 88.09 187.436 88.0046Z" fill="#233862"/>
<path fill-rule="evenodd" clip-rule="evenodd" d="M189.71 105.504C188.975 106.017 188.053 106.439 186.897 106.708C182.561 107.716 180.899 104.029 180.275 101.498C180.866 101.157 181.423 101.082 181.744 101.044C182.057 101.006 182.387 100.982 182.66 100.968C183.147 100.593 183.872 99.0573 184.033 96.6729L184.237 96.7279L187.654 97.669C187.654 97.669 187.497 98.762 187.421 99.795C187.361 100.603 187.352 101.376 187.504 101.565C187.771 101.623 187.931 101.661 187.931 101.661C187.931 101.661 187.931 101.662 187.933 101.664C187.979 101.74 188.97 103.381 189.71 105.504Z" fill="#FFB27D"/>
<path fill-rule="evenodd" clip-rule="evenodd" d="M187.654 97.67C187.654 97.67 187.497 98.7621 187.42 99.7959C185.484 99.6008 184.586 97.7463 184.236 96.729L187.654 97.67Z" fill="#ED985F"/>
<path fill-rule="evenodd" clip-rule="evenodd" d="M188.233 98.6957C188.233 98.6957 183.638 98.4406 183.84 95.5636C184.042 92.6868 183.585 90.7163 186.527 90.7574C189.47 90.7984 189.962 91.9369 190.127 92.9137C190.291 93.8905 189.434 98.688 188.233 98.6957Z" fill="#FFB27D"/>
<path fill-rule="evenodd" clip-rule="evenodd" d="M190.104 91.3045C189.456 90.388 188.907 90.5392 188.588 90.7778C186.178 89.209 184.415 91.1441 184.415 91.1441C183.961 93.186 182.397 94.2617 182.397 94.2617C182.397 94.2617 183.197 94.8421 185.161 94.4821C185.761 94.3723 186.317 93.9889 186.8 93.5103C185.926 94.7703 184.796 95.642 184.796 95.642C187.176 94.7369 188.331 91.5799 188.448 91.2456C188.71 91.5189 189.223 92.1087 189.353 92.66C189.529 93.4091 190.291 94.5801 190.732 94.5603C190.732 94.5602 191.076 92.679 190.104 91.3045Z" fill="#233862"/>
<path fill-rule="evenodd" clip-rule="evenodd" d="M178.967 114.905C178.552 112.77 177.199 104.242 178.552 101.498C179.038 100.512 180.944 100.423 183.037 100.51C183.688 100.932 186.168 102.531 187.187 102.331C187.198 102.329 187.218 102.324 187.244 102.318C187.724 102.197 187.905 101.858 187.505 101.565C187.504 101.565 188.541 101.465 189.828 101.709C190.555 101.846 192.515 102.867 192.515 102.867C192.515 102.867 191.528 104.661 190.072 105.281C190.32 107.509 189.952 108.491 187.655 113.637C185.713 117.987 187.916 121.903 187.916 121.903C187.916 121.903 176.49 131.147 176.426 126.44C176.379 122.897 179.497 117.632 178.967 114.905Z" fill="white"/>
<path fill-rule="evenodd" clip-rule="evenodd" d="M188.483 131.954C189.104 131.883 189.664 131.541 190.011 131.018C190.066 130.935 190.125 130.846 190.188 130.75C191.488 128.769 191.994 122.702 194.92 116.239C195.633 114.665 198.191 114.382 198.888 112.603C198.888 112.603 200.605 106.838 195.602 106.668C190.6 106.497 182.204 122.71 182.072 124.41C181.943 126.057 178.764 133.057 188.483 131.954Z" fill="#DD6D22"/>
<path fill-rule="evenodd" clip-rule="evenodd" d="M208.365 131.821H201.245C201.245 131.821 200.979 130.679 201.446 129.901C201.86 129.213 201.701 128.821 201.395 128.252C201.718 128.385 202.135 128.506 202.594 128.479C202.949 128.459 203.324 128.297 203.653 128.104C203.959 128.456 205.272 129.952 205.682 130.249C206.147 130.585 208.222 130.465 208.365 131.821Z" fill="#233862"/>
<path fill-rule="evenodd" clip-rule="evenodd" d="M179.717 103.733C179.717 103.733 178.79 112.216 184.8 113.994C190.81 115.772 192.516 106.189 187.664 105.499C182.811 104.81 179.717 103.733 179.717 103.733Z" fill="#EBEEF2"/>
<path fill-rule="evenodd" clip-rule="evenodd" d="M199.051 108.334C199.48 111.568 201.154 121.776 204.107 126.756C205.06 128.361 201.708 129.261 201.69 129.257C201.241 129.139 200.492 128.418 200.147 128.105C197.749 125.93 192.881 119.774 192.881 114.838C192.881 112.431 192.839 107.834 194.579 106.666C195.65 105.947 198.881 107.05 199.051 108.334Z" fill="#ED7D2B"/>
<path fill-rule="evenodd" clip-rule="evenodd" d="M184.237 131.821C184.237 131.821 184.501 131.452 184.961 130.75C185.508 129.916 186.114 128.273 186.849 126.168C187.622 123.958 188.538 121.24 189.683 118.411C190.036 117.538 190.411 116.654 190.81 115.771C191.523 114.198 193.483 114.415 194.181 112.636C194.181 112.636 196.902 106.47 191.899 106.3C186.897 106.13 177.391 122.796 176.845 124.41C176.247 126.177 173.329 133.514 184.237 131.821Z" fill="#F99746"/>
<path fill-rule="evenodd" clip-rule="evenodd" d="M203.138 131.821H196.018C196.018 131.821 195.752 130.679 196.219 129.901C196.633 129.213 196.474 128.821 196.168 128.252C196.491 128.385 196.908 128.506 197.367 128.479C197.722 128.459 198.097 128.297 198.426 128.104C198.732 128.456 200.045 129.952 200.455 130.249C200.92 130.585 202.995 130.465 203.138 131.821Z" fill="#2B478B"/>
<path fill-rule="evenodd" clip-rule="evenodd" d="M186.85 126.168C187.622 123.958 188.538 121.24 189.683 118.411C189.384 116.268 188.739 114.393 187.655 113.637C187.655 113.637 185.024 121.839 186.85 126.168Z" fill="#ED7D2B"/>
<path fill-rule="evenodd" clip-rule="evenodd" d="M194.894 108.105C195.323 111.339 195.927 121.776 198.88 126.756C199.832 128.361 196.481 129.261 196.463 129.257C196.014 129.139 195.265 128.418 194.92 128.105C192.522 125.93 187.654 119.774 187.654 114.837C187.654 112.431 190.462 108.027 192.201 106.859C193.272 106.139 194.724 106.82 194.894 108.105Z" fill="#F99746"/>
<path fill-rule="evenodd" clip-rule="evenodd" d="M189.092 97.0414C189.092 97.0414 188.658 96.8686 187.435 96.9682C187.435 96.9682 187.5 97.4479 188.402 97.4954C188.913 97.5224 189.092 97.0414 189.092 97.0414Z" fill="white"/>
<path fill-rule="evenodd" clip-rule="evenodd" d="M210.35 98.8421L208.874 96.1625L205.68 105.128L207.564 107.163L210.35 98.8421Z" fill="#163560"/>
<path fill-rule="evenodd" clip-rule="evenodd" d="M202.643 100.412L199.674 108.944L207.565 107.163L210.351 98.8421L202.643 100.412Z" fill="#1C468A"/>
<path fill-rule="evenodd" clip-rule="evenodd" d="M199.831 108.514L199.693 108.271L202.502 100.196L202.642 100.412L199.831 108.514Z" fill="#EFDECE"/>
<path fill-rule="evenodd" clip-rule="evenodd" d="M202.502 100.196L209.983 98.7312L210.351 98.8422L202.643 100.412L202.502 100.196Z" fill="#FCECDB"/>
<path fill-rule="evenodd" clip-rule="evenodd" d="M210.35 98.8422L208.754 96.2928L207.736 99.171L209.983 98.7312L210.35 98.8422Z" fill="#EFDECE"/>
<path fill-rule="evenodd" clip-rule="evenodd" d="M204.921 101.647C204.664 101.598 204.114 101.389 203.556 101.234C203.723 101.104 203.908 100.945 203.959 100.781C204.059 100.465 204.125 100.363 203.794 100.463C203.462 100.563 202.302 101.099 202.302 101.099C202.302 101.099 202.305 101.1 202.305 101.1C201.646 101.294 201.039 102.231 201.039 102.231C201.039 102.231 192.881 105.116 191.899 105.166C190.381 105.243 180.275 101.498 180.275 101.498C177.89 102.028 178.425 104.976 179.246 105.499C180.067 106.022 187.339 108.684 191.648 108.734C193.831 108.76 201.772 103.625 201.772 103.625C201.772 103.625 202.7 103.198 203.429 103.331C204.158 103.465 205.849 103.331 206.213 102.731C206.578 102.131 205.351 101.731 204.921 101.647Z" fill="#FFB27D"/>
<path fill-rule="evenodd" clip-rule="evenodd" d="M185.483 103.345C185.483 103.345 184.579 106.224 181.475 106.879C181.475 106.879 176.348 105.29 178.901 101.776C178.901 101.776 181.424 99.8894 185.483 103.345Z" fill="white"/>
<path fill-rule="evenodd" clip-rule="evenodd" d="M210.218 101.864L210.217 101.865C210.219 101.785 210.212 101.706 210.19 101.631C210.19 101.631 209.459 100.467 209.22 100.419C208.49 100.274 208.49 101.241 208.645 101.864C208.753 102.298 209.027 102.715 209.249 102.94L209.249 102.94L209.22 103.851C210.452 103.17 210.218 101.864 210.218 101.864Z" fill="#FFB27D"/>
<path fill-rule="evenodd" clip-rule="evenodd" d="M145.635 116.045C145.635 116.045 144.336 116.843 143.905 118.156C143.829 118.385 143.78 118.631 143.77 118.89C143.699 120.634 143.77 124.58 143.77 124.58L139.934 122.607L136.107 124.58V119.231C136.107 118.22 136.435 117.236 137.045 116.591C137.34 116.279 137.699 116.044 138.105 116.044L145.635 116.045Z" fill="#F99746"/>
<path fill-rule="evenodd" clip-rule="evenodd" d="M145.634 116.044C145.634 116.044 144.335 116.843 143.904 118.155L136.216 118.234C136.216 118.234 136.517 116.354 138.104 116.044H145.634Z" fill="#ED7D2B"/>
<path fill-rule="evenodd" clip-rule="evenodd" d="M70.1084 90.5105C70.1084 90.5105 70.9235 94.0681 73.2989 94.0681C75.335 94.0681 78.1282 89.4372 78.1282 89.4372L70.1084 90.5105Z" fill="#F99746"/>
<path fill-rule="evenodd" clip-rule="evenodd" d="M97.2479 143.378L95.8849 144.106C95.8849 144.106 88.5147 136.243 86.7428 128.698C86.4268 127.35 86.2989 126.022 86.4343 124.761C86.4343 124.761 86.3272 124.419 86.1397 123.815C86.1315 123.789 86.123 123.761 86.1147 123.734C86.0327 123.469 85.9343 123.157 85.8249 122.804C85.4691 121.664 84.9802 120.104 84.4231 118.327C83.1404 114.24 80.2063 105.02 78.9525 101.185L87.9635 97.905C87.9635 97.905 88.987 100.253 90.4576 106.636C90.684 107.469 90.9112 108.39 91.1232 109.394C91.3636 110.531 91.5878 111.774 91.7744 113.117C92.0904 115.392 92.3015 117.952 92.3146 120.76C92.3197 121.902 92.2918 123.086 92.2245 124.308C92.1752 125.204 92.3076 126.398 92.5558 127.756C93.6911 133.966 97.2479 143.378 97.2479 143.378Z" fill="#2B478B"/>
<path fill-rule="evenodd" clip-rule="evenodd" d="M102.182 146.852H94.8971C94.8971 146.852 94.6247 145.683 95.103 144.888C95.5264 144.184 95.3642 143.783 95.0505 143.2C95.3805 143.336 95.8075 143.46 96.2774 143.433C96.6404 143.412 97.0242 143.246 97.3609 143.049C97.6744 143.409 99.017 144.94 99.4367 145.243C99.9127 145.588 102.036 145.465 102.182 146.852Z" fill="#233862"/>
<path fill-rule="evenodd" clip-rule="evenodd" d="M91.7746 113.117L86.1146 123.734C86.0326 123.469 85.9342 123.157 85.8247 122.804C85.469 121.664 84.9801 120.104 84.423 118.327C83.1403 114.24 80.2062 105.02 78.9524 101.185L87.9634 97.905C87.9634 97.905 88.9869 100.253 90.4575 106.636C90.6839 107.469 90.9111 108.39 91.123 109.394C91.3636 110.531 91.5878 111.774 91.7746 113.117Z" fill="#233862"/>
<path fill-rule="evenodd" clip-rule="evenodd" d="M78.8066 144.558C78.8066 144.558 78.3023 145.802 78.7772 146.852H82.7399C82.7399 146.852 82.8221 145.906 81.3842 144.808C80.295 143.977 78.8066 144.558 78.8066 144.558Z" fill="#233862"/>
<path fill-rule="evenodd" clip-rule="evenodd" d="M83.1196 63.5117C83.1221 63.3132 83.2234 61.173 86.455 60.9831C86.455 60.9831 84.8692 61.2125 84.6112 61.9226C84.6112 61.9226 85.6733 61.0271 86.5619 61.2853C87.4505 61.5435 88.0057 63.0856 88.0232 63.5967C88.0406 64.1079 87.5901 65.7681 87.0338 65.9218C86.8231 65.9801 86.5785 65.9717 86.3558 65.9391C86.5103 66.1693 86.6624 66.424 86.8089 66.7087C88.1634 69.3429 86.995 72.4458 85.8955 72.1847C85.1903 72.0171 84.7617 73.2466 84.7617 73.2466L77.9802 67.379C77.9802 67.3793 80.3561 62.1127 83.1196 63.5117Z" fill="#2C3A64"/>
<path fill-rule="evenodd" clip-rule="evenodd" d="M78.8558 81.3412C79.6077 81.866 80.5505 82.2989 81.734 82.5735C86.1705 83.6049 87.8706 79.8322 88.5091 77.2425C87.9042 76.8941 87.3348 76.8173 87.006 76.7779C86.6855 76.7399 86.3481 76.7146 86.0688 76.7005C85.5706 76.3166 84.8285 74.7455 84.6642 72.3058L84.4554 72.3621L80.959 73.325C80.959 73.325 81.1191 74.4434 81.1975 75.5003C81.2582 76.3274 81.2678 77.1178 81.112 77.3113C80.8392 77.3709 80.6755 77.4098 80.6755 77.4098C80.6755 77.4098 80.6753 77.411 80.6738 77.413C80.6269 77.4906 79.6127 79.1691 78.8558 81.3412Z" fill="#C29474"/>
<path fill-rule="evenodd" clip-rule="evenodd" d="M80.9584 73.3257C80.9584 73.3257 81.1192 74.4429 81.1969 75.501C83.1778 75.3013 84.0971 73.4037 84.455 72.3629L80.9584 73.3257Z" fill="#ED985F"/>
<path fill-rule="evenodd" clip-rule="evenodd" d="M80.9186 75.0037C80.9186 75.0037 85.4794 73.8246 84.7059 70.9781C83.9323 68.1317 83.9999 66.0625 81.0553 66.6949C78.1107 67.3274 77.8424 68.5686 77.871 69.5818C77.8995 70.5953 79.7124 75.2372 80.9186 75.0037Z" fill="#C29474"/>
<path fill-rule="evenodd" clip-rule="evenodd" d="M77.5736 67.9628C78.0417 66.913 78.6235 66.9542 78.9908 67.1293C81.0978 65.071 83.2507 66.6586 83.2507 66.6586C84.1117 68.6164 85.8943 69.3817 85.8943 69.3817C85.8943 69.3817 85.2071 70.1246 83.1646 70.1582C82.5408 70.1684 81.9067 69.8955 81.3265 69.5123C82.454 70.6011 83.761 71.2488 83.761 71.2488C81.1929 70.8186 79.4074 67.8825 79.2242 67.5706C79.0154 67.8976 78.6175 68.5925 78.5966 69.1717C78.5681 69.9589 78.8735 71.4788 78.4275 71.5474C78.4273 71.5474 76.8714 69.5372 77.5736 67.9628Z" fill="#2C3A64"/>
<path fill-rule="evenodd" clip-rule="evenodd" d="M79.6075 77.1731C79.6075 77.1731 87.2671 75.302 90.5978 78.0659L88.9333 101.422L73.9531 97.7805C73.9531 97.7805 74.3745 96.3025 77.247 92.3727C80.1196 88.4425 78.8701 82.6781 79.6075 77.1731Z" fill="#C29474"/>
<path fill-rule="evenodd" clip-rule="evenodd" d="M84.0724 98.8219C84.0724 98.8219 84.0636 98.901 84.048 99.0519C84.0412 99.1168 84.0324 99.1953 84.0229 99.2867C83.9584 99.892 83.8364 101.054 83.679 102.564C83.268 106.525 82.6228 112.887 82.1834 117.909C81.8394 121.835 81.6211 124.942 81.7392 125.441C82.0939 126.943 81.7392 144.891 81.7392 144.891C80.466 145.506 78.5356 144.891 78.5356 144.891C78.5356 144.891 75.1442 128.717 75.6189 126.469C76.0936 124.221 75.3015 122.302 75.3015 122.302C72.6683 109.963 72.9566 103.125 73.4795 99.8511C73.6315 98.8991 73.8037 98.2488 73.9299 97.8521C74.0365 97.515 74.1103 97.3608 74.1103 97.3608C79.9185 95.7882 84.0724 98.8219 84.0724 98.8219Z" fill="#2B478B"/>
<path fill-rule="evenodd" clip-rule="evenodd" d="M91.6303 84.7274C91.2607 87.5372 89.7812 90.9754 89.2529 92.8263C89.2529 92.8263 90.136 99.2517 89.2929 101.016C89.1973 101.217 89.0787 101.358 88.9334 101.421C85.8098 102.791 73.6452 101.461 73.1319 97.513C72.9454 96.0785 77.7653 91.0322 78.0461 90.42C78.1628 90.1668 78.2869 89.3458 77.7219 87.6444C76.9208 90.1294 72.4996 89.4149 72.4996 89.4149C73.0185 88.5215 74.3114 82.3411 75.7548 79.5511C76.8399 77.4539 79.7377 77.1502 79.7377 77.1502C79.7377 77.1502 80.9437 79.0748 83.8604 78.8018C86.777 78.5289 87.3105 76.7325 87.3105 76.7325C87.3105 76.7325 89.8973 77.0785 90.6944 77.7255C90.8324 77.8374 92.1154 81.0462 91.6303 84.7274Z" fill="#F99746"/>
<path fill-rule="evenodd" clip-rule="evenodd" d="M89.2522 92.8263C89.2522 92.8263 90.1353 99.2517 89.2922 101.016C87.0166 99.8667 84.0503 97.386 84.9532 93.5094C86.2644 87.8776 91.6298 84.7274 91.6298 84.7274C91.26 87.537 89.7805 90.9754 89.2522 92.8263Z" fill="#ED7D2B"/>
<path fill-rule="evenodd" clip-rule="evenodd" d="M79.7533 85.2276L84.9691 93.6469H76.0944L71.1249 85.4097L79.7533 85.2276Z" fill="#1C468A"/>
<path fill-rule="evenodd" clip-rule="evenodd" d="M84.6966 93.2241L84.7866 92.93L79.8511 84.9626L79.7521 85.2277L84.6966 93.2241Z" fill="#EFDECE"/>
<path fill-rule="evenodd" clip-rule="evenodd" d="M79.8524 84.9626L71.4919 85.2021L71.1249 85.4098L79.7533 85.2277L79.8524 84.9626Z" fill="#FCECDB"/>
<path fill-rule="evenodd" clip-rule="evenodd" d="M71.1241 85.4097L66.4341 82.8556L71.9011 91.4937L76.0936 93.6469L71.1241 85.4097Z" fill="#163560"/>
<path fill-rule="evenodd" clip-rule="evenodd" d="M95.9438 91.3096C95.4416 91.5405 94.152 93.0689 93.6917 93.2241C91.6223 93.9205 82.8151 92.0666 82.8151 92.0666L83.0878 90.5146C83.0878 90.5146 91.732 90.7456 92.6822 90.4898C92.8612 90.4414 93.7953 88.9714 94.1545 88.7603L95.9438 91.3096Z" fill="#C29474"/>
<path fill-rule="evenodd" clip-rule="evenodd" d="M83.0881 90.5145C83.0881 90.5145 82.0456 89.6609 81.3413 89.854C80.637 90.0471 79.6004 90.9434 79.2158 91.1555C78.8312 91.3677 77.7853 92.1268 78.3153 92.5859C78.8452 93.0448 80.4951 92.6508 81.1485 92.2989C81.802 91.947 82.8154 92.0672 82.8154 92.0672L83.0881 90.5145Z" fill="#C29474"/>
<path fill-rule="evenodd" clip-rule="evenodd" d="M81.5406 89.8262C81.5406 89.8262 80.2737 89.6742 79.9277 89.6812C79.5817 89.6882 79.6758 89.7645 79.8667 90.0347C80.0576 90.3048 80.7174 90.408 80.7477 90.5026C80.7778 90.5969 81.5406 89.8262 81.5406 89.8262Z" fill="#C29474"/>
<path fill-rule="evenodd" clip-rule="evenodd" d="M87.3096 76.7318C87.3096 76.7318 91.0665 77.1803 92.101 78.8012C93.4089 80.8507 96.4956 89.0135 96.396 91.0704C96.396 91.0704 94.1392 94.935 86.4005 94.3165C86.4005 94.3165 85.5952 91.4552 87.223 90.5103C87.223 90.5103 91.1979 89.7991 91.6556 89.3935L90.3276 83.8408L87.3096 76.7318Z" fill="#F99746"/>
<path fill-rule="evenodd" clip-rule="evenodd" d="M72.3264 88.4872C72.21 88.0112 71.1779 88.3085 70.8299 88.5826C70.7454 88.6492 70.6545 88.7626 70.5654 88.8954C70.5546 88.8156 70.5452 88.7393 70.54 88.6799C70.5203 88.4561 70.2614 88.0554 70.1971 88.3555C70.1328 88.6554 70.0269 89.916 70.0269 89.916C70.0144 90.9314 70.663 91.3503 71.0798 91.0199C71.4966 90.6897 72.4429 88.9635 72.3264 88.4872Z" fill="#C29474"/>
</g>
<defs>
<clipPath id="clip0">
<rect width="274" height="148" fill="white" transform="translate(0.000854492)"/>
</clipPath>
</defs>
</svg>
