<?xml version="1.0" encoding="UTF-8"?>
<svg width="4266.7" height="2666.7" version="1.1" viewBox="0 0 4266.7 2666.7" xml:space="preserve" xmlns="http://www.w3.org/2000/svg" xmlns:cc="http://creativecommons.org/ns#" xmlns:dc="http://purl.org/dc/elements/1.1/" xmlns:rdf="http://www.w3.org/1999/02/22-rdf-syntax-ns#"><metadata><rdf:RDF><cc:Work rdf:about=""><dc:format>image/svg+xml</dc:format><dc:type rdf:resource="http://purl.org/dc/dcmitype/StillImage"/><dc:title/></cc:Work></rdf:RDF></metadata><g transform="matrix(1.3333 0 0 -1.3333 0 2666.7)"><g transform="scale(.1)"><g transform="scale(1.9632)"><path d="m16300 0h-16300v10188h16300v-10188" fill="#fff"/></g><g transform="scale(1.9417)"><path d="m1747.9 1218.7 4662.5 21.48 1242.8 0.3 411.7 0.16 6933.9 1.7s1301.2 1480.7-88.7 2887.1c-1441.1 1458.1-2141.8 270.59-2584.7 2323.1-1115 5166.4-12139 2159.4-9247.4-2237 1041.1-1583-2049.4-741.62-1330.2-2996.8" fill="#ebf3fa"/></g><g transform="scale(1.1901)"><path d="m16300 2022.7h-5981.8l140.2 0.68 2027.7 0.5 671.7 0.25 3142.2 0.76v-2.19" fill="#e3edf9"/></g><g transform="scale(1.1901)"><path d="m10318 2022.7h-4446.6v9011.5c0 397.9 323.69 721.6 721.57 721.6h9101.1c334 0 605.7-271.7 605.7-605.7v-9125.2l-1110.6-0.25-2031.6-0.51-671.7-0.25-2027.7-0.5-140.2-0.68m-4282.6 3249.5v-3085.5h10100v3085.5h82v182.34h-82v1291.8h82v182.42h-82v1286.4h82v182.42h-82v1286.4h82v182.41h-82v1283.7c0 243.5-198.1 441.6-441.7 441.6h-9101.1c-307.43 0-557.54-250.1-557.54-557.5v-1167.8h-82.02v-182.41h82.02v-1286.4h-82.02v-182.42h82.02v-1286.4h-82.02v-182.42h82.02v-1291.8h-82.02v-182.34h82.02" fill="#d9e7f7"/></g><g transform="scale(1.1841)"><path d="m16300 9732.9h-10316v183.34h234.15v-4.14h257.61v4.14h60.12v-4.14h223.24v4.14h124.85l1.69-13.84 113.03 13.84h2452.9v-4.14h1053.4v4.14h2911.3v-4.14h257.5v4.14h60.2v-4.14h223.2v4.14h124.9l1.7-13.84 113 13.84h310.9v-4.14h1053.3v4.14h739.3v-183.34" fill="#d9e7f7"/></g><g transform="scale(1.1841)"><path d="m16300 8256.7h-10316v183.34h1078.7l1.17-9.63 78.66 9.63h2128v-0.17h257.57v0.17h60.13v-0.17h223.29v0.17h125.32l1.18-9.79 80.25 9.79h6282v-183.34" fill="#d9e7f7"/></g><g transform="scale(1.1841)"><path d="m16300 6780.4h-10316v183.34h2167.4v-0.42h226.93v0.42h31.55v-0.42h226.93v0.42h70v-0.42h226.92v0.42h126.67v-0.42h226.92v0.42h31.58v-0.42h226.92v0.42h70.01v-0.42h226.91v0.42h2160.6v-0.42h227v0.42h31.5v-0.42h226.9v0.42h70.1v-0.42h226.9v0.42h37.4v-0.42h179.6v0.42h23.1v-0.42h226.9v0.42h114.4v-0.42h179.5v0.42h329.6l2.7-0.42v0.42h32.8v-4.56h1053.4v4.56h1335.1v-183.34" fill="#d9e7f7"/></g><g transform="scale(1.1841)"><path d="m16300 5298.9h-10316v183.26h1761.1l79.18-9.63 1.19 9.63h7117.7l79.2-9.63 1.2 9.63h1276.7v-183.26" fill="#d9e7f7"/></g><g><path d="m9750.1 6491.6h305.08v1135.2h-305.08z" fill="#d9e7f7"/><path d="m9678.9 6491.6h-264.34v1233.9h264.34v-1233.9" fill="#d9e7f7"/><path d="m9264.8 6480.2-93.77 11.4-168.62 20.7 149.86 1224.7 262.38-32.1-148.45-1213.3-1.4-11.4" fill="#deebfb"/></g><g transform="scale(1.1398)"><path d="m16300 5695.4h-267.7v995.97h267.7v-995.97" fill="#d9e7f7"/></g><g transform="scale(1.1167)"><path d="m16300 5813.1h-236.7v1104.9h236.7v-1104.9" fill="#d9e7f7"/></g><g transform="scale(1.1005)"><path d="m16164 5888.4-85.3 10.36-153.2 18.81 136.2 1112.9 238.4-29.17-134.8-1102.5-1.3-10.36" fill="#deebfb"/></g><g><path d="m8762.7 6491.6h-1247.3v222.1h1247.3v-222.1" fill="#c0d9f7"/><path d="m8610.2 6713.7h-1247.3v152.6h1247.3v-152.6" fill="#d1e3f6"/><path d="m8681.4 6866.3h-1195.8v152.7h1195.8v-152.7" fill="#deebfb"/><path d="m8536.6 7019h-1080v116.6h1080v-116.6" fill="#d9e7f7"/><path d="m14750 6491.6h-1247.3v222.1h1247.3v-222.1" fill="#deebfb"/><path d="m14597 6713.7h-1247.3v152.6h1247.3v-152.6" fill="#d1e3f6"/><path d="m14668 6866.3h-1195.9v152.7h1195.9v-152.7" fill="#deebfb"/><path d="m14524 7019h-1080v116.6h1080v-116.6" fill="#d9e7f7"/><path d="m14556 7135.6h-1247.3v152.7h1247.3v-152.7" fill="#d1e3f6"/><path d="m14627 7288.3h-1195.9v152.6h1192.3l3.6-20.3v-132.3" fill="#deebfb"/><path d="m14483 7440.9h-1080v116.6h1080v-116.6" fill="#d9e7f7"/></g><g fill="#d6e6f7"><path d="m12568 6496.5h212.6v1229h-212.6z"/><path d="m15182 6496.5h212.6v1285.3h-212.6z"/><path d="m15826 6496.5h212.7v1229h-212.7z"/></g><path d="m12568 6496.5h-268.8v1330.3h268.8v-1330.3" fill="#e7f0f9"/><g transform="scale(1.0032)"><path d="m16300 6475.9h-267.8v1326.1h267.8v-1326.1" fill="#e7f0f9"/></g><g><path d="m12299 6496.5h-268.7v1266.9h268.7v-1266.9" fill="#d1e3f6"/><path d="m14789 6496.5-161.3 924.1-3.6 20.3-82.3 471.9 264.7 46.2 247.2-1416.2-264.7-46.3" fill="#d1e3f6"/><path d="m11761 6496.5h268.7v1072.6h-268.7z" fill="#d9e7f7"/></g><g transform="scale(1.0248)"><path d="m16300 6339.6h-262.2v1046.7h262.2v-1046.7" fill="#d9e7f7"/></g><path d="m11761 6496.5h-268.7v1130.3h268.7v-1130.3" fill="#c0d9f7"/><path d="m11181 6496.5h268.7v1130.3h-268.7z" fill="#deebfb"/><g transform="scale(1.0435)"><path d="m16300 6225.5h-257.6v1083.2h257.6v-1083.2" fill="#deebfb"/></g><g><path d="m10862 6496.5h268.7v1229h-268.7z" fill="#cde0fb"/><path d="m15530 6496.5h268.7v1229h-268.7z" fill="#cde0fb"/><path d="m16191 11737h-305v1135.2h305v-1135.2" fill="#d9e7f7"/></g><g transform="scale(1.0139)"><path d="m16300 11576h-260.7v1216.9h260.7v-1216.9" fill="#d9e7f7"/></g><g transform="scale(1.0392)"><path d="m16048 11283-1.9 15.8-142.3 1162.7 252.5 30.9 144.2-1178.5-123.7-15.1-128.8-15.8" fill="#deebfb"/></g><g><path d="m11282 9994h-305v1135.2h305v-1135.2" fill="#d9e7f7"/><path d="m11618 9994h-264.4v1233.9h264.4v-1233.9" fill="#d9e7f7"/><path d="m11768 9982.6-1.4 11.6-148.4 1213.1 262.4 32.1 149.8-1224.7-167.4-20.5-95-11.6" fill="#deebfb"/><path d="m7667.9 11737h-305.05v1135.2h305.05v-1135.2" fill="#d9e7f7"/><path d="m8003.4 11737h-264.34v1233.8h264.34v-1233.8" fill="#d9e7f7"/><path d="m8153.3 11726-2 16.4-147.85 1208.3 262.38 32.1 149.85-1224.7-128.54-15.7-133.84-16.4" fill="#deebfb"/></g><g transform="scale(1.1304)"><path d="m16300 10383h-1103.4v196.3h1103.4v-196.3" fill="#c0d9f7"/></g><g transform="scale(1.1398)"><path d="m16300 10492h-1094.4v134h1094.4v-134" fill="#d1e3f6"/></g><g transform="scale(1.1323)"><path d="m16300 10697h-1056.1v134.9h1056.1v-134.9" fill="#deebfb"/></g><g transform="scale(1.134)"><path d="m16300 10815h-952.3v102.8h952.3v-102.8" fill="#d9e7f7"/></g><g><path d="m12439 11737h-1247.4v222h1247.4v-222" fill="#deebfb"/><path d="m12592 11959h-1247.4v152.6h1247.4v-152.6" fill="#d1e3f6"/><path d="m12469 12112h-1195.8v152.7h1195.8v-152.7" fill="#deebfb"/><path d="m12498 12265h-1080v116.6h1080v-116.6" fill="#d9e7f7"/><path d="m12633 12381h-1247.4v152.7h1247.4v-152.7" fill="#d1e3f6"/><path d="m12510 12534h-1195.9v132.3l3.6 20.3h1192.3v-152.6" fill="#deebfb"/><path d="m12539 12687h-1079.9v116.6h1079.9v-116.6" fill="#d9e7f7"/></g><g fill="#d6e6f7"><path d="m13162 11742h212.6v1228.9h-212.6z"/><path d="m10547 11742h212.6v1285.2h-212.6z"/><path d="m9902.7 11742h212.62v1228.9h-212.62z"/></g><g><path d="m13374 11742h268.7v1330.3h-268.7z" fill="#e7f0f9"/><path d="m9589.7 11742h268.73v1330.3h-268.73z" fill="#e7f0f9"/><path d="m13643 11742h268.7v1266.9h-268.7z" fill="#d1e3f6"/><path d="m11153 11742-264.7 46.2 247.2 1416.2 264.8-46.2-82.4-471.9-3.6-20.3-161.3-924" fill="#d1e3f6"/></g><g transform="scale(1.0026)"><path d="m16300 9967.8h-1244v221.42h1244v-221.42" fill="#deebfb"/></g><g transform="scale(1.012)"><path d="m16300 10095h-1232.5v150.8h1232.5v-150.8" fill="#d1e3f6"/></g><g transform="scale(1.0045)"><path d="m16300 10323h-1190.6v151.9h1190.6v-151.9" fill="#deebfb"/></g><g transform="scale(1.0063)"><path d="m16300 10456h-1073.2v115.9h1073.2v-115.9" fill="#d9e7f7"/></g><g transform="scale(1.0145)"><path d="m16300 10486h-1229.4v150.5h1229.4v-150.5" fill="#d1e3f6"/></g><g transform="scale(1.007)"><path d="m16300 10716h-1187.6v131.3l3.6 20.3h1184v-151.6" fill="#deebfb"/></g><g transform="scale(1.0088)"><path d="m16300 10848h-1070.6v115.6h1070.6v-115.6" fill="#d9e7f7"/></g><g><path d="m15057 9999.1-264.7 46.2 247.2 1416.2 264.7-46.2-82.3-471.9-3.6-20.4-161.3-923.9" fill="#d1e3f6"/><path d="m13912 11742h268.7v1072.6h-268.7z" fill="#d9e7f7"/><path d="m9238.1 11742h268.72v1072.6h-268.72z" fill="#d9e7f7"/><path d="m14180 11742h268.8v1130.3h-268.8z" fill="#c0d9f7"/><path d="m14492 11742h268.8v1130.3h-268.8z" fill="#deebfb"/><path d="m8932 11742h268.72v1130.3h-268.72z" fill="#deebfb"/><path d="m14095 9994.2h268.7v1330.2h-268.7z" fill="#e7f0f9"/><path d="m13744 9994.2h268.7v1072.6h-268.7z" fill="#d9e7f7"/></g><g fill="#deebfb"><path d="m13438 9994.2h268.7v1130.3h-268.7z"/><path d="m12539 9994.2h268.7v1130.3h-268.7z"/><path d="m12164 9994.2h268.7v1130.3h-268.7z"/></g><g><path d="m7933.6 9994.2h268.72v1330.2h-268.72z" fill="#e7f0f9"/><path d="m8364.4 9982.8-1.39 11.4-160.17 1309 266.73 32.6 161.56-1320.4-173.59-21.2-93.14-11.4" fill="#e7f0f9"/><path d="m7582 9994.2h268.73v1072.6h-268.73z" fill="#d9e7f7"/><path d="m7275.9 9994.2h268.73v1130.3h-268.73z" fill="#deebfb"/><path d="m14811 11742h268.7v1228.9h-268.7z" fill="#cde0fb"/><path d="m11947 8246.1h212.6v1228.9h-212.6z" fill="#d6e6f7"/><path d="m12159 8246.1h268.8v1330.3h-268.8z" fill="#e7f0f9"/><path d="m12428 8246.1h268.7v1266.9h-268.7z" fill="#d1e3f6"/><path d="m12697 8246.1h268.7v1072.6h-268.7z" fill="#d9e7f7"/><path d="m12965 8246.1h268.7v1130.3h-268.7z" fill="#c0d9f7"/><path d="m13277 8246.1h268.7v1130.3h-268.7z" fill="#deebfb"/><path d="m13596 8246.1h268.8v1228.9h-268.8z" fill="#cde0fb"/></g><g transform="scale(1.0479)"><path d="m16300 9537.2h-256.4v1172.8h256.4v-1172.8" fill="#cde0fb"/></g><g transform="scale(1.0659)"><path d="m16300 9376.6h-252.1v1152.9h252.1v-1152.9" fill="#cde0fb"/></g><path d="m10143 11742h268.7v1228.9h-268.7z" fill="#cde0fb"/><g transform="scale(1.0872)"><path d="m16300 7580.1h-1147.3v204.21h1147.3v-204.21" fill="#deebfb"/></g><g transform="scale(1.0965)"><path d="m16300 7717.9h-1137.5v139.17h1137.5v-139.17" fill="#d1e3f6"/></g><g transform="scale(1.089)"><path d="m16300 7911.3h-1098.2v140.22h1098.2v-140.22" fill="#deebfb"/></g><g transform="scale(1.0908)"><path d="m16300 8038.5h-990.1v106.9h990.1v-106.9" fill="#d9e7f7"/></g><g transform="scale(1.099)"><path d="m16300 8084.1h-1134.9v138.94h1134.9v-138.94" fill="#d1e3f6"/></g><g transform="scale(1.0915)"><path d="m16300 8279.7h-1095.6v121.21l3.3 18.6h1092.3v-139.81" fill="#deebfb"/></g><g transform="scale(1.0933)"><path d="m16300 8405.8h-987.9v106.65h987.9v-106.65" fill="#d9e7f7"/></g><g><path d="m16041 8245.6h-212.6v1285.2h212.6v-1285.2" fill="#d6e6f7"/><path d="m15397 8245.6h-212.7v1228.9h212.7v-1228.9" fill="#d6e6f7"/><path d="m15140 8245.6h-268.7v1330.2h268.7v-1330.2" fill="#e7f0f9"/></g><g transform="scale(1.0234)"><path d="m16058 8057-3.2 0.49-255.5 44.65 241.6 1383.8 258.6-45.14-80.4-461.11-3.5-19.83-157.6-902.38v-0.49" fill="#d1e3f6"/></g><g><path d="m14788 8245.6h-268.7v1072.5h268.7v-1072.5" fill="#d9e7f7"/><path d="m14482 8245.6h-268.8v1130.3h268.8v-1130.3" fill="#deebfb"/><path d="m11655 8245.6h-268.7v1330.2h268.7v-1330.2" fill="#e7f0f9"/><path d="m11303 8245.6h-268.7v1072.5h268.7v-1072.5" fill="#d9e7f7"/><path d="m10997 8245.6h-268.7v1130.3h268.7v-1130.3" fill="#deebfb"/><path d="m10578 8245.6h-268.7v1330.2h268.7v-1330.2" fill="#e7f0f9"/><path d="m10227 8245.6h-268.71v1072.5h268.71v-1072.5" fill="#d9e7f7"/><path d="m9920.8 8245.6h-268.72v1130.3h268.72v-1130.3" fill="#deebfb"/><path d="m15693 8245.6h-268.7v1228.9h268.7v-1228.9" fill="#cde0fb"/></g><g transform="scale(1.3791)"><path d="m16205 8715.3h-1143.9c-52.5 0-95.5 42.96-95.5 95.47v1104c0 52.51 43 95.43 95.5 95.43h1143.9c52.5 0 95.4-42.92 95.4-95.43v-1104c0-52.51-42.9-95.47-95.4-95.47" fill="#c0d8fb"/></g><g transform="scale(1.3742)"><path d="m16212 8802.6h-1048.5c-48.1 0-87.5 39.37-87.5 87.51v1011.9c0 48.12 39.4 87.51 87.5 87.51h1048.5c48.1 0 87.5-39.39 87.5-87.51v-1011.9c0-48.14-39.4-87.51-87.5-87.51" fill="#dfebfd"/></g><g transform="scale(1.325)"><path d="m16242 10238c0 15.9 12.8 28.8 28.7 28.8 16 0 28.8-12.9 28.8-28.8s-12.8-28.8-28.8-28.8c-15.9 0-28.7 12.9-28.7 28.8" fill="#b7d3f3"/></g><g transform="scale(1.3439)"><path d="m16243 10054c7.6 13.7 24.8 18.7 38.5 11.1 13.7-7.7 18.7-24.9 11-38.6-7.6-13.7-24.8-18.7-38.5-11-13.7 7.6-18.7 24.8-11 38.5" fill="#b7d3f3"/></g><g transform="scale(1.3593)"><path d="m16253 9785.7c13.1 8.4 30.4 4.65 38.8-8.37s4.6-30.38-8.4-38.78-30.4-4.65-38.7 8.37c-8.4 13.02-4.7 30.38 8.3 38.78" fill="#b7d3f3"/></g><g transform="scale(1.3657)"><path d="m16272 9502.3c15.5 0 28-12.5 28-27.92s-12.5-27.92-28-27.92c-15.4 0-27.9 12.5-27.9 27.92s12.5 27.92 27.9 27.92" fill="#b7d3f3"/></g><g transform="scale(1.3602)"><path d="m16289 9264.3c11-10.95 11-28.7 0-39.65-10.9-10.95-28.7-10.95-39.7 0-10.8 10.95-10.8 28.7 0 39.65 11 10.95 28.8 10.95 39.7 0" fill="#b7d3f3"/></g><g transform="scale(1.3455)"><path d="m16289 9187c11.1-11.07 11.1-29.01 0-40.08-11-11.07-29-11.07-40 0-11.1 11.07-11.1 29.01 0 40.08 11 11.06 29 11.06 40 0" fill="#b7d3f3"/></g><g transform="scale(1.325)"><path d="m16242 9235.9c0 15.9 12.8 28.78 28.7 28.78 16 0 28.8-12.88 28.8-28.78 0-15.89-12.8-28.77-28.8-28.77-15.9 0-28.7 12.88-28.7 28.77" fill="#b7d3f3"/></g><g transform="scale(1.3067)"><path d="m16292 10340c-7.8 14-25.5 19.1-39.6 11.3s-19.2-25.6-11.4-39.7c7.9-14.1 25.6-19.2 39.7-11.3 14.1 7.8 19.2 25.6 11.3 39.7" fill="#b7d3f3"/></g><g transform="scale(1.2913)"><path d="m16282 10301c-13.7 8.9-31.9 4.9-40.8-8.8-8.8-13.7-4.8-32 8.9-40.8s31.9-4.9 40.8 8.8c8.8 13.7 4.8 32-8.9 40.8" fill="#b7d3f3"/></g><g transform="scale(1.2842)"><path d="m16270 10106c-16.4 0-29.7-13.3-29.7-29.7s13.3-29.7 29.7-29.7 29.7 13.3 29.7 29.7-13.3 29.7-29.7 29.7" fill="#b7d3f3"/></g><g transform="scale(1.2902)"><path d="m16247 9767.2c-11.6-11.54-11.6-30.26 0-41.8 11.5-11.54 30.3-11.54 41.8 0s11.5 30.26 0 41.8-30.3 11.54-41.8 0" fill="#b7d3f3"/></g><g transform="scale(1.3049)"><path d="m16247 9473.2c-11.4-11.41-11.4-29.91 0-41.32 11.4-11.42 29.9-11.42 41.3 0 11.4 11.41 11.4 29.91 0 41.32s-29.9 11.41-41.3 0" fill="#b7d3f3"/></g><g transform="scale(1.3267)"><path d="m16242 9753c0 15.88 12.9 28.74 28.8 28.74 15.8 0 28.7-12.86 28.7-28.74 0-15.87-12.9-28.74-28.7-28.74-15.9 0-28.8 12.87-28.8 28.74" fill="#b7d3f3"/></g><g transform="scale(1.3247)"><path d="m16300 9767.9h-7.9v359.62h7.9v-359.62" fill="#b7d3f3"/></g><g transform="scale(1.3402)"><path d="m16112 9646.5-14.4 18.34 188.5 147.92 14.3-18.33-188.4-147.93" fill="#b7d3f3"/></g><g transform="scale(1.6634)"><path d="m14663 2140s1048.6 997.42 1342.8 765.55c294.3-231.88-1342.8-765.55-1342.8-765.55" fill="#cde0fb"/></g><g transform="scale(1.7819)"><path d="m13617 1818.6s1821.3 815.36 2252.3 384.25c430.9-431.11-499.8-377.91-844.5-329.7s-1407.8-54.55-1407.8-54.55" fill="#cde0fb"/></g><g transform="scale(1.5373)"><path d="m15695 2339.4s9.9 53.15 23.4 130.95c26.5 151.76 66.6 397.26 73.6 525.15 10.6 193.46 166.2 330.85 337 133.88 170.8-196.91-368.4-736.9-368.4-736.9l-65.6-53.08" fill="#cde0fb"/></g><g transform="scale(1.5513)"><path d="m16147 5980c-153.1 400.58-835.1 201.84-835.1 201.84s-399.3-768.27-534.8-799.28 213.1 723.53 213.1 723.53c-268.6-1.09-913.5-395.41-913.5-395.41s127.6-836.54-11.4-833.19c-139 3.29-75.2 746.42-75.2 746.42-249.6-103.14-459.6-427.65-459.6-427.65-251-519.31 428.8-814.81 428.8-814.81s38-290.86-108.4-643.6c0 0-34.5-65.88-65.3-175.08l70.2 7.09c3.8 19.4 8.3 38.23 13.6 56.41l0.1 0.32 0.2 0.77c3.7 11.35 9.1 27.46 15.8 47.12v0.13c17.2 44.16 28.6 76.65 35.5 99.92l0.1 0.19c50.9 138.28 126.2 319.22 184.3 361.45 0 0-8.9 10.12-18.3 30.68 5.8-9.8 11.9-19.98 18.3-30.68 146-245.29 751-227.69 1078.6-125.32 327.7 102.37 172.3 182.04-23.3 317.1-195.6 134.98-569 56.59-686.6 105.39s39.4 125.32 264.2 130.6c224.8 5.36 358.8-206.47 722.6-204.47s570 707.48 570 707.48c-241-102.3-700.9-9.99-726.8 74.07-25.8 84.06 635.7 142.08 736.1 178.17 100.4 36.1 259.8 260.18 106.8 660.81" fill="#dfebfd"/></g><path d="m7997.5 3789.3c-488.69 597.6 432.07 1484.9 432.07 1484.9s1557.2-64 1727 119.9c169.7 184-1320.7 314.7-1320.7 314.7 242.02 418.5 1435.1 1072.9 1435.1 1072.9s1192.3-948 1311.5-727.9-1098.5 785.5-1098.5 785.5c384.5 297.5 1079.2 335.1 1079.2 335.1 1035.8-72.8 888.9-1399 888.9-1399s420.2-319.6 1102.3-406.6c0 0 133.7-5.2 331.7-54.8l-73.8-103.3c-33.7 11.4-67.1 21.2-100.2 29.3l-0.6 0.1-1.4 0.3c-21.1 4.4-51 10.5-87.8 17.6h-0.3c-84.3 12.6-145.2 24-187.7 34l-0.4 0.1c-261.5 44.1-611.5 88.6-729.4 35.7 0 0-7.9 22.9-31.6 55.9 10.1-17.8 20.6-36.4 31.6-55.9 252.3-447.7-316.6-1376.7-769.7-1796.9-453.2-420.2-438.6-106.2-474.4 320.2-35.8 426.3 420.9 939.4 449.9 1166.7 29 227.4-230.9 50.7-440.4-295.7-209.5-346.3 1.4-745.2-327.4-1311.6-328.7-566.5-1615.1-257.2-1615.1-257.2 375.49 284.9 643 1085.9 534.8 1201.5-108.22 115.5-790.85-865.7-937.08-990.1-146.23-124.5-638.87-172.9-1127.6 424.6" fill="#cde0fb"/><g transform="scale(1.0964)"><path d="m15524 3639h-4511.9v2207.8h4529.1c419.2 0 759-339.84 759-759.03v-672.57c0-428.67-347.5-776.18-776.2-776.18" fill="#fcecdb"/></g><g transform="scale(1.3617)"><path d="m16300 3976.3v-267.46c0-142.92-28.3-276.72-78.1-391.73-99.7-231.47-285.3-387.09-497.7-387.09h-6971.8c-46.12 0-83.5 50.6-83.5 112.88v40.02c0 62.35 37.38 112.95 83.5 112.95h4130.6c78.3 0 149.8 47 178.4 119.92l0.5 1.32c39.8 101.42 62.4 217.09 62.4 339.81v340.01c0 62.5-6 123.16-17.3 180.88-0.1 0.96-0.3 1.99-0.6 2.94-30.1 152.24-165.2 261-320.4 261h-4033.6c-46.12 0-83.5 50.6-83.5 113.02v39.95c0 62.43 37.38 112.95 83.5 112.95h7006.8c246.9 0 455.2-223.91 519.8-529.86 13.6-64.04 20.9-131.67 20.9-201.51" fill="#b5453c"/></g><path d="m12073 5200.1 702.9-40.7-702.9-24.5z" fill="#f4d2b8"/><path d="m12073 4820.3 1672.3-40.7-1672.3-24.5z" fill="#f4d2b8"/><g transform="scale(1.0741)"><path d="m15638 7780.5h-3806.7v1899.3h3821.3c357.5 0 647.2-289.73 647.2-647.15v-590.37c0-365.53-296.3-661.79-661.8-661.79" fill="#fcecdb"/></g><g transform="scale(1.2937)"><path d="m16300 7387.9v-237.23c0-126.77-24.7-245.5-68-347.54-87-205.31-248.6-343.37-433.7-343.37h-6074.6c-40.2 0-72.74 44.91-72.74 100.18v35.48c0 55.27 32.54 100.18 72.74 100.18h3703.1c19.8 33.24 37.2 69.19 51.9 107.53 34.7 89.98 54.3 192.55 54.3 301.47v301.54c0 55.51-5.2 109.31-15 160.48-16.6 86.81-46.2 166.31-85.8 234.18h-3708.5c-40.2 0-72.74 44.86-72.74 100.23v35.42c0 55.37 32.54 100.22 72.74 100.22h6105.2c215.2 0 396.6-198.62 452.9-470.05 11.9-56.82 18.2-116.8 18.2-178.72" fill="#afcdfb"/></g><path d="m12708 9376.7 581.8-34.3-581.8-20.7z" fill="#f4d2b8"/><path d="m12708 9056.6 1384.3-34.3-1384.3-20.6z" fill="#f4d2b8"/><g transform="scale(1.1566)"><path d="m11422 2081.4h4877.9v1372h-4919.3c-352.5 0-638.2-285.75-638.2-638.17v-54.21c0-375.33 304.3-679.59 679.6-679.59" fill="#2b478b"/></g><g transform="scale(1.5327)"><path d="m12108 1570.6h4192.5v1035.3h-4203.7c-270.3 0-489.6-219.23-489.6-489.67v-44.88c0-276.58 224.2-500.76 500.8-500.76" fill="#fcecdb"/></g><g transform="scale(1.5532)"><path d="m11179 1549.9h5047.5c40.5 0 73.4 32.83 73.4 73.4v6.05c0 40.5-32.9 73.33-73.4 73.33h-5047.5c-40.5 0-73.4-32.83-73.4-73.33v-6.05c0-40.57 32.9-73.4 73.4-73.4" fill="#2b478b"/></g><g transform="scale(1.5532)"><path d="m11179 2418.8h5047.5c40.5 0 73.4 32.9 73.4 73.4v6.05c0 40.5-32.9 73.4-73.4 73.4h-5047.5c-40.5 0-73.4-32.9-73.4-73.4v-6.05c0-40.5 32.9-73.4 73.4-73.4" fill="#2b478b"/></g><g transform="scale(1.5327)"><path d="m16300 2088.3-569-17.42 569-10.5v27.92" fill="#f4d2b8"/></g><g transform="scale(1.5327)"><path d="m16300 2326.5-1353.7-17.35 1353.7-10.51v27.86" fill="#f4d2b8"/></g><g transform="scale(1.4467)"><path d="m15849 2450s61.4-47.14 81.8-124.63c3.6-13.55 5.8-27.99 6.3-43.27 3.4-102.92 0-335.87 0-335.87l181.5 116.48 181-116.48v315.69c0 59.72-15.6 117.78-44.4 155.8-13.9 18.38-30.9 32.28-50.1 32.28h-356.1" fill="#699dee"/></g><g transform="scale(1.4462)"><path d="m15854 2450.8s61.5-47.16 81.8-124.67l363.8-4.56s-14.3 110.91-89.3 129.23h-356.3" fill="#568cdb"/></g><g transform="scale(1.4257)"><path d="m11837 4496.3h4462.7v1365.1h-4475.9c-322.4 0-583.8-261.34-583.8-583.78v-184.32c0-329.73 267.3-597.04 597-597.04" fill="#fcecdb"/></g><g transform="scale(1.4462)"><path d="m11078 5256.1v-289.71c0.4-44.46 11.2-86.71 30.6-125.43 34.4-68.94 95.8-126.19 173-162.97 59.3-28.15 127.9-44.19 200.8-44.19h4717.2c55.3 0 100.1-37.41 100.1-83.59v-34.16c0-46.12-44.8-83.6-100.1-83.6h-8149c-233.92 0-440.45 97.01-565.33 245.54-78.68 93.55-124.87 207.57-124.87 330.71v228.46c0 84.35 23.09 164.15 64.37 235.3 104.75 180.95 326.78 305.75 583.65 305.75h8191.2c55.3 0 100.1-37.34 100.1-83.52v-34.16c0-46.12-44.8-83.6-100.1-83.6h-4731.7c-113 0-215.3-40.17-286.8-104.47-30.9-27.87-56.1-60.23-73.9-95.77-18.4-37.2-28.8-77.86-29.2-120.59" fill="#7eb2fc"/></g><g transform="scale(1.4257)"><path d="m16300 5178.9-613.4-22.94 613.4-13.82v36.76" fill="#f4d2b8"/></g><g transform="scale(1.4257)"><path d="m16300 5493-1459.4-22.93 1459.4-13.82v36.75" fill="#f4d2b8"/></g><g transform="scale(1.3612)"><path d="m15560 5734.3s100.9-45.33 134.3-119.9c5.9-13.01 9.7-26.96 10.5-41.65 5.5-99.04 0-323.19 0-323.19l297.8 112.11 297.1-112.11v303.79c0 57.45-25.5 113.28-72.8 149.87-23 17.71-50.8 31.08-82.3 31.08h-584.6" fill="#f99746"/></g><g transform="scale(1.3604)"><path d="m15568 5737.3s100.9-45.35 134.3-119.96l597.2-4.41s-23.4 106.73-146.6 124.37h-584.9" fill="#ed7d2b"/></g><g transform="scale(1.8918)"><path d="m16300 1254.1v-6.35c0-10.15-7.8-18.5-17.3-18.5h-15251c-9.5 0-17.32 8.35-17.32 18.5v6.35c0 10.09 7.82 18.44 17.32 18.44h15251c9.5 0 17.3-8.35 17.3-18.44" fill="#2e3552"/></g><g transform="scale(1.0117)"><path d="m15137 13030s145.9-216 229.2-669.9c72.8-397.6 136.8-544.3 242-625.9 105.3-81.5 691.8-322.2 691.8-322.2l-43.9-102.8s-859.6 117.1-956.2 260.8c-96.5 143.7-464.6 992.5-436 1188 28.5 195.5 273.1 272 273.1 272" fill="#f4a269"/></g><g transform="scale(1.1204)"><path d="m15570 7483.8c-7-75.68 98.4-94.16 220.5-100.23s85.1-31.06 252.5-61.41c167.2-30.25 234.3 15.53 246.4 38.12 10.8 20.08-67 51.41-149.9 86.84-10.4 4.46-20.8 9.02-31.3 13.57-93.3 41.05-145.6 124.68-218.4 202.24-68.9 73.46-134.3 308.73-134.3 308.73l-227.3 48.55s63.8-211.7 86-302.12c13-53.1-6.3-112.55-23.3-157.8-9.2-24.63-18.5-49.8-20.9-76.49" fill="#ffb27d"/></g><g transform="scale(1.1204)"><path d="m15790 7383.6c122.1-6.07 85.1-31.06 252.5-61.41 167.2-30.25 234.3 15.53 246.4 38.12 10.8 20.08-67 51.41-149.9 86.84l-1.3-1.34s-117.6-39.99-253.4-3.03c-110.7 29.98-217.7 96.12-293.9 117.54-9.2-24.63-18.5-49.8-20.9-76.49-7-75.68 98.4-94.16 220.5-100.23" fill="#c65447"/></g><g transform="scale(1.0889)"><path d="m13691 10474s1554.3 117 1847-67.7c292.6-184.7 761.9-2335.8 761.9-2335.8s-28.9-23.24-93.7-30.22c-60.1-6.52-192.6 28.84-192.6 28.84s-674.5 962.45-722 1205c-47.5 242.48-35.9 458.84-144.1 464.64s-1456.7-163.95-1660.7 195.41c-203.9 359.37-35.3 715.07-35.3 715.07l239.5-175.2" fill="#ed7d2b"/></g><g transform="scale(1.0807)"><path d="m15543 7507.4c-7.3-78.47 102-97.53 228.6-103.83 126.5-6.29 88.3-32.29 261.7-63.66 173.5-31.37 243 16.01 255.5 39.51 11.2 20.73-69.4 53.3-155.4 90.04-10.8 4.63-21.6 9.35-32.4 14.06-96.7 42.48-151 129.27-226.4 209.69-71.4 76.16-139.3 320.08-139.3 320.08l-235.6 50.34s66.1-219.59 89.1-313.23c13.5-55.16-6.4-116.79-24.1-163.7-9.5-25.54-19.1-51.63-21.7-79.3" fill="#ffb27d"/></g><g transform="scale(1.0807)"><path d="m15772 7403.6c126.5-6.29 88.3-32.29 261.7-63.66 173.5-31.37 243 16.01 255.5 39.51 11.2 20.73-69.4 53.3-155.4 90.04l-1.3-1.48s-121.9-41.37-262.7-3.15c-114.7 31.19-225.7 99.76-304.7 121.87-9.5-25.54-19.1-51.63-21.7-79.3-7.3-78.47 102-97.53 228.6-103.83" fill="#c65447"/></g><g transform="scale(1.0504)"><path d="m13878 10759s1431.4-67.8 1727.1-270.9 695-2450.5 695-2450.5-30.9-22.85-98.2-27.51c-62.6-4.28-198.5 37.7-198.5 37.7s-659.7 1024.2-699.2 1277.4c-39.5 253.06-18.7 476.72-130.5 487.1-111.9 10.37-1515.7-111.06-1712.5 269.4-196.8 380.5 416.8 677.3 416.8 677.3" fill="#f99746"/></g><g><path d="m15250 14529c-57.5 55.5-137.1 80.4-194.4 91.5 18.4 11.3 48.4 9.4 48.4 9.4-33.7 14.2-120.7-0.5-120.7-0.5-438.7 312.4-699-384.7-731.5-553.8s-92-411-298.7-620.7c-530.1-537.8 227.2-1160.1 227.2-1160.1 3.2-3.2 380.1 803.4 758.5 933 108.7 95.9 189.3 293.8 195.5 309.4-55.3-159.1-106.5-243.2-144.5-288.2 339 182.1 412.6 1132.8 260.2 1280" fill="#163560"/><path d="m14513 13434s140.1 13.3 280 0c95.2-9 189.4-38.5 243.1-61 132.5-55.4 118.6-289.9-159.5-246.5-278 43.4-383.1 238-363.6 307.5" fill="#ffb27d"/><path d="m15025 13263c1.6-0.8 39.7-201.8-142.4-193.8-119.5 5.3-377.3 149.9-354.5 252.3 10.8 48.6 101.1 174.8 119.3 462.9l21.8-5.8 365.8-98.1s-16.2-116.2-23.8-226c-6.4-92.3-6.7-180.2 13.8-191.5" fill="#ffb27d"/><path d="m15035 13681s-16.2-116.2-23.8-226c-207.1 19.6-304.1 216.2-342 324.1l365.8-98.1" fill="#f4a269"/><path d="m14634 13843s-62.8 193.9-51.5 343c8 106.4 156.6 470.4 521.9 318.8 0 0 107.3-39.1 192.9-135.5 68.1-76.7 156.1-227.3-61.2-522.5l-63-102.4-539.1 98.6" fill="#163560"/><path d="m15044 13512s-478.5 114.3-402.7 411.2 65 511.6 373.8 451.2c308.7-60.5 338.9-188.9 337.7-294.1-1.2-105.3-182.4-590.4-308.8-568.3" fill="#ffb27d"/><path d="m15234 14326s-219.7-314.8-433.1-314.9c-213.5-0.1-286.6 75.8-286.6 75.8s184.9 82.6 271.4 287.4c0 0 392.4 142.6 448.3-48.3" fill="#163560"/><path d="m15195 14306s77.4-102.7 81.8-184.4-24.8-240 21.9-246.4c0 0 159 211.5 82.8 373.7-80.7 172-186.5 57.1-186.5 57.1" fill="#163560"/><path d="m15589 11380c-39.7-47.6-163.9-62.2-296.6-84-104.4-17.2-214.1-38.8-292.1-84.7-177.1-103.9-755.8-455.4-925.4-439.4-65.8 6.2-53.5 131.7-13.6 298.3 62.7 263 193.9 628.3 193.9 787.1 0 86.7 28.9 291.9 67.4 526.4 3.1 18.9 6.3 37.9 9.5 57.2 76.2 456 181.7 993.7 181.7 993.7s117.7-256.8 347-256.8 176 195.8 176 195.8 209.3-24.6 258.7-77.8c49.5-53.3 174.8-283.4 199.7-346.2 0 0 5.1-79.9-192.7-117.9 0 0 48.2-216.8 53.9-361.3 4.2-106.8-72.9-440.9-95-648.8-7.9-73.6-8.9-131.4 3-157.6 15.3-33.6 64.8-67 121.1-99.8 111.8-65.1 250.7-127.7 203.5-184.2" fill="#1c468a"/><path d="m15385 11564c126.9-216.4-344.2-281.5-422.2-327.3-177.1-104-718.8-481-888.4-465-65.8 6.2-53.5 131.7-13.6 298.3 62.7 263 193.9 628.3 193.9 787.1 0 86.7 28.9 291.9 67.4 526.4l204.1 196s218.8-565.4 427.3-658.1c109.3-48.5 223.5-80.5 307.4-100-7.9-73.6-8.9-131.4 3-157.6 15.3-33.6 64.8-67 121.1-99.8" fill="#2c3a64"/><path d="m14451 13265s-174.6 106-343.4-95.1c-168.7-201.1 120-1638.6 370.1-1712.5 277.8-82 1111.2-77.8 1111.2-77.8l-34.8 101.1s-865.9 279-901.4 324.7c-35.5 45.6-113 1436.4-201.7 1459.6" fill="#ffb27d"/><path d="m14513 13434s-358.5-32.3-462.6-150.2-134.5-437.4-134.5-437.4 315.7-254.9 696-156l-98.9 743.6" fill="#1c468a"/></g><g transform="scale(1.029)"><path d="m16267 11562 33.2 305.6-432.2-569.4s181-90.1 191.6-72.9 207.4 336.7 207.4 336.7" fill="#163560"/></g><g transform="scale(1.0269)"><path d="m15652 11585-399.9-610.8h671.8l376.2 610.8h-648.1" fill="#1c468a"/></g><g transform="scale(1.0289)"><path d="m16269 11563 31.4 302.7-226-282.6 194.6-20.1" fill="#efdece"/></g><path d="m15683 11302-31.5 22.5 408.2 606.6 12.9-34.1-389.6-595" fill="#efdece"/><g transform="scale(1.0269)"><path d="m15639 11618 632.8-17.7 27.8-15.5h-648.1l-12.5 33.2" fill="#fcecdb"/></g><path d="m15924 11394c-12.7 1.7-29 1.4-44.3 0.3 49.6 23.1 99.6 48.2 99.6 48.2s-22.2 22.8-107.6-7.5c-9.6-3.4-19.2-4.2-28.7-3.2l119.6 53.8c-21.3 19.2-78.6 3.9-123.2-12.5-31.8-11.6-67.4-6.4-94.2 14.4l-1.3 1c2 0.2 3.8 0.4 5.9 0.7 69.7 10.2 87.5 50.1 68.2 45.6-19.4-4.6-136.4-13.1-136.4-13.1-52.9 3-157.7-37.4-157.7-37.4l58.6-108.1s168.5-31.4 212.3-17.8c3.6 1.1 7.8 2.6 12.5 4.4l153.2 10.1s-2.8 16.5-36.5 21.1" fill="#ffb27d"/><g transform="scale(1.4751)"><path d="m14812 4861.1s599.4-261.15 708.2-256.4 779.3 204.19 779.3 204.19l-17.1-115.31s-517.4-297.62-698.3-314.5c-178-16.6-787 159.86-845.7 197.08-58.9 37.29-97.2 247.17 73.6 284.94" fill="#ed985f"/></g><g transform="scale(1.3636)"><path d="m15926 6297.4s-239.2 45.46-358.3-41.58c-215.8-157.59-227.4-700.84-308.3-781.8-80.9-80.89-275.8-46.35-293.2-465.15-17.3-418.73 77.7-453.79-35.5-640.71-113.1-186.93 47.9-374 47.9-374s-65.9 103.18-37.7 177.69c0 0 27.4-164.42 131.9-202.92 104.4-38.57 119.9-66.8 136.5-123.27 0 0 890.9 456.5 891.9 780.26 1 323.84 175.3 644.6 89.7 784.88 0 0 38.2-60.05 42.8-126.79 0 0 51.4 98.41-37.6 190.01-89.1 91.67 104.4 281.3 75.7 500.93-19.6 150.7-125.4 315.92-345.8 322.45" fill="#233862"/></g><g transform="scale(1.3471)"><path d="m16300 5010.7c-57.7-40.01-130-72.97-220.7-93.91-340.1-78.62-470.4 208.9-519.4 406.22 46.4 26.5 90 32.37 115.3 35.41 24.5 2.89 50.4 4.83 71.7 5.86 38.3 29.25 95.2 149 107.8 334.88l16-4.3 268-73.35s-12.3-85.22-18.3-165.77c-4.7-63.02-5.4-123.23 6.6-138 20.9-4.53 33.4-7.5 33.4-7.5l0.2-0.22c3.5-5.94 81.3-133.85 139.4-299.32" fill="#ffb27d"/></g><g transform="scale(1.3337)"><path d="m16300 5677.6s-12.4-86-18.5-167.42c-153.3 15.37-224.6 161.42-252.3 241.5l270.8-74.08" fill="#ed985f"/></g><g transform="scale(1.3508)"><path d="m16139 5526s-359.4 19.84-343.7 243.56c15.9 223.64-19.9 376.81 210.3 373.63 230.1-3.19 268.6-91.73 281.5-167.61 12.9-75.95-54.2-448.91-148.1-449.58" fill="#ffb27d"/></g><g transform="scale(1.3559)"><path d="m16224 6077.8c-50.5 70.95-93.3 59.22-118.2 40.78-187.8 121.55-325.2-28.39-325.2-28.39-35.4-158.12-157.2-241.46-157.2-241.46s62.3-44.92 215.4-17.04c46.7 8.48 90.1 38.2 127.8 75.23-68.2-97.58-156.2-165.06-156.2-165.06 185.4 70.07 275.4 314.62 284.5 340.51 20.4-21.17 60.4-66.89 70.6-109.59 13.7-57.97 73.1-148.69 107.4-147.14 0 0 26.8 145.66-48.9 252.16" fill="#233862"/></g><g transform="scale(1.3652)"><path d="m15251 4220.8c-32.1 164.22-136.8 820.22-32.1 1031.3 37.6 75.82 185.2 82.7 347.1 76.03 50.4-32.52 242.4-155.5 321.2-140.12 0.9 0.15 2.4 0.52 4.5 1.03 37.1 9.3 51.1 35.38 20.1 57.86 0 0.07 80.2 7.77 179.8-10.98 56.3-10.62 208-89.15 208-89.15s-76.4-138-189.1-185.68c19.2-171.33-9.3-246.99-187.1-642.82-150.2-334.6 20.3-635.79 20.3-635.79s-884.4-711.09-889.3-349.02c-3.7 272.55 237.7 677.46 196.6 887.32" fill="#fff"/></g><g transform="scale(1.4177)"><path d="m15396 2801.7c46.3 5.22 88 30.61 113.9 69.34 4.2 6.14 8.5 12.77 13.2 19.82 96.9 146.79 134.6 596.19 352.7 1075 53.2 116.6 243.8 137.55 295.7 269.32 0 0 128 427.1-244.9 439.73-372.8 12.55-998.5-1188.4-1008.4-1314.3-9.6-122.03-246.5-640.62 477.8-558.87" fill="#dd6d22"/></g><g transform="scale(1.468)"><path d="m16300 2715.2h-512.5s-19.2 81.74 14.5 137.39c29.8 49.19 18.4 77.25-3.7 117.99 23.2-9.54 53.3-18.19 86.3-16.28 25.5 1.5 52.6 13.08 76.2 26.84 22.1-25.21 116.6-132.22 146.1-153.41 33.4-24.11 182.8-15.53 193.1-112.53" fill="#233862"/></g><g transform="scale(1.3652)"><path d="m15309 5080.1s-71.7-652.55 393.5-789.31c465.1-136.67 597.2 600.48 221.7 653.44-375.6 53.03-615.2 135.87-615.2 135.87" fill="#ebeef2"/></g><g transform="scale(1.4466)"><path d="m15861 4460.5c31.4-234.76 153.7-975.83 369.4-1337.4 69.6-116.56-175.3-181.95-176.6-181.61-32.8 8.65-87.5 60.98-112.7 83.72-175.1 157.82-530.7 604.82-530.7 963.11 0 174.76-3.1 508.45 124 593.27 78.2 52.27 314.3-27.85 326.6-121.11" fill="#ed7d2b"/></g><g transform="scale(1.3937)"><path d="m15340 2859.9s20.1 27.84 54.9 80.72c41.6 62.86 87.5 186.63 143.2 345.28 58.6 166.54 128.1 371.39 214.9 584.57 26.7 65.79 55.2 132.38 85.4 198.9 54.1 118.53 202.7 102.17 255.6 236.21 0 0 206.3 464.67-173 477.51-379.3 12.77-1100-1243-1141.4-1364.7-45.3-133.17-266.5-686.1 560.4-558.52" fill="#f99746"/></g><g transform="scale(1.4341)"><path d="m16300 2779.3h-524.6s-19.6 83.67 14.8 140.64c30.5 50.35 18.8 79.07-3.8 120.77 23.8-9.76 54.6-18.61 88.4-16.66 26.1 1.53 53.8 13.39 78 27.47 22.6-25.8 119.3-135.34 149.5-157.03 34.3-24.68 187.2-15.9 197.7-115.19" fill="#2b478b"/></g><g transform="scale(1.3469)"><path d="m16078 3400.1c60.6 172.32 132.5 384.29 222.3 604.88-23.5 167.13-74.1 313.31-159.2 372.19 0 0-206.4-639.48-63.1-977.07" fill="#ed7d2b"/></g><g transform="scale(1.4127)"><path d="m15931 4584.6c32.1-240.4 77.3-1016.3 298.2-1386.5 71.2-119.35-179.5-186.32-180.9-185.96-33.5 8.85-89.6 62.43-115.4 85.72-179.3 161.61-543.4 619.32-543.4 986.21 0 178.96 210 506.28 340.1 593.14 80.1 53.51 188.7 2.9 201.4-92.59" fill="#f99746"/></g><g transform="scale(1.3431)"><path d="m16300 5687.3s-34.3 13.55-130.4 5.74c0 0 5.1-37.53 76-41.26 40.3-2.08 54.4 35.52 54.4 35.52" fill="#fff"/></g><g transform="scale(1.4808)"><path d="m16300 5030.4-105.3 190.03-227.9-635.85 134.5-144.31 198.7 590.13" fill="#163560"/></g><g transform="scale(1.4808)"><path d="m15750 4919.1-211.8-605.06 563.1 126.28 198.7 590.13-550-111.35" fill="#1c468a"/></g><g transform="scale(1.4309)"><path d="m16092 4496.2-10.2 17.83 207.4 592.63 10.4-15.86-207.6-594.6" fill="#efdece"/></g><g transform="scale(1.4808)"><path d="m15740 4934.4 533.8 103.85 26.2-7.83-550-111.35-10 15.33" fill="#fcecdb"/></g><g transform="scale(1.4808)"><path d="m16300 5030.4-113.9 180.78-72.6-204.14 160.3 31.19 26.2-7.83" fill="#efdece"/></g><g transform="scale(1.4564)"><path d="m16180 4912.6c-18.6 3.57-58.6 18.6-99 29.73 12 9.4 25.5 20.94 29.2 32.75 7.2 22.8 12 30.07-12 22.86s-108.2-45.79-108.2-45.79l0.3-0.14c-47.9-13.94-91.9-81.5-91.9-81.5s-592-208.05-663.2-211.62c-110.1-5.56-843.3 264.49-843.3 264.49-173.1-38.25-134.2-250.83-74.7-288.59 59.6-37.7 587.2-229.61 899.8-233.25 158.4-1.85 734.5 368.44 734.5 368.44s67.3 30.77 120.3 21.15c52.8-9.61 175.5 0 202 43.33 26.4 43.26-62.6 72.09-93.8 78.14" fill="#ffb27d"/></g><g transform="scale(1.3196)"><path d="m16300 5286.6s-72.4-229.08-320.9-281.21c0 0-410.5 126.47-206.1 406.09 0 0 202.1 150.12 527-124.88" fill="#fff"/></g><g transform="scale(1.4815)"><path d="m16283 4813.9c0.1 5.6-0.4 11.21-2 16.54 0 0-52.1 82.55-69.2 85.92-52 10.27-52-58.24-41-102.46 7.7-30.78 27.2-60.34 43.1-76.27h-0.1l-2-64.53c87.9 48.26 71.2 140.8 71.2 140.8" fill="#ffb27d"/></g><g transform="scale(1.0613)"><path d="m16300 5316.6s-129.4-79.05-172.2-208.88c-7.6-22.71-12.5-47.11-13.5-72.65-7.1-172.61 0-563.15 0-563.15l-382 195.32-380.9-195.32v529.33c0 100.06 32.7 197.48 93.4 261.18 29.4 30.9 65.1 54.17 105.5 54.17h749.7" fill="#f99746"/></g><g transform="scale(1.0613)"><path d="m16300 5316.6s-129.4-79.05-172.2-208.88l-765.6-7.73s30.1 185.9 188.1 216.61h749.7" fill="#ed7d2b"/></g><path d="m9319.3 8324.3s86.13-373.7 337.13-373.7c215.15 0 510.28 486.4 510.28 486.4l-847.41-112.7" fill="#f99746"/><path d="m12187 2772.1-144-76.4s-778.8 825.8-966 1618.2c-33.4 141.5-46.9 281-32.6 413.4 0 0-11.4 35.9-31.2 99.4-0.8 2.7-1.7 5.6-2.6 8.4-8.7 27.9-19.1 60.6-30.6 97.7-37.6 119.7-89.3 283.6-148.1 470.2-135.6 429.3-445.6 1397.5-578.1 1800.2l952.2 344.5s108.1-246.6 263.5-916.9c24-87.5 48-184.3 70.3-289.7 25.4-119.4 49.1-249.9 68.9-391 33.4-238.9 55.7-507.7 57-802.6 0.6-119.9-2.4-244.3-9.5-372.6-5.2-94.1 8.8-219.5 35-362.2 120-652.1 495.8-1640.6 495.8-1640.6" fill="#2b478b"/><g fill="#233862"><path d="m12708 2407.3h-769.8s-28.7 122.8 21.8 206.3c44.7 74 27.6 116.1-5.5 177.2 34.8-14.2 79.9-27.2 129.6-24.4 38.4 2.2 78.9 19.6 114.5 40.3 33.1-37.8 175-198.6 219.3-230.4 50.3-36.2 274.6-23.3 290.1-169"/><path d="m11609 5950.1-598.1-1115c-8.7 27.9-19.1 60.6-30.6 97.7-37.6 119.7-89.3 283.6-148.1 470.2-135.6 429.3-445.6 1397.5-578.1 1800.2l952.2 344.5s108.1-246.6 263.5-916.9c24-87.5 48-184.3 70.3-289.7 25.4-119.4 49.1-249.9 68.9-391"/><path d="m10238 2648.3s-53.3-130.8-3.1-241h418.7s8.7 99.4-143.2 214.7c-115.1 87.3-272.4 26.3-272.4 26.3"/></g><g><path d="m10694 11160c0.2 20.8 11 245.6 352.4 265.5 0 0-167.5-24.1-194.8-98.6 0 0 112.2 94 206.1 66.9s152.6-189.1 154.4-242.8c1.9-53.6-45.7-228-104.5-244.1-22.3-6.2-48.1-5.3-71.6-1.9 16.3-24.1 32.4-50.9 47.8-80.8 143.1-276.6 19.7-602.5-96.5-575.1-74.5 17.6-119.8-111.5-119.8-111.5l-716.6 616.2s251.1 553.1 543.1 406.2" fill="#2c3a64"/><path d="m10244 9287.2c79.4-55.1 179-100.5 304.1-129.4 468.8-108.3 648.4 287.9 715.9 559.9-64 36.6-124.1 44.6-158.8 48.8-33.9 4-69.6 6.6-99.1 8.1-52.6 40.3-131 205.3-148.4 461.5l-22-5.9-369.5-101.1s16.9-117.5 25.2-228.5c6.4-86.8 7.4-169.8-9-190.2-28.8-6.2-46.1-10.3-46.1-10.3l-0.2-0.3c-5-8.2-112.2-184.4-192.1-412.6" fill="#ffb27d"/><path d="m10466 10129s17-117.3 25.2-228.4c209.3 20.9 306.4 220.2 344.3 329.5l-369.5-101.1" fill="#ed985f"/><path d="m10462 9952.8s481.9 123.8 400.2 422.7c-81.8 298.9-74.6 516.3-385.8 449.8-311.1-66.4-339.5-196.7-336.4-303.2 3-106.4 194.5-593.8 322-569.3" fill="#ffb27d"/><path d="m10108 10692c49.5 110.3 110.9 105.9 149.7 87.5 222.7 216.2 450.2 49.5 450.2 49.5 91-205.6 279.3-286 279.3-286s-72.6-78-288.4-81.6c-65.9-1-132.9 27.6-194.2 67.9 119.1-114.4 257.2-182.4 257.2-182.4-271.4 45.2-460 353.5-479.4 386.3-22.1-34.3-64.1-107.3-66.3-168.2-3-82.6 29.2-242.2-17.9-249.4 0 0-164.4 211.1-90.2 376.4" fill="#2c3a64"/><path d="m10323 9725s809.3 196.5 1161.3-93.8l-175.9-2452.8-1582.9 382.4s44.53 155.2 348.09 567.9c303.5 412.7 171.5 1018.1 249.4 1596.3" fill="#ffb27d"/><path d="m10795 7451.4s-0.9-8.3-2.6-24.1c-0.7-6.8-1.6-15.1-2.6-24.7-6.8-63.6-19.7-185.5-36.4-344.2-43.4-415.9-111.6-1084.1-158-1611.4-36.3-412.4-59.4-738.7-46.9-791.1 37.4-157.7 0-2042.7 0-2042.7-134.6-64.5-338.6 0-338.6 0s-358.32 1698.7-308.14 1934.8c50.17 236.1-33.55 437.6-33.55 437.6-278.23 1295.8-247.77 2013.9-192.51 2357.7 16.06 100 34.26 168.3 47.59 210 11.25 35.4 19.07 51.6 19.07 51.6 613.74 165.1 1052.6-153.5 1052.6-153.5" fill="#2b478b"/><path d="m11593 8931.6c-39.1-295.1-195.4-656.2-251.2-850.5 0 0 93.3-674.8 4.2-860.1-10.1-21.1-22.6-35.9-38-42.6-330-143.8-1615.4-4.1-1669.7 410.5-19.71 150.7 489.57 680.6 519.27 744.9 12.3 26.6 25.4 112.8-34.3 291.5-84.6-261-551.77-185.9-551.77-185.9 54.83 93.8 191.44 742.9 343.96 1035.9 114.71 220.2 420.91 252.1 420.91 252.1s127.4-202.1 435.6-173.4c308.2 28.6 364.5 217.3 364.5 217.3s273.4-36.4 357.6-104.3c14.6-11.8 150.1-348.8 98.9-735.4" fill="#f99746"/><path d="m11342 8081.1s93.3-674.8 4.2-860.1c-240.5 120.7-553.9 381.2-458.5 788.3 138.6 591.5 705.5 922.3 705.5 922.3-39.1-295.1-195.4-656.2-251.2-850.5" fill="#ed7d2b"/><path d="m10338 8879.1 551.1-884.2h-937.74l-525.1 865 911.74 19.2" fill="#1c468a"/><path d="m10861 8039.3 9.5 30.9-521.6 836.7-10.4-27.8 522.5-839.8" fill="#efdece"/><path d="m10349 8906.9-883.37-25.2-38.77-21.8 911.74 19.2 10.4 27.8" fill="#fcecdb"/><path d="m9426.6 8859.9-495.59 268.3 577.69-907.2 443-226.1-525.1 865" fill="#163560"/></g><g fill="#ffb27d"><path d="m12049 8240.3c-53-24.2-189.3-184.7-237.9-201-218.7-73.2-1149.3 121.5-1149.3 121.5l28.8 163s913.4-24.2 1013.8 2.6c18.9 5.1 117.6 159.5 155.6 181.7l189-267.8"/><path d="m10691 8323.9s-110.2 89.6-184.6 69.3-184-114.4-224.6-136.7c-40.7-22.3-151.2-102-95.2-150.2s230.3-6.8 299.4 30.2c69.1 36.9 176.1 24.3 176.1 24.3l28.9 163.1"/><path d="m10527 8396.2s-133.9 15.9-170.5 15.2c-36.5-0.8-26.6-8.8-6.4-37.1 20.2-28.4 89.9-39.3 93.1-49.2s83.8 71.1 83.8 71.1"/></g><path d="m11137 9771.3s397-47.1 506.3-217.3c138.2-215.3 464.4-1072.5 453.8-1288.5 0 0-238.4-405.9-1056.1-340.9 0 0-85.1 300.5 86.9 399.7 0 0 420 74.7 468.4 117.3l-140.4 583.1-318.9 746.6" fill="#f99746"/><path d="m9553.5 8536.7c-12.3 50-121.36 18.8-158.12-10-8.93-7-18.53-18.9-27.94-32.8-1.15 8.3-2.14 16.4-2.69 22.6-2.08 23.5-29.44 65.6-36.24 34.1-6.79-31.5-17.98-163.9-17.98-163.9-1.32-106.7 67.22-150.6 111.26-115.9 44.03 34.6 144.02 215.9 131.71 265.9" fill="#ffb27d"/></g></g></svg>
