<?xml version="1.0" encoding="UTF-8"?>
<svg width="666.67" height="666.67" version="1.1" viewBox="0 0 666.67 666.67" xml:space="preserve" xmlns="http://www.w3.org/2000/svg" xmlns:cc="http://creativecommons.org/ns#" xmlns:dc="http://purl.org/dc/elements/1.1/" xmlns:rdf="http://www.w3.org/1999/02/22-rdf-syntax-ns#"><metadata><rdf:RDF><cc:Work rdf:about=""><dc:format>image/svg+xml</dc:format><dc:type rdf:resource="http://purl.org/dc/dcmitype/StillImage"/><dc:title/></cc:Work></rdf:RDF></metadata><g transform="matrix(1.3333 0 0 -1.3333 0 666.67)"><g transform="scale(.1)"><path d="m0 0h5e3v5e3h-5e3z" fill="#f6f5f5"/><g fill="#bad3f0"><path d="m2679.5 924.31s-1860.6-41.508-1939.6 576.65c-92.406 723.39-11.453 491.9-242.59 1410.8-245.71 976.83 501.28 1315.6 1119.5 1158.7 565.71-143.56 606.73-854.53 1377.4-681.8 1141.9 255.94 1608.3-105.33 1657.7-560.33 53.16-489.17-260.55-625.33-309.23-1262.4-48.68-637.09-127.59-574.85-1663.2-641.6"/><path d="m419.99 2953.3c-4.574 0-8.699 3.16-9.746 7.81-97.746 434.83-2.191 703.61 95.188 852.52 105.96 162.05 233.55 219.77 238.93 222.15 5.043 2.26 10.95-0.04 13.184-5.1 2.238-5.04-0.043-10.95-5.086-13.19-1.273-0.56-128.32-58.27-230.98-215.86-94.859-145.62-187.77-408.88-91.722-836.13 1.211-5.39-2.176-10.74-7.567-11.95l-2.203-0.25"/><path d="m4729.2 2702.4-0.56 0.01c-5.51 0.31-9.73 5.02-9.43 10.54 16.96 309.37-118.8 493.41-235.68 593.32-127.09 108.63-260.15 144.43-261.48 144.79-5.33 1.4-8.53 6.86-7.13 12.2s6.88 8.54 12.2 7.14c5.59-1.46 138.2-37.04 268.76-148.38 120.61-102.86 260.73-292.22 243.29-610.17-0.28-5.33-4.7-9.45-9.97-9.45"/><path d="m4695.2 2505.4c-0.91 0-1.85 0.13-2.78 0.39-5.3 1.53-8.37 7.08-6.83 12.38 17.61 61.13 26.07 133.26 26.16 133.99 0.63 5.48 5.61 9.45 11.08 8.78 5.48-0.63 9.42-5.59 8.78-11.08-0.34-3.01-8.74-74.52-26.81-137.22-1.25-4.38-5.26-7.24-9.6-7.24"/><path d="m824.18 4054.5c-3.68 0-7.219 2.03-8.965 5.54-2.457 4.95-0.445 10.95 4.5 13.41 1.855 0.93 45.949 22.72 89.855 33.15 5.344 1.27 10.762-2.04 12.039-7.43 1.278-5.37-2.042-10.76-7.421-12.04-41.625-9.87-85.129-31.37-85.567-31.59-1.429-0.71-2.949-1.04-4.441-1.04"/><path d="m2404.3 3632.9s39.72 135.73 125.8 125.8c86.07-9.93 99.31-49.66 172.15-19.87 72.83 29.8 99.31 125.8 218.49 102.63s132.42-155.6 268.16-145.66c135.72 9.93 182.07 13.24 231.72-62.9h-1016.3"/><path d="m3315 3942.7s54.45 120.41 203.14 84.52c146.99-35.49 210.31 175.04 341.2 161.5s83.96-134.42 250.96-161.5c167.01-27.08 215.34 38.8 285.68-84.52h-1081"/></g><path d="m1196.3 3670.8c-2.52 0-5.02 1.09-6.75 3.19l-143.73 174.38-143.72-174.38c-3.078-3.73-8.593-4.26-12.316-1.19-3.734 3.07-4.262 8.59-1.191 12.32l150.48 182.57c1.66 2.02 4.14 3.19 6.75 3.19s5.09-1.17 6.75-3.19l150.48-182.57c3.07-3.73 2.54-9.25-1.19-12.32-1.62-1.34-3.6-2-5.56-2" fill="#fff"/><path d="m1356.9 2785.1h-622.2c-22.988 0-41.625 18.64-41.625 41.62v819.88c0 22.99 18.637 41.63 41.625 41.63h622.2c22.99 0 41.63-18.64 41.63-41.63v-819.88c0-22.98-18.64-41.62-41.63-41.62" fill="#fff"/><path d="m748.4 2863.4v746.4c0 12.72 10.309 23.03 23.024 23.03h548.73c12.71 0 23.02-10.31 23.02-23.03v-746.4c0-12.71-10.31-23.02-23.02-23.02h-548.73c-12.715 0-23.024 10.31-23.024 23.02" fill="#bad3f0"/><path d="m1794.9 3255.8c-1.95 0-3.92 0.66-5.55 2-3.73 3.08-4.27 8.59-1.19 12.32l150.48 182.58c1.66 2.02 4.14 3.18 6.75 3.18s5.09-1.16 6.75-3.18l150.48-182.58c3.08-3.73 2.54-9.24-1.18-12.32-3.73-3.07-9.25-2.54-12.32 1.19l-143.73 174.39-143.73-174.39c-1.73-2.1-4.23-3.19-6.76-3.19" fill="#fff"/><path d="m2294.4 2785.1h-697.97c-12.6 0-22.82 10.21-22.82 22.81v450.22c0 12.6 10.22 22.81 22.82 22.81h697.97c12.59 0 22.81-10.21 22.81-22.81v-450.22c0-12.6-10.22-22.81-22.81-22.81" fill="#fff"/><path d="m1616.8 2840.8v384.32c0 6.91 5.59 12.5 12.5 12.5h632.06c6.91 0 12.5-5.59 12.5-12.5v-384.32c0-6.9-5.59-12.5-12.5-12.5h-632.06c-6.91 0-12.5 5.6-12.5 12.5" fill="#bad3f0"/><path d="m4101.2 3105-36.46-54.6c-2.96-4.44-7.94-7.1-13.27-7.1h-1508.2c-5.33 0-10.31 2.66-13.27 7.1l-36.46 54.6c-7.09 10.61 0.51 24.83 13.27 24.83h1581.1c12.75 0 20.36-14.22 13.27-24.83" fill="#3a4459"/><path d="m2703.4 3043.2 45.39-106.81h68.94l-6.18 106.81h-108.15" fill="#252838"/><path d="m3891.3 3043.2-45.39-106.81h-68.95l6.18 106.81h108.16" fill="#252838"/><path d="m3870.5 3383.7c-2.77 0-5 2.24-5 5v326.85c0 2.77 2.23 5 5 5 2.76 0 5-2.23 5-5v-326.85c0-2.76-2.24-5-5-5" fill="#307b79"/><path d="m4010.1 3396-5.28-19.59-1.02-3.76-4.78-17.71-1.01-3.77-47.4-175.74-1.02-3.77-4.78-17.7-1.01-3.77-6.26-23.22c-45.39-5.62-89.81-6.27-133.97 0l-6.26 23.22-1.01 3.77-4.78 17.7-1.01 3.77-47.41 175.74-1.02 3.77-4.76 17.71-1.02 3.76-5.28 19.59h279.08" fill="#ef2a6e"/><g fill="#d21e50"><path d="m4004.8 3376.4-1.02-3.76h-266.48l-1.02 3.76h268.52"/><path d="m3999 3354.9-1.01-3.77h-254.91l-1.02 3.77h256.94"/><path d="m3950.6 3175.4-1.02-3.77h-158.07l-1.01 3.77h160.1"/><path d="m3944.8 3154-1.01-3.77h-146.49l-1.01 3.77h148.51"/></g><path d="m3888.4 3644.2c-6.03-1.47-11.9 1.05-15.16 5.63-1.12 1.57-1.97 3.36-2.38 5.34-0.24 0.99-0.33 2.02-0.33 3.1 0 3.38 1.18 6.64 3.33 9.23 19.12 23.15 115.92 135.12 161.3 88.28 54.83-56.55-93.85-98.72-146.76-111.58" fill="#3ebeac"/><path d="m3974 3709.4-100.77-59.63c-1.12 1.57-1.97 3.36-2.38 5.34l100.18 59.29c1.41 0.82 3.18 0.36 4-1.03 0.82-1.38 0.36-3.15-1.03-3.97" fill="#329c92"/><path d="m3870.5 3602.8c0-1.08-0.11-2.1-0.33-3.1-0.44-1.98-1.26-3.77-2.39-5.34-3.28-4.59-9.15-7.1-15.17-5.64-52.89 12.88-201.58 55.02-146.74 111.6 45.35 46.8 142.15-65.14 161.3-88.29 2.15-2.59 3.33-5.87 3.33-9.23" fill="#3ebeac"/><path d="m3870.2 3599.7c-0.44-1.98-1.26-3.77-2.39-5.34l-100.8 59.63c-1.36 0.8-1.81 2.59-0.99 3.98 0.79 1.38 2.58 1.84 3.97 1.02l100.21-59.29" fill="#329c92"/><path d="m3881.6 3716.4c-0.41-3.36-1.95-6.46-4.38-8.79l-2.46-1.9c-1.72-1.05-3.62-1.69-5.54-1.95-5.59-0.77-11.44 1.74-14.53 7.11-27.18 47.13-99.19 183.87-20.41 183.21 65.19-0.57 50.89-147.87 47.32-177.68" fill="#3ebeac"/><path d="m3874.7 3705.7c-1.72-1.05-3.62-1.69-5.54-1.95l-26.33 114.1c-0.36 1.54 0.62 3.1 2.18 3.49 1.56 0.33 3.12-0.62 3.49-2.2l26.2-113.44" fill="#329c92"/><path d="m3888.4 3525.3c-6.03-1.47-11.9 1.05-15.16 5.64-1.12 1.56-1.97 3.35-2.38 5.33-0.24 1-0.33 2.02-0.33 3.1 0 3.36 1.18 6.64 3.33 9.23 19.12 23.15 115.92 135.1 161.3 88.29 54.83-56.58-93.85-98.73-146.76-111.59" fill="#3ebeac"/><path d="m3974 3590.5-100.77-59.6c-1.12 1.56-1.97 3.35-2.38 5.33l100.18 59.29c1.41 0.82 3.18 0.36 4-1.02s0.36-3.18-1.03-4" fill="#329c92"/><path d="m3870.5 3483.9c0-1.08-0.11-2.11-0.33-3.11-0.44-1.97-1.26-3.79-2.39-5.36-3.31-4.59-9.15-7.07-15.17-5.61-52.89 12.85-201.58 55.01-146.74 111.59 45.35 46.81 142.15-65.14 161.3-88.29 2.15-2.61 3.33-5.87 3.33-9.22" fill="#3ebeac"/><path d="m3870.2 3480.8c-0.44-1.97-1.26-3.79-2.39-5.36l-100.8 59.63c-1.36 0.82-1.81 2.59-0.99 4 0.79 1.36 2.58 1.82 3.97 1.03l100.21-59.3" fill="#329c92"/><path d="m3888.4 3413.3c-6.03-1.46-11.9 1.05-15.16 5.64-1.12 1.56-1.97 3.36-2.38 5.33-0.24 1-0.33 2.02-0.33 3.1 0 3.38 1.18 6.64 3.33 9.23 19.12 23.15 115.92 135.12 161.3 88.29 54.83-56.55-93.85-98.72-146.76-111.59" fill="#3ebeac"/><path d="m3974 3478.5-100.77-59.63c-1.12 1.56-1.97 3.36-2.38 5.33l100.18 59.3c1.41 0.82 3.18 0.35 4-1.03 0.82-1.39 0.36-3.15-1.03-3.97" fill="#329c92"/><path d="m2910.3 3195.5h8.65v12.92h-327.31c-10.84 0-20.68-4.38-27.79-11.51-7.1-7.1-11.51-16.92-11.51-27.79 0-21.71 17.59-39.29 39.3-39.29h327.31v11.18h-8.65v54.49" fill="#ef2a6e"/><path d="m2912.5 3195.5v-54.47h-300.34c-14.66 0-26.53 12.2-26.53 27.22 0 7.54 2.97 14.33 7.77 19.28 4.81 4.92 11.42 7.97 18.76 7.97h300.34" fill="#fff"/><path d="m2912.5 3181.7v-8.33h-292.57c-2.28 0-4.16 1.87-4.16 4.15v0.02c0 2.29 1.88 4.16 4.16 4.16h292.57" fill="#bad3f0"/><path d="m2912.5 3161.2v-8.33h-292.57c-2.28 0-4.16 1.87-4.16 4.15v0.03c0 2.28 1.88 4.15 4.16 4.15h292.57" fill="#bad3f0"/><path d="m2910.3 3270.4h8.65v12.91h-327.31c-10.84 0-20.68-4.38-27.79-11.51-7.1-7.1-11.51-16.92-11.51-27.79 0-21.71 17.59-39.29 39.3-39.29h327.31v11.19h-8.65v54.49" fill="#4463b8"/><path d="m2912.5 3270.4v-54.48h-300.34c-14.66 0-26.53 12.2-26.53 27.22 0 7.54 2.97 14.34 7.77 19.28 4.81 4.92 11.42 7.98 18.76 7.98h300.34" fill="#fff"/><path d="m2912.5 3256.6v-8.33h-292.57c-2.28 0-4.16 1.87-4.16 4.15v0.03c0 2.28 1.88 4.15 4.16 4.15h292.57" fill="#bad3f0"/><path d="m2912.5 3236.1v-8.33h-292.57c-2.28 0-4.16 1.87-4.16 4.15v0.03c0 2.28 1.88 4.15 4.16 4.15h292.57" fill="#bad3f0"/><path d="m3288.7 3274.1h8.65v12.92h-327.3c-10.85 0-20.69-4.38-27.79-11.51-7.1-7.1-11.52-16.92-11.52-27.79 0-21.71 17.59-39.3 39.31-39.3h327.3v11.19h-8.65v54.49" fill="#f3b024"/><path d="m3291 3274.1v-54.48h-300.34c-14.67 0-26.54 12.21-26.54 27.23 0 7.54 2.97 14.33 7.77 19.28 4.82 4.92 11.43 7.97 18.77 7.97h300.34" fill="#fff"/><path d="m3291 3260.3v-8.34h-292.58c-2.28 0-4.15 1.88-4.15 4.16v0.02c0 2.29 1.87 4.16 4.15 4.16h292.58" fill="#bad3f0"/><path d="m3291 3239.8v-8.33h-292.58c-2.28 0-4.15 1.87-4.15 4.15v0.03c0 2.28 1.87 4.15 4.15 4.15h292.58" fill="#bad3f0"/><path d="m3288.7 3195.5h8.65v12.92h-327.3c-10.85 0-20.69-4.38-27.79-11.51-7.1-7.1-11.52-16.92-11.52-27.79 0-21.71 17.59-39.29 39.31-39.29h327.3v11.18h-8.65v54.49" fill="#3ebeac"/><path d="m3291 3195.5v-54.47h-300.34c-14.67 0-26.54 12.2-26.54 27.22 0 7.54 2.97 14.33 7.77 19.28 4.82 4.92 11.43 7.97 18.77 7.97h300.34" fill="#fff"/><g fill="#bad3f0"><path d="m3291 3181.7v-8.33h-292.58c-2.28 0-4.15 1.87-4.15 4.15v0.02c0 2.29 1.87 4.16 4.15 4.16h292.58"/><path d="m3291 3161.2v-8.33h-292.58c-2.28 0-4.15 1.87-4.15 4.15v0.03c0 2.28 1.87 4.15 4.15 4.15h292.58"/><path d="m4304.4 794.55c0-49.059-805.68-88.832-1799.5-88.832s-1799.5 39.773-1799.5 88.832c0 49.058 805.68 88.828 1799.5 88.828s1799.5-39.77 1799.5-88.828"/></g><path d="m4087 1373.4h-3083.1c-57.794 242.47-267.99 1183.1-65.559 1244.8 232.51 70.89 1242 99.25 1573.7 0 7.4-2.21 14.52-4.96 21.35-8.25 2.9-1.38 5.73-2.86 8.53-4.42 5.28 4.14 10.86 7.51 16.82 10.07 2.32 0.99 4.73 1.87 7.18 2.6 232.52 70.89 1242 99.25 1573.7 0 288.32-86.26 21.97-1005.5-52.72-1244.8" fill="#4463b8"/><g fill="#3a54ad"><path d="m1031.5 1900.2c-4.33 0-8.14 3.14-8.84 7.54-7.8 48.69-18.14 101.31-28.154 152.2-43.993 223.79-89.489 455.19 45.744 499.53 165.59 54.3 886.28 40.2 916.88 39.57 4.95-0.1 8.89-4.2 8.78-9.15-0.1-4.96-4.24-8.99-9.15-8.79-7.47 0.16-748.21 14.68-910.91-38.68-120.16-39.4-76.227-262.89-33.74-479.01 10.04-51.05 20.42-103.83 28.27-152.82 0.78-4.9-2.55-9.5-7.45-10.28l-1.43-0.11"/><path d="m1906.5 1556.9c-163.09 0-336.86 2.02-481.98 8.34-4.95 0.23-8.79 4.41-8.57 9.36 0.21 4.95 4.39 8.74 9.35 8.57 282.79-12.32 674.95-8.29 883.55-4.78 37.86 0.63 72.91 15.92 98.69 43.04 24.99 26.29 38.08 60.55 36.86 96.45-8.61 252.64-42.67 664.08-43.01 668.2-0.41 4.94 3.26 9.28 8.2 9.69 4.95 0.37 9.27-3.26 9.68-8.19 0.34-4.13 34.44-416.02 43.06-669.08 1.39-40.76-13.45-79.62-41.78-109.43-29.12-30.64-68.68-47.91-111.4-48.62-101.83-1.71-247.4-3.55-402.65-3.55"/><path d="m4089.9 1900.2-1.42 0.11c-4.9 0.78-8.24 5.38-7.45 10.28 7.85 48.99 18.23 101.77 28.26 152.81 42.49 216.13 86.43 439.62-33.73 479.02-162.71 53.36-903.45 38.84-910.91 38.68h-0.19c-4.87 0-8.86 3.9-8.96 8.79-0.11 4.95 3.83 9.05 8.78 9.15 30.6 0.63 751.28 14.73 916.87-39.57 135.24-44.34 89.75-275.75 45.74-499.53-10-50.89-20.35-103.51-28.14-152.2-0.7-4.4-4.52-7.54-8.85-7.54"/><path d="m3215 1556.9c-155.26 0-300.81 1.84-402.65 3.55-42.71 0.71-82.27 17.98-111.39 48.62-28.33 29.82-43.18 68.67-41.79 109.43 8.62 253.06 42.73 664.95 43.07 669.08 0.41 4.93 4.77 8.58 9.68 8.19 4.94-0.41 8.61-4.75 8.2-9.69-0.34-4.12-34.41-415.57-43.01-668.2-1.22-35.9 11.87-70.16 36.86-96.45 25.78-27.12 60.83-42.41 98.69-43.04 208.59-3.51 600.76-7.53 883.54 4.78 4.95 0.15 9.14-3.62 9.36-8.57 0.21-4.95-3.63-9.13-8.58-9.36-145.09-6.32-318.9-8.34-481.98-8.34"/><path d="m2559 1373.4h-25.51c23.16 498.47 7.09 1043.3-0.06 1236.6 2.9-1.38 5.73-2.86 8.53-4.42 5.28 4.14 10.86 7.51 16.82 10.07 7.06-189.28 23.56-739.07 0.22-1242.2"/><path d="m4162.4 1362.9v-152.1c0-76.22-61.8-138.04-138.04-138.04h-2982c-76.228 0-138.04 61.82-138.04 138.04v152.1c0 76.22 61.813 138.04 138.04 138.04h2982c76.24 0 138.04-61.82 138.04-138.04"/></g><g fill="#3843a1"><path d="m3798.9 1411.6c0-27.54-595.33-49.87-1329.7-49.87s-1329.7 22.33-1329.7 49.87 595.32 49.87 1329.7 49.87 1329.7-22.33 1329.7-49.87"/><path d="m1273.4 1072.8h2704.1v85.527h-2704.1z"/><path d="m1220.6 1072.8c65.39 113.33 49.34 314.24 33.04 428.17h25.15c52.85-146.4 70.12-353.37 74.83-428.17h-133.02"/><path d="m3897.2 1072.8c-65.38 113.33-49.34 314.24-33.03 428.17h-25.16c-52.85-146.4-70.12-353.37-74.83-428.17h133.02"/><path d="m1381.9 785h-102.88c-17.81 0-33.79 11-40.14 27.66l-74.22 194.28-25.14 65.86h271.65l3.72-65.86 9.92-176.54c1.39-24.636-18.23-45.398-42.91-45.398"/></g><path d="m1414.9 1006.9h-250.23l-25.14 65.86h271.65l3.72-65.86" fill="#303292"/><path d="m3976 1072.8-25.15-65.86-74.21-194.28c-6.36-16.66-22.32-27.66-40.15-27.66h-102.9c-24.66 0-44.26 20.762-42.88 45.398l9.91 176.54 3.7 65.86h271.68" fill="#3843a1"/><path d="m3950.9 1006.9h-250.23l3.7 65.86h271.68v-0.02l-25.15-65.84" fill="#303292"/><path d="m1170.2 1909.1c-22.24 99.64-98.91 178.73-198.23 202.33-77.442 18.39-168.98 22.92-244.8-22.05-167.3-99.25-62.383-853.51 85.066-986.79 147.44-133.27 341.47-115.3 419.66-17.01 99.24 124.76-2.85 559.8-61.7 823.52" fill="#3a54ad"/><g fill="#3843a1"><path d="m1025.8 1921.7c-4.16 0-7.89 2.91-8.77 7.15-0.89 4.19-22.784 100.85-136.32 100.85-2.68 0-5.383-0.06-8.16-0.17-121.27-4.77-136.67-99.22-136.81-100.17-0.722-4.91-5.277-8.31-10.191-7.56-4.903 0.72-8.285 5.29-7.559 10.19 0.172 1.15 4.391 28.28 25.621 56.12 19.485 25.53 57.543 56.57 128.24 59.35 70.89 2.8 111.45-28.54 132.94-55.34 23.22-28.94 29.55-58.38 29.8-59.62 1.02-4.85-2.1-9.6-6.95-10.61l-1.84-0.19"/><path d="m1034.5 1058.6c-41.15-0.01-84.689 13.45-126.35 40.15-54.618 35-99.489 90.31-133.37 164.4-26.859 58.75-46.925 129.42-59.644 210.05-21.594 136.88-14.422 257.07-14.344 258.26 0.309 4.95 4.61 8.71 9.512 8.4 4.945-0.31 8.707-4.57 8.398-9.51-0.078-1.18-7.125-119.7 14.211-254.68 19.516-123.5 67.446-286.53 184.91-361.81 70.891-45.43 147.09-49.55 203.85-11.03 80.26 54.47 107.64 181.82 75.1 349.39-0.94 4.86 2.24 9.58 7.1 10.51 4.87 0.95 9.58-2.22 10.52-7.1 33.96-174.95 3.85-308.95-82.64-367.65-28.92-19.63-62.22-29.38-97.26-29.38"/><path d="m986.59 1878.1s-11.344 110.58-124.77 99.23c-113.42-11.33-111.23-194.18-8.504-215.49 150.29-31.2 133.27 116.26 133.27 116.26"/></g><path d="m3949 1909.1c22.24 99.64 98.9 178.73 198.24 202.33 77.43 18.39 168.97 22.92 244.79-22.05 167.3-99.25 62.38-853.51-85.07-986.79-147.45-133.27-341.47-115.3-419.67-17.01-99.23 124.76 2.86 559.8 61.71 823.52" fill="#3a54ad"/><g fill="#3843a1"><path d="m4386.8 1921.7c-4.16 0-7.89 2.91-8.77 7.15-0.91 4.29-23.76 105.36-144.48 100.68-121.27-4.77-136.67-99.22-136.8-100.17-0.73-4.91-5.28-8.31-10.2-7.56-4.9 0.72-8.28 5.29-7.56 10.19 0.17 1.15 4.4 28.28 25.63 56.12 19.47 25.53 57.54 56.57 128.23 59.35 70.91 2.82 111.45-28.54 132.94-55.34 23.22-28.94 29.55-58.38 29.81-59.62 1-4.85-2.11-9.6-6.96-10.61l-1.84-0.19"/><path d="m4088.8 1070.7c-38.21 0-73.39 11.61-102.33 34.58-77.74 61.77-101.24 195.34-66.14 376.08 0.94 4.87 5.67 8.05 10.52 7.1 4.86-0.94 8.04-5.66 7.09-10.52-33.75-173.85-12.55-301.2 59.7-358.6 46.13-36.65 110.8-40.62 177.44-10.87 199.29 88.95 220.55 617.52 220.74 622.85 0.18 4.95 4.23 8.75 9.29 8.64 4.95-0.17 8.83-4.33 8.65-9.29-0.06-1.35-5.23-137.06-35.7-282.28-41.33-196.92-107.16-316.81-195.67-356.31-32.01-14.29-63.73-21.38-93.59-21.38"/><path d="m4132.6 1878.1s11.34 110.58 124.76 99.23c113.42-11.33 111.23-194.18 8.51-215.49-150.28-31.2-133.27 116.26-133.27 116.26"/></g><path d="m4401 2083.2c-61.32-49.03-112.48 19.92-225.51 20.33-4.8 0.03-9.69-0.07-14.69-0.33-1.89-0.08-3.85-0.2-5.79-0.33-127.56-8.72-165.91-201.9-217.24-118.97-39.47 63.8-23.55 225.4-23.55 225.4s138.94 253.77 230.87 282.6c91.92 28.85 146.52 29.02 219.92-41.88 86.51-83.59 100.87-314.93 35.99-366.82" fill="#ef2a6e"/><g fill="#d21e50"><path d="m4175.4 2103.6c-4.8 0.03-9.69-0.07-14.69-0.33-56.98 49.89-171.57 60.73-173.01 60.86-2.82 0.26-4.9 2.74-4.66 5.56 0.25 2.82 2.71 4.87 5.56 4.67 6.33-0.57 130.61-12.34 186.8-70.76"/><path d="m4247.8 2209.3c-2.17 0-4.18 1.44-4.8 3.64-35.69 125.81-188.8 155.13-190.34 155.4-2.72 0.5-4.52 3.1-4.03 5.82 0.5 2.71 3.1 4.5 5.82 4.02 1.63-0.3 40.6-7.59 84.73-31.14 58.72-31.35 97.95-76.78 113.44-131.38 0.75-2.64-0.79-5.42-3.45-6.17l-1.37-0.19"/><path d="m4349.6 2289.9c-1.46 0-2.9 0.64-3.89 1.86-86.34 106.4-255.02 81.28-256.72 81.01-2.72-0.43-5.28 1.44-5.72 4.16-0.42 2.73 1.44 5.3 4.17 5.72 1.78 0.29 44.37 6.83 98.64-0.14 72.2-9.27 130.09-38.48 167.4-84.45 1.74-2.15 1.41-5.3-0.74-7.03-0.92-0.76-2.04-1.13-3.14-1.13"/></g><path d="m1938.5 2084.4s-71.88-31.77-465.52 27.52l-438.52 16.38-24.84 130.82c209.77 52.66 499.99 89.05 803.72 122.72 147.87 16.39 244.88-154.2 152.23-270.61-7.81-9.81-16.79-18.85-27.07-26.83" fill="#252838"/><path d="m1084.8 2125.5-159.41 5.12-19.766 114.01 95.872 9.93 22.11 2.27 50.4 5.22 10.79-136.55" fill="#f78d87"/><path d="m905.65 2244.7s-133.7 95.21-173.46 168.1c-39.757 72.89-58.351 99.65-72.718 98.8-14.368-0.85-7.211-21.67 0.062-49.47 6.406-24.47 16.227-55.84 28.75-96.61 12.528-40.77 39.051-89.49 49.52-121.11 9.07-27.41 25.961-102.79 53.91-132.26 41.074-43.32 159.94 21.38 159.94 21.38l-46.008 111.17" fill="#f78d87"/><path d="m1043.1 2126.9-51.833 1.66-0.7 124.94 33.103 3.39 19.43-129.99" fill="#252838"/><path d="m996.6 2275 25.248-167.23c22.36-11.98 46.23-11.33 71.23-1.16l-21.5 180.94c-28.18 4.12-50.07 1.84-74.978-12.55" fill="#3a4459"/><path d="m1812.3 2381.6s358.4 29.82 533.92-19.42c175.52-49.23 208.09-258.48-476.44-284.89l-57.48 304.31" fill="#252838"/><path d="m1850.8 2124.5c-34.06 0-70.07 1.21-108.03 3.63-134.17 8.54-245.65 30.02-254.93 31.85l-442 0.56c-3.46 0-6.25 2.8-6.25 6.25 0.01 3.45 2.8 6.25 6.25 6.25h0.01l442.61-0.56 1.22-0.12c1.14-0.23 115.4-22.95 254.04-31.76 182.79-11.63 324.79 6.05 410.64 51.14 3.05 1.61 6.83 0.43 8.43-2.63 1.61-3.06 0.43-6.83-2.62-8.44-71.14-37.36-174.94-56.16-309.37-56.17" fill="#3a4459"/><path d="m1781.5 1610.5-115.63-109.85-95.03 66.02 60.28 75.21 13.92 17.32 31.69 39.55 104.77-88.25" fill="#f78d87"/><path d="m1570.9 1566.6s-161.67-28.27-241.49-5.36c-79.81 22.9-111.91 28.47-121.39 17.65-9.49-10.82 10.35-20.37 35.25-34.71 21.92-12.64 51.14-27.69 88.96-47.41 37.81-19.73 91.12-35.07 120.97-49.84 25.88-12.79 91.4-53.73 132.01-54.54 59.68-1.19 97.13 128.86 97.13 128.86l-111.44 45.35" fill="#f78d87"/><g fill="#252838"><path d="m1751.2 1581.7-34.43-32.71-92.58 84.25 20.84 25.94 106.17-77.48"/><path d="m3019.2 1548.4c-0.73-2.37-1.54-4.73-2.44-7.05-1.64-4.66-3.54-9.17-5.68-13.61-1.16-2.43-2.4-4.84-3.73-7.21-34.88-63.44-116.68-99.06-254.85-55.79-141.49 44.32-345.29 360.49-476.6 588.17-8.54 14.81-16.76 29.23-24.66 43.18-2.4 4.27-4.76 8.46-7.11 12.63-3.38 6-6.68 11.89-9.9 17.71-2.37 4.24-4.7 8.43-6.97 12.57-31.69 57.11-55.76 102.73-68.98 128.2-11.33 21.79-20.09 44.83-25.42 68.82-9.16 41.36-6.16 72.13 5.92 93.25 1.57 2.76 3.31 5.33 5.19 7.76l0.09 0.14c48.24 62.21 193.44 18.08 319.12-96.34 144.23-131.34 524.57-554.32 557.02-681.41 9.7-37.98 9.73-76.95-1-111.02"/><path d="m2374.7 2265.6s16.22-108.16-294.74-313.66l-319.07-351.52-116.27 64.9c99.5 205.55 270.46 468.26 450.08 737.9 47.12 70.74 147.76 80.72 207.03 19.81 40.96-42.09 75.2-95.99 72.97-157.43"/></g><path d="m3016.8 1541.4c-1.64-4.66-3.54-9.17-5.68-13.61-1.16-2.43-2.4-4.84-3.73-7.21-13.57-6.63-28.63-11.99-44.69-15.77-18.36-4.36-37.24-6.49-56.33-6.49-68.32 0-139.6 27.36-202.28 78.88-148.34 121.83-372.85 546.79-412.41 623.02-15.33-25.58-35.34-50.43-57.41-73.74-77.95-82.37-181.54-145.5-193.87-152.89l-289.75-337.09c-2.44-2.85-6.71-3.17-9.55-0.74-2.81 2.43-3.14 6.71-0.7 9.54l290.46 337.95 1.7 1.41c1.46 0.86 113.97 68.13 194.74 154.39 23.39 24.98 44.13 51.54 58.73 78.55 1.19 2.2 3.49 3.51 6 3.54 2.52-0.03 4.82-1.45 5.95-3.7 2.57-4.98 257.18-500.4 414.68-629.81 76.93-63.17 166.92-88.58 246.93-69.65 21.28 5.03 40.88 13.19 57.21 23.42" fill="#3a4459"/><path d="m1610.6 1651.7 144.77-87.43c23.51 9.55 38.26 28.32 46.4 54.05l-152.92 99.07c-21.17-19.04-33.41-37.33-38.25-65.69" fill="#3a4459"/><path d="m3380 2227.3-157.01-101.4 77.91-54.68 128.02 116.7-48.92 39.38" fill="#f35e72"/><path d="m3628 2386.9-288.73-136.62 77.06-108.16s151.58 133.98 211.67 244.78" fill="#f68522"/><path d="m3788.9 2335.4s-87.32 46.03-144.1 54.14-183.11-194.99-363.23-260.49c-218.12-79.31-365.01-125.28-462.35-127.98-97.34-2.71 144.19-206.4 138.78-352.42-5.41-154.13-45.26-245.92 127.08-213.61 216.32 40.56 521.86 202.79 657.07 327.18 135.19 124.38 205.5 189.27 219.01 264.99 13.53 75.71-27.03 189.28-27.03 189.28s-112 24.21-145.23 118.91" fill="#f3b024"/><g fill="#f68522"><path d="m3054.1 1663.6c-0.99 0-1.99 0.3-2.87 0.91-2.26 1.58-2.8 4.71-1.21 6.96 87.14 124.12 65.59 336.52 65.37 338.66-0.3 2.74 1.69 5.2 4.43 5.49 2.73 0.3 5.21-1.69 5.5-4.44 0.24-2.17 22.16-218.3-67.12-345.45-0.97-1.38-2.52-2.13-4.1-2.13"/><path d="m3873.3 2180.4-0.93 0.08c-68.68 12.88-106.52 48.46-126.17 76.03-21.37 29.99-26.34 56.67-26.54 57.8-0.49 2.71 1.32 5.31 4.04 5.8 2.7 0.49 5.31-1.32 5.8-4.03 0.05-0.3 4.91-25.98 25.12-54.15 27.04-37.71 67.27-61.81 119.6-71.62 2.71-0.5 4.5-3.12 3.99-5.84-0.45-2.4-2.55-4.07-4.91-4.07"/><path d="m3339.3 1776.1-1.16 0.14c-2.69 0.64-4.35 3.34-3.71 6.03 40.69 171.18 112.4 296.5 165.39 371.49 57.5 81.38 106.16 122.88 106.65 123.29 2.11 1.78 5.26 1.51 7.04-0.6 1.78-2.1 1.52-5.26-0.59-7.04-0.48-0.41-48.37-41.3-105.17-121.74-52.4-74.23-123.32-198.28-163.59-367.72-0.55-2.3-2.6-3.85-4.86-3.85"/><path d="m3309.5 1776.1c-2.61 0-4.79 2.01-4.99 4.64-10.8 148.64 80.95 296.28 81.88 297.77 1.47 2.33 4.56 3.03 6.89 1.56 2.34-1.48 3.04-4.56 1.57-6.9-0.91-1.44-90.92-146.39-80.36-291.71 0.2-2.75-1.87-5.14-4.63-5.34l-0.36-0.02"/><path d="m3609.6 1919.4c-0.92 0-1.85 0.26-2.68 0.79-2.33 1.48-3.02 4.57-1.54 6.9 0.63 0.99 63.91 99.44 158.58 153.09 82.79 46.91 153.19 3.01 153.89 2.56 2.32-1.49 3-4.58 1.51-6.9-1.49-2.33-4.59-3.01-6.91-1.51-0.96 0.59-66.36 40.89-143.55-2.86-92.53-52.43-154.47-148.78-155.08-149.75-0.95-1.5-2.57-2.32-4.22-2.32"/></g><path d="m3839.5 1824.4c-7.06-7.89-14.12-15.59-21.2-23.11-18.88-20.15-37.66-38.86-56.27-56.24-234.52-218.92-437.88-222.92-414.66-153.18 14.77 44.31 55.81 94.53 104.73 142.25 4.46 4.36 9 8.71 13.6 13.04 54.73 51.45 116.79 99.04 162.3 131.92 8.32 6.03 16.08 11.55 23.17 16.53l2.08 1.45c24.63 17.29 40.24 27.39 40.24 27.39l146.01-100.05" fill="#f78d87"/><path d="m3474.4 1668.4c-0.46 28.4-22.36 65.65-22.36 65.65 4.46 4.36 9 8.71 13.6 13.04 17.6-39.75 8.76-78.69 8.76-78.69" fill="#252838"/><path d="m3458.2 1721.6s-36.5 78.41-112.67 187.52c-68.97 98.78-86.11 190.08-153.46 187.85-67.36-2.22 82.26-369.56 109.3-449.08s51.73-108.17 113.16-95.42 43.67 169.13 43.67 169.13" fill="#f78d87"/><path d="m3818.3 1801.3c-18.88-20.15-37.66-38.86-56.27-56.24l-134.03 134.03 23.17 16.53 2.08 1.45 165.05-95.77" fill="#252838"/><path d="m3609.6 1908.2 197.39-148.72s164.94 132.49 156.83 224.44c-8.11 91.93-81.12 102.74-108.16 102.74s-121.68 8.12-246.06-178.46" fill="#f3b024"/><path d="m3271 2067.1s35.83 37.4 29.07 63.77c-6.76 26.36-50.64 17.11-50.64 17.11l21.57-80.88" fill="#f35e72"/><g fill="#f78d87"><path d="m3180.2 2017.9s-79.95 45.75-52.72 92c35.16 59.69 110.87 48.76 140.61 37.99 34.43-12.47 0.35-91.26 13.47-129.99 0 0-69.17-31.57-101.36 0"/><path d="m3069.5 2047.2c12.34 15.63 48.58 24.41 48.58 24.41s-32.31 23.74-108.69 18.65c0 0-53.41 0.6-88.48-64.64-27.73-51.58-31.18-160.26-16.64-153.83 10.63 4.69 5.74 30.42 17.57 60.84 0 0-5.01-34.73-2.67-51.93 2.34-17.18-0.78-54.7 14.07-53.14s5.16 66.96 17.82 95.1c0 0-4.01-30.49-3.49-62.02 0.52-31.52 2.54-57.55 13.48-55.19s8.4 41.12 11.01 58.32 0.52 48.47 4.69 55.76c0 0-0.54-60.15 7.28-79.94 7.82-19.8 17.91-13.53 19.3 26.27 0 0 1.09 76.14 15.97 104.08 14.87 27.94 50.2 77.26 50.2 77.26"/><path d="m3064.8 2041.7-2.68-14.78s-1.21-27.14-7.27-48.53c-6.05-21.39-2.19-38.47-6.29-55.84-4.11-17.38-24.24-3.4-20.88 30.98 3.36 34.39-17.15 53.22-17.15 53.22s15.9 41.82 54.27 34.95"/><path d="m4217.4 2456.7s-14.4-71.18-92.63-81.09c-78.23-9.93-355-26.55-386.91 43.16s97.76 214.51 174.34 268 173.9-8.79 229.38-45.32c55.47-36.53 94.23-128.68 75.82-184.75"/></g><path d="m3902.6 2586.3-0.23 0.01c-0.69 0.04-17.05 1.18-24.25 14.71-8.63 16.16 4.97 30.67 5.55 31.28 1.44 1.5 3.81 1.55 5.31 0.12 1.49-1.43 1.55-3.8 0.12-5.3-0.43-0.45-10.42-11.24-4.37-22.57 5.26-9.87 17.98-10.75 18.1-10.76 2.06-0.12 3.64-1.9 3.51-3.97-0.12-1.99-1.77-3.52-3.74-3.52" fill="#252838"/><path d="m4031.5 2388.7s-14.42-1.9-36.26 11.86c0 0 3.08-20.97 51.19-22.84 0 0-3.72 8.91-14.93 10.98" fill="#f35e72"/><path d="m4053.5 2369.4s-105.83-113.57-118.76-152.91c0 0-49.18-1.87-96.62 31.38-41.74 29.29-58.48 68.53-61.89 77.5-0.46 1.22-0.67 1.9-0.67 1.9l73.81 45.15s36.45 28.39 123.41 16.44c23.22-3.17 50.02-9.22 80.72-19.46" fill="#f78d87"/><path d="m3972.8 2388.8c-12.93-22.2-47.43-66.3-119.81-72.33-30.29-2.52-55.86 1.76-76.74 8.84-0.46 1.22-0.67 1.9-0.67 1.9l73.81 45.15s36.45 28.39 123.41 16.44" fill="#f35e72"/><path d="m4243.6 2435.8c-53.47-79.73-190.09-66.44-190.09-66.44l-22.02 19.3s60.48-1.05 101.62 40.37c41.15 41.43-8.07 81.4-58.96 59.87-4.02-1.69-8.02-3.82-11.97-6.31-2.13-1.33-4.25-2.77-6.36-4.31-43.45-31.53-83.88-102.03-141.47-120.92-65.61-21.53-162.33-19.27-192.52 33.84-30.23 53.09 34.83 152.22 72.1 180.27 0 0 43.02-4.31 52.17-42.3s4.13-46.68 40.3-62.63c36.2-15.94 95.83 3.36 125.89 35.58 0 0-5.66 13.95-8.94 32.64-0.62 3.46-1.15 7.05-1.54 10.76-1.82 17.05-0.89 36.25 7.66 52.01 20.57 37.79-60.01 32.18-55.16 96.85 0 0-89.62 151.2 3.23 190.86 39.17 16.74 72.96-55.88 72.96-55.88-4.88 66.26 40.14 54.08 53.27 35.17 13.09-18.95 13.48-95.55 13.48-95.55s3.15 65.35 23.09 66.68c19.95 1.36 40.43-31.99 39.1-109.05-1.35-77.06 61.09-126.84 61.09-126.84 6.79-5.95 12.82-12.69 17.76-20.23 16.82-25.48 45.43-83.95 5.31-143.74" fill="#252838"/><path d="m3754.7 2490.6 1.35-1.77c0.92-0.75 23-18.22 57.6-3.58 2.43 1.03 3.58 3.83 2.54 6.27l-0.03 0.07c-1.05 2.39-3.83 3.49-6.24 2.47-29.35-12.43-47.64 2.04-47.83 2.19-2.04 1.67-5.06 1.36-6.73-0.69-1.17-1.45-1.37-3.37-0.66-4.96" fill="#3a4459"/><path d="m3939.5 2600.1c0.55-1.79 1.8-3.37 3.61-4.28 3.5-1.76 7.77-0.36 9.54 3.14 6.96 13.75 12.91 44.85-14.42 64.18-3.2 2.26-7.64 1.5-9.92-1.71-2.27-3.21-1.5-7.65 1.71-9.93 24.05-17 10.5-44.95 9.91-46.13-0.84-1.7-0.94-3.58-0.43-5.27" fill="#252838"/><path d="m3870.5 2647.1s-48.97-20.98-75.35-24.81c-26.39-3.84 8.69-44.18 8.69-44.18l66.66 68.99" fill="#f78d87"/><path d="m4030.6 2432 0.94-2.22c1.91-2.84 5.74-3.59 8.57-1.67 34.27 23.07 72.07 13.31 72.45 13.21 3.29-0.89 6.68 1.06 7.57 4.36 0.87 3.29-1.08 6.68-4.38 7.56-1.76 0.48-43.65 11.3-82.54-14.89-2.14-1.44-3.08-3.97-2.61-6.35" fill="#f35e72"/><path d="m4066 2444.3c0.21-1.06 0.7-2.06 1.47-2.92 2.68-2.97 3.85-9.98 4.01-12.91 0.15-3.4 3.07-6.03 6.48-5.85 3.41 0.17 6.03 3.07 5.85 6.49-0.07 1.36-0.88 13.56-7.17 20.54-2.28 2.54-6.19 2.73-8.72 0.45-1.68-1.52-2.33-3.74-1.92-5.8" fill="#f35e72"/><g fill="#fff"><path d="m4054.1 2443s-2.39-27.59 13.27-27.96c15.67-0.37 7.39 34.97 7.39 34.97-8.45-1.07-15.47-3.29-20.66-7.01"/><path d="m4060.8 2442.2s-64.27-22.53-57.28-35.78c5.79-10.96 60.22 18.99 60.22 18.99l-2.94 16.79"/><path d="m3911.5 2581.2c-19.89-21.59-47.76-28.38-62.12-15.15-6.73 6.2-9.53 16.07-7.87 27.73 1.75 12.18 8.14 24.77 17.92 35.41 2.24 2.4 4.56 4.63 6.96 6.66l0.05 0.03 0.07 0.07c11.59 9.85 24.79 15.15 36.2 15.15 7.31 0 13.89-2.2 18.86-6.76 14.36-13.24 9.85-41.56-10.07-63.14zm15.28 68.77c-14.91 13.8-41.04 10.67-62.52-5.99-2.13-1.62-4.21-3.39-6.2-5.31-1.47-1.33-2.87-2.77-4.26-4.28-10.87-11.77-17.92-25.81-19.89-39.53-2.05-14.23 1.61-26.48 10.27-34.48 6.36-5.87 14.75-8.66 23.95-8.66 8.02 0 16.66 2.12 25.09 6.23 8.46 4.1 16.72 10.17 23.95 18.02l2.25 2.53c1.8 2.13 3.49 4.31 5 6.54 16.22 23.25 17.77 50.73 2.36 64.93"/><path d="m3864.1 2635c-1.13 0-2.26 0.51-3.02 1.47-0.74 0.91-4.76 5.11-12.21 0.48-1.8-1.12-4.17-0.57-5.3 1.24-1.12 1.8-0.56 4.17 1.24 5.3 11.01 6.84 19.43 1.49 22.34-2.29 1.3-1.68 0.98-4.1-0.7-5.4l-2.35-0.8"/><path d="m4062.2 2482.6c-2.13-1.33-4.25-2.77-6.36-4.31-15.76 23.74-34.22 42.22-52.47 56.48-37.81 29.61-74.6 41.11-83.96 43.7-1.4 0.39-2.2 0.57-2.28 0.59-2.07 0.49-3.36 2.54-2.87 4.62 0.46 2.07 2.54 3.36 4.59 2.87 0.12-0.03 2.1-0.51 5.56-1.54 12.44-3.77 44.02-14.92 77.42-39.48 20.82-15.3 42.32-35.81 60.37-62.93"/></g><path d="m4647.3 581.79c0-17.219-104.74-31.18-233.95-31.18-129.2 0-233.94 13.961-233.94 31.18 0 17.223 104.74 31.191 233.94 31.191 129.21 0 233.95-13.968 233.95-31.191" fill="#bad3f0"/><path d="m4394.1 1086.1h-66.76s-330.73 680.38-240.95 785.41c115.72 135.4 266.01-251.19 307.71-785.41" fill="#3ebeac"/><path d="m4373.1 1086.1h-10.92l-210.23 688.81c-0.83 2.77 0.72 5.67 3.46 6.52 2.76 0.83 5.68-0.72 6.51-3.47l211.18-691.86" fill="#329c92"/><path d="m4433.4 1086.1h66.75s330.73 680.38 240.95 785.41c-115.72 135.4-266-251.19-307.7-785.41" fill="#3ebeac"/><path d="m4454.4 1086.1h10.91l210.23 688.81c0.83 2.77-0.72 5.67-3.46 6.52-2.76 0.83-5.68-0.72-6.51-3.47l-211.17-691.86" fill="#329c92"/><path d="m4453.2 1086.1h-59.06c-130.57 625.56-78.4 1149.5 53.86 1051.2 132.23-98.28 5.2-1051.2 5.2-1051.2" fill="#3ebeac"/><path d="m4418.6 2010-7.06-923.88h-10.42l7.06 923.95c0.03 2.89 2.4 5.13 5.26 5.18 2.87-0.02 5.19-2.38 5.16-5.25" fill="#329c92"/><path d="m4671.1 1086.1-9.74-36.12-1.88-6.95-8.79-32.65-1.88-6.94-87.42-324.11-1.88-6.941-8.81-32.641-1.85-6.957-11.56-42.812c-83.71-10.372-165.63-11.559-247.05 0l-11.55 42.812-1.85 6.957-8.81 32.641-1.88 6.941-87.43 324.11-1.87 6.94-8.79 32.65-1.88 6.95-9.74 36.12h514.66" fill="#ef2a6e"/><g fill="#d21e50"><path d="m4661.4 1050-1.88-6.95h-491.42l-1.88 6.95h495.18"/><path d="m4650.7 1010.4-1.88-6.94h-470.09l-1.87 6.94h473.84"/><path d="m4561.4 679.37-1.88-6.941h-291.48l-1.88 6.941h295.24"/><path d="m4550.7 639.79-1.85-6.957h-270.16l-1.85 6.957h273.86"/></g><path d="m825.98 581.79c0-17.219-122.8-31.18-274.3-31.18-151.49 0-274.29 13.961-274.29 31.18 0 17.223 122.8 31.191 274.29 31.191 151.49 0 274.3-13.968 274.3-31.191" fill="#bad3f0"/><path d="m779.41 1051.8c-0.101-2.1-0.34-4.23-0.75-6.36l-5.609-36.94-1.696-11.128-0.843-5.531-0.203-1.41-4.977-32.672-1.051-6.938-0.101-0.64-2.508-16.661-36.406-239.49-2.512-16.656-0.719-4.711-1.051-6.961-4.562-29.988-0.41-2.66-1.051-6.953-1.078-7.047-2.434-16.02c-1.844-12.183-12.332-21.203-24.687-21.203h-270.17c-12.332 0-22.817 9.02-24.66 21.203l-2.438 16.02-1.074 7.047-1.055 6.953-0.41 2.66-4.559 29.988-1.05 6.961-0.719 4.711-2.516 16.656-36.398 239.49-2.516 16.661-0.101 0.64-1.051 6.938-4.973 32.672-0.203 1.41-0.844 5.531-1.695 11.128-5.613 36.94c-0.41 2.13-0.641 4.26-0.742 6.36h455.43" fill="#ef2a6e"/><g fill="#d21e50"><path d="m771.36 997.33-0.843-5.531-0.203-1.41h-437.24l-0.203 1.41-0.844 5.531h439.33"/><path d="m765.33 957.72-1.051-6.938h-425.18l-1.051 6.938h427.28"/><path d="m722.04 672.62-1.051-6.961h-338.59l-1.05 6.961h340.69"/><path d="m716.01 633.01-1.051-6.953h-326.54l-1.055 6.953h328.64"/></g><path d="m887.44 1610.6c-108.23 28.5-273.6-196.16-323.82-415.18v319.12c25.246 44.78 73.375 112.13 160.77 183.31 135.9 110.69 261.01 252.74 152.58 281.29-101.61 26.77-253.58-169.61-313.35-374.98v409.81c17.512 27.19 46.196 62.86 92.051 100.2 85.656 69.76 164.5 159.29 96.164 177.29-59.305 15.61-145.82-89.36-188.22-207.76v132.82c7.012 41.1 16.91 99.78 44.098 159.77 63 139.01 97.031 282.24 13.969 271.59-83.133-10.67-137.04-258.25-91.579-448.32v-68.35c-30.707 139.09-136.07 283.15-204.84 265.03-68.332-18 10.511-107.52 96.16-177.27 65.203-53.11 95.711-102.81 108.68-129.54v-322.84c-49.253 220.14-215.8 447.34-324.6 418.67-108.43-28.55 16.676-170.6 152.58-281.29 102.7-83.64 151.2-162.02 172.02-204.65v-387.12c-52.64 216.09-214.93 434.19-321.66 406.07-108.42-28.56-15.437-132.37 137.3-257.92 103.79-85.33 159.39-175.38 184.37-224.33v-184.24h33.512v74.45c21.246 42.97 69.797 120.44 171.25 203.07 135.9 110.69 261 252.73 152.58 281.3" fill="#3ebeac"/><g fill="#329c92"><path d="m519.66 1752.1c-1.508 0-2.933 0.92-3.504 2.41-81.129 212.66-240.86 332.13-242.47 333.32-1.668 1.22-2.024 3.58-0.793 5.25 1.226 1.66 3.57 2.02 5.238 0.79 1.621-1.19 163.09-121.9 245.03-336.69 0.742-1.94-0.23-4.1-2.164-4.84l-1.34-0.24"/><path d="m545 2295.9-0.285 0.01c-2.067 0.16-3.614 1.96-3.457 4.02 13.992 183.66 74.797 299.09 75.414 300.24 0.976 1.82 3.246 2.51 5.07 1.53 1.828-0.97 2.516-3.25 1.539-5.07-0.605-1.14-60.683-115.29-74.547-297.27-0.148-1.97-1.789-3.46-3.734-3.46"/><path d="m582.49 2069.6-1.418 0.27c-1.914 0.79-2.832 2.98-2.05 4.9 37.75 92.29 140.68 179.18 141.72 180.05 1.586 1.33 3.95 1.13 5.282-0.47 1.328-1.58 1.121-3.94-0.469-5.28-1.02-0.85-102.56-86.59-139.59-177.15-0.594-1.44-1.996-2.32-3.473-2.32"/><path d="m582.49 1576.1-1.156 0.19c-1.969 0.63-3.047 2.75-2.406 4.73 63.742 196.68 230.7 311.52 232.38 312.65 1.715 1.16 4.047 0.72 5.211-1 1.16-1.71 0.711-4.05-1.004-5.21-1.66-1.12-166.53-114.6-229.45-308.76-0.516-1.59-1.989-2.6-3.571-2.6"/><path d="m575.91 1185.4-1.426 0.27c-1.914 0.79-2.832 2.98-2.042 4.9 78.191 190.47 254.02 342.21 255.78 343.73 1.578 1.34 3.945 1.15 5.289-0.41 1.347-1.58 1.16-3.95-0.414-5.29-1.754-1.5-176.24-152.11-253.72-340.88-0.598-1.44-1.992-2.32-3.469-2.32"/><path d="m519.66 1298.4c-1.496 0-2.914 0.9-3.496 2.38-84.844 217.65-240.96 338.44-242.53 339.63-1.645 1.26-1.961 3.61-0.707 5.26s3.613 1.96 5.254 0.71c1.586-1.2 159.33-123.18 244.97-342.87 0.754-1.93-0.199-4.11-2.128-4.86l-1.364-0.25"/><path d="m509.66 2151.7c-1.508 0-2.933 0.92-3.504 2.41-42.777 112.06-142.52 177.33-143.52 177.97-1.738 1.12-2.242 3.45-1.125 5.19 1.125 1.73 3.445 2.23 5.184 1.12 1.023-0.67 102.79-67.18 146.47-181.6 0.742-1.95-0.23-4.1-2.164-4.85l-1.34-0.24"/></g></g></g></svg>
