<?xml version="1.0" encoding="UTF-8" standalone="no"?>
<svg
   xmlns:dc="http://purl.org/dc/elements/1.1/"
   xmlns:cc="http://creativecommons.org/ns#"
   xmlns:rdf="http://www.w3.org/1999/02/22-rdf-syntax-ns#"
   xmlns:svg="http://www.w3.org/2000/svg"
   xmlns="http://www.w3.org/2000/svg"
   xmlns:sodipodi="http://sodipodi.sourceforge.net/DTD/sodipodi-0.dtd"
   xmlns:inkscape="http://www.inkscape.org/namespaces/inkscape"
   width="234"
   height="186"
   viewBox="0 0 234 186"
   fill="none"
   version="1.1"
   id="svg3055"
   sodipodi:docname="Relax.svg"
   inkscape:version="1.0.1 (c497b03c, 2020-09-10)">
  <metadata
     id="metadata3061">
    <rdf:RDF>
      <cc:Work
         rdf:about="">
        <dc:format>image/svg+xml</dc:format>
        <dc:type
           rdf:resource="http://purl.org/dc/dcmitype/StillImage" />
        <dc:title></dc:title>
      </cc:Work>
    </rdf:RDF>
  </metadata>
  <defs
     id="defs3059" />
  <sodipodi:namedview
     pagecolor="#ffffff"
     bordercolor="#666666"
     borderopacity="1"
     objecttolerance="10"
     gridtolerance="10"
     guidetolerance="10"
     inkscape:pageopacity="0"
     inkscape:pageshadow="2"
     inkscape:window-width="689"
     inkscape:window-height="480"
     id="namedview3057"
     showgrid="false"
     inkscape:zoom="1.2582019"
     inkscape:cx="54.371523"
     inkscape:cy="72.185375"
     inkscape:window-x="0"
     inkscape:window-y="23"
     inkscape:window-maximized="0"
     inkscape:current-layer="svg3055" />
  <path
     fill-rule="evenodd"
     clip-rule="evenodd"
     d="M128.119 166.046C128.119 166.046 33.6007 168.154 29.5891 136.751C24.8947 100.003 29.007 111.763 17.2655 65.0826C4.78345 15.4591 42.7305 -1.74893 74.1356 6.22014C102.874 13.513 104.958 49.6303 144.108 40.8551C202.116 27.8533 225.808 46.2064 228.319 69.3199C231.02 94.1703 215.083 101.087 212.61 133.451C210.137 165.816 206.128 162.655 128.119 166.046Z"
     fill="#C8DFF7"
     id="path2753" />
  <path
     fill-rule="evenodd"
     clip-rule="evenodd"
     d="M13.3359 62.9708C13.1032 62.9708 12.894 62.8103 12.8406 62.5741C7.87493 40.4853 12.7294 26.8312 17.6763 19.2666C23.0595 11.0345 29.5406 8.10172 29.814 7.98138C30.0701 7.86659 30.3703 7.98343 30.4836 8.24046C30.5974 8.49651 30.4815 8.79672 30.225 8.91054C30.1605 8.93944 23.7064 11.8712 18.4912 19.8767C13.6723 27.2736 8.9525 40.6478 13.8318 62.3521C13.8933 62.6255 13.7216 62.8977 13.4478 62.9592C13.4101 62.9668 13.3729 62.9708 13.3359 62.9708Z"
     fill="#C8DFF7"
     id="path2755" />
  <path
     fill-rule="evenodd"
     clip-rule="evenodd"
     d="M232.244 75.7205C232.234 75.7205 232.225 75.72 232.215 75.72C231.935 75.7048 231.72 75.4651 231.736 75.1851C232.598 59.4685 225.701 50.1199 219.763 45.0439C213.307 39.5254 206.548 37.7068 206.48 37.6885C206.209 37.6174 206.047 37.34 206.118 37.0682C206.189 36.797 206.468 36.6344 206.738 36.7055C207.022 36.7797 213.758 38.5877 220.391 44.2433C226.518 49.4685 233.636 59.088 232.75 75.2399C232.736 75.5107 232.511 75.7205 232.244 75.7205Z"
     fill="#C8DFF7"
     id="path2757" />
  <path
     fill-rule="evenodd"
     clip-rule="evenodd"
     d="M230.516 85.7236C230.47 85.7236 230.422 85.7169 230.376 85.7032C230.106 85.6255 229.951 85.3441 230.028 85.0743C230.923 81.9688 231.353 78.3047 231.357 78.2681C231.389 77.9896 231.643 77.788 231.92 77.822C232.199 77.854 232.398 78.106 232.366 78.3849C232.349 78.5378 231.922 82.1705 231.004 85.3562C230.94 85.5783 230.737 85.7236 230.516 85.7236Z"
     fill="#C8DFF7"
     id="path2759" />
  <path
     fill-rule="evenodd"
     clip-rule="evenodd"
     d="M33.868 7.03089C33.681 7.03089 33.5013 6.92772 33.4128 6.74896C33.2879 6.4975 33.3905 6.19269 33.6414 6.06775C33.7359 6.02106 35.9757 4.91362 38.2058 4.38421C38.4776 4.31914 38.7524 4.48787 38.8175 4.7611C38.8826 5.03385 38.7138 5.30769 38.4406 5.37276C36.3257 5.87471 34.1159 6.96691 34.0937 6.97755C34.0215 7.01408 33.9442 7.03089 33.868 7.03089Z"
     fill="#C8DFF7"
     id="path2761" />
  <path
     fill-rule="evenodd"
     clip-rule="evenodd"
     d="M114.141 28.4501C114.141 28.4501 116.159 21.555 120.532 22.0595C124.904 22.564 125.577 24.5822 129.277 23.0683C132.977 21.555 134.322 16.6777 140.376 17.8547C146.431 19.0317 147.103 25.7587 153.998 25.2542C160.893 24.7497 163.248 24.5816 165.771 28.4495H114.141V28.4501Z"
     fill="#C8DFF7"
     id="path2763" />
  <path
     fill-rule="evenodd"
     clip-rule="evenodd"
     d="M160.401 12.7087C160.401 12.7087 163.167 6.59241 170.72 8.41565C178.188 10.2181 181.404 -0.476411 188.053 0.211445C194.702 0.899302 192.319 7.03994 200.802 8.41565C209.286 9.79136 211.741 6.44412 215.315 12.7087H160.401Z"
     fill="#C8DFF7"
     id="path2765" />
  <path
     fill-rule="evenodd"
     clip-rule="evenodd"
     d="M52.7712 26.5213C52.6432 26.5213 52.5156 26.4659 52.4278 26.3592L45.1263 17.5007L37.8248 26.3592C37.6682 26.5488 37.3884 26.5756 37.199 26.4197C37.0094 26.2638 36.9826 25.9833 37.1385 25.7939L44.7829 16.5188C44.8672 16.4162 44.9932 16.3567 45.1258 16.3567C45.2584 16.3567 45.3844 16.4161 45.4687 16.5188L53.1131 25.7939C53.2691 25.9834 53.2422 26.2633 53.0527 26.4197C52.9709 26.4878 52.8709 26.5213 52.7712 26.5213Z"
     fill="white"
     id="path2767" />
  <path
     fill-rule="evenodd"
     clip-rule="evenodd"
     d="M60.931 71.5179H29.3232C28.1553 71.5179 27.209 70.571 27.209 69.4037V27.7537C27.209 26.5858 28.1559 25.6395 29.3232 25.6395H60.931C62.0989 25.6395 63.0452 26.5864 63.0452 27.7537V69.4037C63.0457 70.5711 62.0989 71.5179 60.931 71.5179Z"
     fill="white"
     id="path2769" />
  <path
     fill-rule="evenodd"
     clip-rule="evenodd"
     d="M30.0198 67.5372V29.6201C30.0198 28.9745 30.5435 28.4507 31.1891 28.4507H59.0647C59.7108 28.4507 60.234 28.9745 60.234 29.6201V67.5372C60.234 68.1829 59.7103 68.7066 59.0647 68.7066L31.1897 68.7067C30.5435 68.7067 30.0198 68.1829 30.0198 67.5372Z"
     fill="#C8DFF7"
     id="path2771" />
  <path
     fill-rule="evenodd"
     clip-rule="evenodd"
     d="M83.1799 47.6028C83.0803 47.6028 82.9802 47.5698 82.8974 47.5012C82.7079 47.3453 82.6811 47.0648 82.837 46.8754L90.4814 37.6003C90.5657 37.4978 90.6917 37.4382 90.8243 37.4382C90.9569 37.4382 91.0829 37.4976 91.1672 37.6003L98.8116 46.8754C98.9675 47.065 98.9407 47.3448 98.7511 47.5012C98.5616 47.6577 98.2817 47.6303 98.1253 47.4408L90.8238 38.5822L83.5223 47.4408C83.4354 47.5479 83.3084 47.6028 83.1799 47.6028Z"
     fill="white"
     id="path2773" />
  <path
     fill-rule="evenodd"
     clip-rule="evenodd"
     d="M108.553 71.5178H73.0965C72.4564 71.5178 71.9377 70.9992 71.9377 70.3591V47.488C71.9377 46.8479 72.4564 46.3293 73.0965 46.3293H108.553C109.193 46.3293 109.712 46.8479 109.712 47.488V70.3591C109.713 70.9992 109.193 71.5178 108.553 71.5178Z"
     fill="white"
     id="path2775" />
  <path
     fill-rule="evenodd"
     clip-rule="evenodd"
     d="M74.1357 68.6854V49.1619C74.1357 48.8114 74.4202 48.5269 74.7707 48.5269H106.88C107.23 48.5269 107.515 48.8114 107.515 49.1619V68.6854C107.515 69.0359 107.23 69.3204 106.88 69.3204H74.7707C74.4196 69.3204 74.1357 69.0359 74.1357 68.6854Z"
     fill="#C8DFF7"
     id="path2777" />
  <path
     fill-rule="evenodd"
     clip-rule="evenodd"
     d="M200.341 55.2685L198.489 58.0421C198.339 58.2677 198.085 58.4028 197.815 58.4028H121.199C120.928 58.4028 120.675 58.2677 120.525 58.0421L118.672 55.2685C118.313 54.7295 118.699 54.007 119.346 54.007H199.667C200.315 54.007 200.701 54.7295 200.341 55.2685Z"
     fill="#3A4A59"
     id="path2779" />
  <path
     fill-rule="evenodd"
     clip-rule="evenodd"
     d="M129.334 58.4029L131.64 63.8289H135.143L134.828 58.4029H129.334Z"
     fill="#1C2836"
     id="path2781" />
  <path
     fill-rule="evenodd"
     clip-rule="evenodd"
     d="M189.679 58.4029L187.374 63.8289H183.871L184.185 58.4029H189.679Z"
     fill="#1C2836"
     id="path2783" />
  <path
     fill-rule="evenodd"
     clip-rule="evenodd"
     d="M188.624 41.1096C188.484 41.1096 188.37 40.9958 188.37 40.8556V24.2516C188.37 24.1115 188.484 23.9976 188.624 23.9976C188.764 23.9976 188.878 24.1115 188.878 24.2516V40.8556C188.878 40.9958 188.764 41.1096 188.624 41.1096Z"
     fill="#007B7A"
     id="path2785" />
  <path
     fill-rule="evenodd"
     clip-rule="evenodd"
     d="M195.712 40.4836L195.444 41.4788L195.392 41.6703L195.15 42.5695L195.098 42.7609L192.689 51.6885L192.638 51.88L192.395 52.7792L192.343 52.9706L192.025 54.1497C189.719 54.4351 187.463 54.4682 185.22 54.1497L184.902 52.9706L184.851 52.7792L184.608 51.88L184.556 51.6885L182.148 42.7609L182.096 42.5695L181.853 41.6703L181.802 41.4788L181.533 40.4836H195.712Z"
     fill="#FF5177"
     id="path2787" />
  <path
     fill-rule="evenodd"
     clip-rule="evenodd"
     d="M195.443 41.4789L195.392 41.6699H181.855L181.803 41.4789H195.443Z"
     fill="#DA234F"
     id="path2789" />
  <path
     fill-rule="evenodd"
     clip-rule="evenodd"
     d="M195.15 42.5695L195.098 42.7611H182.148L182.097 42.5695H195.15Z"
     fill="#DA234F"
     id="path2791" />
  <path
     fill-rule="evenodd"
     clip-rule="evenodd"
     d="M192.69 51.6886L192.638 51.8801H184.609L184.557 51.6886H192.69Z"
     fill="#DA234F"
     id="path2793" />
  <path
     fill-rule="evenodd"
     clip-rule="evenodd"
     d="M192.395 52.7794L192.344 52.9708H184.902L184.851 52.7794H192.395Z"
     fill="#DA234F"
     id="path2795" />
  <path
     fill-rule="evenodd"
     clip-rule="evenodd"
     d="M189.532 27.8772C189.226 27.9514 188.927 27.8239 188.762 27.5907C188.704 27.5115 188.662 27.42 188.641 27.3199C188.629 27.2691 188.624 27.2173 188.624 27.1624C188.624 26.9907 188.684 26.8251 188.793 26.6935C189.765 25.5175 194.682 19.8294 196.987 22.2083C199.773 25.0812 192.22 27.2235 189.532 27.8772Z"
     fill="#00C5BB"
     id="path2797" />
  <path
     fill-rule="evenodd"
     clip-rule="evenodd"
     d="M193.882 24.5617L188.763 27.5909C188.705 27.5117 188.663 27.4203 188.642 27.3201L193.731 24.3081C193.803 24.2665 193.893 24.2899 193.934 24.3605C193.975 24.4301 193.952 24.5199 193.882 24.5617Z"
     fill="#009C97"
     id="path2799" />
  <path
     fill-rule="evenodd"
     clip-rule="evenodd"
     d="M188.624 29.9761C188.624 30.031 188.619 30.0828 188.607 30.1336C188.585 30.2336 188.543 30.3251 188.486 30.4044C188.319 30.6376 188.021 30.7651 187.715 30.691C185.029 30.0372 177.475 27.8965 180.261 25.0222C182.565 22.6442 187.482 28.3313 188.455 29.5073C188.564 29.6389 188.624 29.8055 188.624 29.9761Z"
     fill="#00C5BB"
     id="path2801" />
  <path
     fill-rule="evenodd"
     clip-rule="evenodd"
     d="M188.606 30.1336C188.584 30.2337 188.542 30.3251 188.485 30.4044L183.365 27.3752C183.296 27.335 183.272 27.2436 183.314 27.1736C183.355 27.1034 183.446 27.0796 183.516 27.1218L188.606 30.1336Z"
     fill="#009C97"
     id="path2803" />
  <path
     fill-rule="evenodd"
     clip-rule="evenodd"
     d="M189.184 24.2094C189.163 24.3801 189.085 24.5376 188.961 24.656C188.922 24.6925 188.881 24.725 188.836 24.7525C188.749 24.8058 188.653 24.8384 188.555 24.8516C188.271 24.8906 187.974 24.7631 187.816 24.4909C186.436 22.0961 182.778 15.1497 186.78 15.1838C190.092 15.2123 189.365 22.6951 189.184 24.2094Z"
     fill="#00C5BB"
     id="path2805" />
  <path
     fill-rule="evenodd"
     clip-rule="evenodd"
     d="M188.836 24.7526C188.749 24.8059 188.653 24.8384 188.555 24.8516L187.217 19.0553C187.199 18.9771 187.249 18.8979 187.328 18.878C187.407 18.8612 187.487 18.9095 187.505 18.9898L188.836 24.7526Z"
     fill="#009C97"
     id="path2807" />
  <path
     fill-rule="evenodd"
     clip-rule="evenodd"
     d="M189.532 33.9168C189.226 33.9909 188.927 33.8634 188.762 33.6302C188.704 33.551 188.662 33.4596 188.641 33.3594C188.629 33.3086 188.624 33.2569 188.624 33.202C188.624 33.0313 188.684 32.8646 188.793 32.733C189.765 31.557 194.682 25.8699 196.987 28.2479C199.773 31.1223 192.22 33.2629 189.532 33.9168Z"
     fill="#00C5BB"
     id="path2809" />
  <path
     fill-rule="evenodd"
     clip-rule="evenodd"
     d="M193.882 30.6025L188.763 33.6302C188.705 33.551 188.663 33.4596 188.642 33.3594L193.731 30.3474C193.803 30.3058 193.893 30.3292 193.934 30.3998C193.975 30.47 193.952 30.5609 193.882 30.6025Z"
     fill="#009C97"
     id="path2811" />
  <path
     fill-rule="evenodd"
     clip-rule="evenodd"
     d="M188.624 36.0163C188.624 36.0712 188.619 36.123 188.607 36.1738C188.585 36.2739 188.543 36.3664 188.486 36.4461C188.318 36.6793 188.021 36.8052 187.715 36.7311C185.029 36.0788 177.475 33.9366 180.261 31.0622C182.565 28.6843 187.482 34.3714 188.455 35.5474C188.564 35.6801 188.624 35.8457 188.624 36.0163Z"
     fill="#00C5BB"
     id="path2813" />
  <path
     fill-rule="evenodd"
     clip-rule="evenodd"
     d="M188.606 36.1739C188.584 36.2739 188.542 36.3665 188.485 36.4462L183.365 33.4169C183.296 33.3753 183.272 33.2853 183.314 33.2137C183.355 33.1447 183.446 33.1213 183.516 33.1613L188.606 36.1739Z"
     fill="#009C97"
     id="path2815" />
  <path
     fill-rule="evenodd"
     clip-rule="evenodd"
     d="M189.532 39.6064C189.226 39.6806 188.927 39.5531 188.762 39.3199C188.704 39.2407 188.662 39.1492 188.641 39.0491C188.629 38.9983 188.624 38.9459 188.624 38.8916C188.624 38.7199 188.684 38.5543 188.793 38.4227C189.765 37.2467 194.682 31.5587 196.987 33.9375C199.773 36.8104 192.22 38.9526 189.532 39.6064Z"
     fill="#00C5BB"
     id="path2817" />
  <path
     fill-rule="evenodd"
     clip-rule="evenodd"
     d="M193.882 36.2913L188.763 39.3205C188.705 39.2413 188.663 39.1499 188.642 39.0497L193.731 36.0378C193.803 35.9962 193.893 36.0195 193.934 36.0895C193.975 36.1597 193.952 36.2496 193.882 36.2913Z"
     fill="#009C97"
     id="path2819" />
  <path
     fill-rule="evenodd"
     clip-rule="evenodd"
     d="M139.842 50.6707H140.281V50.0144L123.654 50.0143C123.103 50.0143 122.603 50.2368 122.242 50.5989C121.881 50.9596 121.657 51.4584 121.657 52.0107C121.657 53.1135 122.551 54.0071 123.654 54.0071H140.281V53.4387L139.842 53.4388V50.6707Z"
     fill="#FF5177"
     id="path2821" />
  <path
     fill-rule="evenodd"
     clip-rule="evenodd"
     d="M139.955 50.6707V53.4384L124.698 53.4383C123.953 53.4383 123.35 52.8185 123.35 52.0549C123.35 51.6719 123.501 51.3269 123.745 51.0755C123.99 50.8256 124.326 50.6706 124.698 50.6706L139.955 50.6707Z"
     fill="white"
     id="path2823" />
  <path
     fill-rule="evenodd"
     clip-rule="evenodd"
     d="M139.956 51.3713V51.7945L125.094 51.7943C124.978 51.7943 124.883 51.6994 124.883 51.5835V51.5826C124.883 51.4667 124.978 51.3717 125.094 51.3717H139.956V51.3713Z"
     fill="#C8DFF7"
     id="path2825" />
  <path
     fill-rule="evenodd"
     clip-rule="evenodd"
     d="M139.956 52.4132V52.8364L125.094 52.8362C124.978 52.8362 124.883 52.7413 124.883 52.6254V52.6239C124.883 52.508 124.978 52.413 125.094 52.413L139.956 52.4132Z"
     fill="#C8DFF7"
     id="path2827" />
  <path
     fill-rule="evenodd"
     clip-rule="evenodd"
     d="M139.842 46.8633H140.281V46.207L123.654 46.2069C123.103 46.2069 122.603 46.4294 122.242 46.7916C121.881 47.1523 121.657 47.6511 121.657 48.2033C121.657 49.3062 122.551 50.1998 123.654 50.1998H140.281V49.6313L139.842 49.6314V46.8633Z"
     fill="#4178E6"
     id="path2829" />
  <path
     fill-rule="evenodd"
     clip-rule="evenodd"
     d="M139.955 46.8634V49.631L124.698 49.6309C123.953 49.6309 123.35 49.0111 123.35 48.2476C123.35 47.8645 123.501 47.5195 123.745 47.2681C123.99 47.0182 124.326 46.8633 124.698 46.8633L139.955 46.8634Z"
     fill="white"
     id="path2831" />
  <path
     fill-rule="evenodd"
     clip-rule="evenodd"
     d="M139.956 47.5639V47.9871L125.094 47.987C124.978 47.987 124.883 47.8921 124.883 47.7762V47.7746C124.883 47.6587 124.978 47.5638 125.094 47.5638L139.956 47.5639Z"
     fill="#C8DFF7"
     id="path2833" />
  <path
     fill-rule="evenodd"
     clip-rule="evenodd"
     d="M139.956 48.6058V49.029L125.094 49.0289C124.978 49.0289 124.883 48.9339 124.883 48.8181V48.8165C124.883 48.7006 124.978 48.6057 125.094 48.6057L139.956 48.6058Z"
     fill="#C8DFF7"
     id="path2835" />
  <path
     fill-rule="evenodd"
     clip-rule="evenodd"
     d="M159.067 46.6779H159.506V46.0216L142.879 46.0215C142.328 46.0215 141.828 46.244 141.467 46.6061C141.107 46.9668 140.883 47.4656 140.883 48.0179C140.883 49.1207 141.776 50.0143 142.879 50.0143H159.506V49.4459L159.067 49.446V46.6779Z"
     fill="#FFC428"
     id="path2837" />
  <path
     fill-rule="evenodd"
     clip-rule="evenodd"
     d="M159.181 46.6779V49.445H143.923C143.179 49.445 142.575 48.8252 142.575 48.0622C142.575 47.6792 142.726 47.3342 142.97 47.0828C143.215 46.8329 143.551 46.6779 143.924 46.6779H159.181Z"
     fill="white"
     id="path2839" />
  <path
     fill-rule="evenodd"
     clip-rule="evenodd"
     d="M159.181 47.3785V47.8017L144.319 47.8016C144.203 47.8016 144.108 47.7066 144.108 47.5908V47.5892C144.108 47.4733 144.203 47.3784 144.319 47.3784L159.181 47.3785Z"
     fill="#C8DFF7"
     id="path2841" />
  <path
     fill-rule="evenodd"
     clip-rule="evenodd"
     d="M159.181 48.4203V48.8435L144.319 48.8434C144.203 48.8434 144.108 48.7485 144.108 48.6326V48.6316C144.108 48.5158 144.203 48.4208 144.319 48.4208H159.181V48.4203Z"
     fill="#C8DFF7"
     id="path2843" />
  <path
     fill-rule="evenodd"
     clip-rule="evenodd"
     d="M159.067 50.6707H159.506V50.0144L142.879 50.0143C142.328 50.0143 141.828 50.2368 141.467 50.5989C141.107 50.9596 140.883 51.4584 140.883 52.0107C140.883 53.1135 141.776 54.0071 142.879 54.0071H159.506V53.4387L159.067 53.4388V50.6707Z"
     fill="#00C5BB"
     id="path2845" />
  <path
     fill-rule="evenodd"
     clip-rule="evenodd"
     d="M159.181 50.6707V53.4384L143.923 53.4383C143.179 53.4383 142.575 52.8185 142.575 52.0549C142.575 51.6719 142.726 51.3269 142.97 51.0755C143.215 50.8256 143.551 50.6706 143.924 50.6706L159.181 50.6707Z"
     fill="white"
     id="path2847" />
  <path
     fill-rule="evenodd"
     clip-rule="evenodd"
     d="M159.181 51.3713V51.7945L144.319 51.7943C144.203 51.7943 144.108 51.6994 144.108 51.5835V51.5826C144.108 51.4667 144.203 51.3717 144.319 51.3717H159.181V51.3713Z"
     fill="#C8DFF7"
     id="path2849" />
  <path
     fill-rule="evenodd"
     clip-rule="evenodd"
     d="M159.181 52.4132V52.8364L144.319 52.8362C144.203 52.8362 144.108 52.7413 144.108 52.6254V52.6239C144.108 52.508 144.203 52.413 144.319 52.413L159.181 52.4132Z"
     fill="#C8DFF7"
     id="path2851" />
  <path
     d="M119.246 177.149C169.734 177.149 210.663 175.129 210.663 172.637C210.663 170.145 169.734 168.124 119.246 168.124C68.758 168.124 27.8293 170.145 27.8293 172.637C27.8293 175.129 68.758 177.149 119.246 177.149Z"
     fill="#C8DFF7"
     id="path2853" />
  <path
     fill-rule="evenodd"
     clip-rule="evenodd"
     d="M199.622 143.233H43.0011C40.0654 130.916 29.3872 83.1312 39.6707 79.9969C51.4827 76.3956 102.763 74.9555 119.617 79.9969C119.993 80.1091 120.354 80.2488 120.701 80.416C120.848 80.4866 120.992 80.5612 121.135 80.6405C121.403 80.4301 121.687 80.259 121.989 80.129C122.107 80.0786 122.23 80.034 122.353 79.9964C134.165 76.3952 185.446 74.955 202.299 79.9964C216.946 84.3784 203.416 131.077 199.622 143.233Z"
     fill="#4178E6"
     id="path2855" />
  <path
     fill-rule="evenodd"
     clip-rule="evenodd"
     d="M44.4014 116.471C44.1814 116.471 43.9878 116.312 43.9518 116.088C43.5556 113.615 43.0303 110.942 42.5218 108.356C40.2866 96.9878 37.9757 85.2322 44.8459 82.9797C53.2579 80.2213 89.8683 80.938 91.4228 80.9696C91.6748 80.9747 91.8745 81.183 91.8694 81.4344C91.8643 81.6859 91.654 81.8911 91.4046 81.881C91.0251 81.8733 53.3955 81.1352 45.1303 83.846C39.0262 85.8475 41.2584 97.2008 43.4168 108.18C43.9269 110.773 44.4536 113.455 44.8524 115.943C44.8921 116.192 44.7229 116.425 44.4744 116.466C44.4496 116.469 44.4258 116.471 44.4014 116.471Z"
     fill="#285FCF"
     id="path2857" />
  <path
     fill-rule="evenodd"
     clip-rule="evenodd"
     d="M88.8501 133.907C80.5651 133.907 71.7376 133.805 64.3655 133.483C64.114 133.472 63.9189 133.26 63.9302 133.008C63.9413 132.757 64.1532 132.564 64.4051 132.573C78.7709 133.199 98.6926 132.994 109.289 132.816C111.213 132.784 112.993 132.008 114.303 130.63C115.572 129.294 116.237 127.554 116.175 125.73C115.738 112.896 114.008 91.9948 113.991 91.7856C113.97 91.5346 114.156 91.3147 114.407 91.2933C114.659 91.2746 114.878 91.4589 114.899 91.7099C114.917 91.9197 116.648 112.844 117.086 125.699C117.157 127.769 116.403 129.744 114.964 131.258C113.485 132.814 111.475 133.691 109.305 133.728C104.132 133.814 96.7368 133.907 88.8501 133.907Z"
     fill="#285FCF"
     id="path2859" />
  <path
     fill-rule="evenodd"
     clip-rule="evenodd"
     d="M199.769 116.471C199.745 116.471 199.721 116.469 199.696 116.465C199.448 116.425 199.279 116.191 199.318 115.943C199.717 113.454 200.245 110.773 200.754 108.18C202.913 97.2007 205.145 85.8475 199.041 83.846C190.775 81.1353 153.145 81.8734 152.766 81.881C152.763 81.881 152.76 81.881 152.757 81.881C152.51 81.881 152.307 81.6829 152.301 81.4344C152.296 81.183 152.496 80.9747 152.748 80.9696C154.303 80.9376 190.913 80.2213 199.325 82.9797C206.195 85.2322 203.884 96.9878 201.649 108.356C201.141 110.941 200.615 113.615 200.219 116.087C200.183 116.311 199.989 116.471 199.769 116.471Z"
     fill="#285FCF"
     id="path2861" />
  <path
     fill-rule="evenodd"
     clip-rule="evenodd"
     d="M155.321 133.907C147.433 133.907 140.04 133.814 134.867 133.727C132.696 133.69 130.687 132.813 129.207 131.257C127.768 129.743 127.014 127.769 127.085 125.699C127.523 112.843 129.255 91.9191 129.272 91.7093C129.293 91.4583 129.515 91.2729 129.765 91.2927C130.016 91.3135 130.202 91.534 130.181 91.785C130.164 91.9948 128.434 112.897 127.996 125.73C127.934 127.553 128.599 129.294 129.869 130.629C131.178 132.007 132.959 132.784 134.882 132.816C145.479 132.993 165.401 133.198 179.767 132.572C180.018 132.565 180.231 132.756 180.242 133.008C180.253 133.259 180.058 133.472 179.807 133.483C172.434 133.804 163.605 133.907 155.321 133.907Z"
     fill="#285FCF"
     id="path2863" />
  <path
     fill-rule="evenodd"
     clip-rule="evenodd"
     d="M122.001 143.233H120.705C121.882 117.911 121.065 90.2326 120.702 80.416C120.848 80.4866 120.993 80.5613 121.136 80.6405C121.403 80.4301 121.687 80.259 121.989 80.129C122.348 89.7443 123.186 117.674 122.001 143.233Z"
     fill="#285FCF"
     id="path2865" />
  <path
     fill-rule="evenodd"
     clip-rule="evenodd"
     d="M203.451 143.764V151.49C203.451 155.362 200.311 158.503 196.439 158.503L44.9542 158.503C41.0823 158.503 37.9418 155.363 37.9418 151.49V143.763C37.9418 139.892 41.0817 136.751 44.9542 136.751L196.439 136.751C200.311 136.751 203.451 139.892 203.451 143.764Z"
     fill="#285FCF"
     id="path2867" />
  <path
     d="M117.436 143.826C154.743 143.826 184.986 142.692 184.986 141.293C184.986 139.893 154.743 138.759 117.436 138.759C80.1299 138.759 49.8871 139.893 49.8871 141.293C49.8871 142.692 80.1299 143.826 117.436 143.826Z"
     fill="#1E41B9"
     id="path2869" />
  <path
     d="M194.057 154.158H56.6903V158.503H194.057V154.158Z"
     fill="#1E41B9"
     id="path2871" />
  <path
     fill-rule="evenodd"
     clip-rule="evenodd"
     d="M54.0092 158.502C57.331 152.744 56.5156 142.539 55.6871 136.751H56.9646C59.6499 144.188 60.5267 154.702 60.766 158.502H54.0092Z"
     fill="#1E41B9"
     id="path2873" />
  <path
     fill-rule="evenodd"
     clip-rule="evenodd"
     d="M189.976 158.502C186.654 152.744 187.469 142.539 188.298 136.751H187.02C184.335 144.188 183.458 154.702 183.219 158.502H189.976Z"
     fill="#1E41B9"
     id="path2875" />
  <path
     fill-rule="evenodd"
     clip-rule="evenodd"
     d="M62.2015 173.122H56.9758C56.0706 173.122 55.2592 172.563 54.9366 171.717L51.1668 161.847L49.8892 158.501H63.6895L63.8784 161.847L64.3823 170.816C64.4515 172.067 63.4553 173.122 62.2015 173.122Z"
     fill="#1E41B9"
     id="path2877" />
  <path
     fill-rule="evenodd"
     clip-rule="evenodd"
     d="M63.6886 158.502L63.8775 161.847H51.1658L49.8888 158.502H63.6886Z"
     fill="#1E41B9"
     fill-opacity="0.8"
     id="path2879" />
  <path
     fill-rule="evenodd"
     clip-rule="evenodd"
     d="M193.984 158.502L192.706 161.847L188.936 171.717C188.613 172.563 187.802 173.122 186.897 173.122H181.67C180.417 173.122 179.421 172.068 179.491 170.816L179.995 161.847L180.183 158.502H193.984Z"
     fill="#1E41B9"
     id="path2881" />
  <path
     fill-rule="evenodd"
     clip-rule="evenodd"
     d="M193.984 158.502L192.707 161.847H179.996L180.183 158.502H193.984Z"
     fill="#1E41B9"
     fill-opacity="0.8"
     id="path2883" />
  <path
     fill-rule="evenodd"
     clip-rule="evenodd"
     d="M51.4453 116.019C50.3154 110.957 46.4211 106.94 41.3751 105.741C37.4411 104.806 32.7909 104.576 28.9393 106.861C20.4404 111.903 25.7703 150.22 33.2608 156.99C40.7513 163.76 50.6074 162.848 54.5795 157.854C59.621 151.516 54.4348 129.416 51.4453 116.019Z"
     fill="#285FCF"
     id="path2885" />
  <path
     fill-rule="evenodd"
     clip-rule="evenodd"
     d="M44.1116 115.379C43.9003 115.379 43.7108 115.232 43.6656 115.016C43.6203 114.803 42.5083 109.893 36.741 109.893C36.6048 109.893 36.4677 109.896 36.3265 109.901C30.1661 110.144 29.3837 114.942 29.3766 114.99C29.3395 115.239 29.1083 115.413 28.8589 115.374C28.61 115.337 28.4382 115.106 28.4749 114.857C28.4835 114.799 28.6979 113.42 29.7763 112.006C30.766 110.709 32.6994 109.133 36.2905 108.991C39.8917 108.848 41.9521 110.441 43.0439 111.802C44.2234 113.272 44.545 114.768 44.5577 114.831C44.609 115.077 44.451 115.319 44.2046 115.37C44.1736 115.376 44.1426 115.379 44.1116 115.379Z"
     fill="#1E41B9"
     id="path2887" />
  <path
     fill-rule="evenodd"
     clip-rule="evenodd"
     d="M44.553 159.22C42.4626 159.22 40.2508 158.537 38.1345 157.181C35.3598 155.403 33.0803 152.593 31.3593 148.829C29.9949 145.845 28.9752 142.255 28.3291 138.159C27.2323 131.205 27.5966 125.1 27.6006 125.039C27.6163 124.788 27.8348 124.596 28.0837 124.612C28.3347 124.628 28.5256 124.844 28.5104 125.095C28.5069 125.155 28.1488 131.176 29.2323 138.033C30.2238 144.307 32.6587 152.589 38.6261 156.413C42.2274 158.721 46.0983 158.93 48.9817 156.974C53.0589 154.206 54.4494 147.737 52.7968 139.224C52.749 138.978 52.9101 138.738 53.1575 138.69C53.4048 138.642 53.6436 138.803 53.6918 139.051C55.4175 147.938 53.8874 154.746 49.4937 157.728C48.0247 158.725 46.3325 159.22 44.553 159.22Z"
     fill="#1E41B9"
     id="path2889" />
  <path
     fill-rule="evenodd"
     clip-rule="evenodd"
     d="M42.1197 117.593C42.1197 117.593 41.5436 111.975 35.7814 112.551C30.0197 113.128 30.1309 122.416 35.3491 123.499C42.9842 125.083 42.1197 117.593 42.1197 117.593Z"
     fill="#1E41B9"
     id="path2891" />
  <path
     fill-rule="evenodd"
     clip-rule="evenodd"
     d="M192.611 116.019C193.741 110.957 197.635 106.94 202.681 105.741C206.615 104.806 211.265 104.576 215.117 106.861C223.616 111.903 218.286 150.22 210.796 156.99C203.305 163.76 193.449 162.848 189.477 157.854C184.435 151.516 189.622 129.416 192.611 116.019Z"
     fill="#285FCF"
     id="path2893" />
  <path
     fill-rule="evenodd"
     clip-rule="evenodd"
     d="M214.851 115.38C214.64 115.38 214.45 115.232 214.405 115.016C214.359 114.798 213.198 109.664 207.066 109.901C200.906 110.144 200.124 114.942 200.116 114.99C200.079 115.239 199.849 115.413 199.599 115.374C199.35 115.337 199.178 115.106 199.215 114.857C199.223 114.799 199.438 113.42 200.516 112.006C201.506 110.709 203.439 109.133 207.031 108.991C210.633 108.848 212.692 110.441 213.784 111.802C214.964 113.272 215.285 114.768 215.298 114.831C215.349 115.077 215.191 115.319 214.944 115.37C214.913 115.376 214.882 115.38 214.851 115.38Z"
     fill="#1E41B9"
     id="path2895" />
  <path
     fill-rule="evenodd"
     clip-rule="evenodd"
     d="M199.711 158.61C197.771 158.61 195.983 158.021 194.514 156.854C190.564 153.716 189.371 146.931 191.153 137.749C191.201 137.502 191.441 137.34 191.688 137.388C191.934 137.436 192.096 137.675 192.048 137.922C190.334 146.754 191.411 153.224 195.081 156.14C197.424 158.002 200.71 158.203 204.095 156.692C214.219 152.173 215.299 125.322 215.309 125.051C215.318 124.8 215.523 124.607 215.781 124.612C216.032 124.621 216.229 124.833 216.22 125.084C216.217 125.153 215.955 132.047 214.406 139.424C212.307 149.428 208.963 155.518 204.467 157.525C202.84 158.25 201.229 158.61 199.711 158.61Z"
     fill="#1E41B9"
     id="path2897" />
  <path
     fill-rule="evenodd"
     clip-rule="evenodd"
     d="M201.937 117.593C201.937 117.593 202.513 111.975 208.275 112.551C214.036 113.128 213.925 122.416 208.707 123.499C201.072 125.083 201.937 117.593 201.937 117.593Z"
     fill="#1E41B9"
     id="path2899" />
  <path
     fill-rule="evenodd"
     clip-rule="evenodd"
     d="M215.569 107.172C212.454 109.663 209.855 106.16 204.113 106.139C203.87 106.138 203.621 106.143 203.367 106.156C203.27 106.16 203.172 106.166 203.073 106.173C196.593 106.616 194.645 116.429 192.037 112.216C190.032 108.975 190.841 100.765 190.841 100.765C190.841 100.765 197.899 87.8745 202.569 86.4094C207.239 84.9443 210.013 84.9352 213.741 88.5374C218.136 92.7843 218.865 104.536 215.569 107.172Z"
     fill="#FF5177"
     id="path2901" />
  <path
     fill-rule="evenodd"
     clip-rule="evenodd"
     d="M204.113 106.139C203.87 106.138 203.621 106.143 203.367 106.156C200.472 103.621 194.651 103.071 194.578 103.064C194.435 103.051 194.329 102.925 194.341 102.782C194.355 102.639 194.48 102.534 194.624 102.545C194.945 102.573 201.259 103.171 204.113 106.139Z"
     fill="#DA234F"
     id="path2903" />
  <path
     fill-rule="evenodd"
     clip-rule="evenodd"
     d="M207.789 100.766C207.678 100.766 207.576 100.693 207.544 100.581C205.731 94.1898 197.953 92.7009 197.875 92.6866C197.738 92.6617 197.646 92.5291 197.671 92.391C197.696 92.2534 197.828 92.1624 197.967 92.1868C198.049 92.2021 200.029 92.5724 202.27 93.7688C205.253 95.3614 207.246 97.6686 208.033 100.442C208.071 100.577 207.993 100.718 207.858 100.756C207.835 100.762 207.812 100.766 207.789 100.766Z"
     fill="#DA234F"
     id="path2905" />
  <path
     fill-rule="evenodd"
     clip-rule="evenodd"
     d="M212.962 96.6747C212.888 96.6747 212.815 96.6426 212.765 96.5807C208.379 91.1751 199.809 92.4516 199.724 92.4649C199.585 92.4868 199.455 92.3922 199.433 92.2536C199.411 92.1149 199.506 91.9849 199.644 91.9631C199.735 91.9488 201.898 91.6161 204.656 91.9702C208.323 92.4406 211.264 93.9245 213.16 96.2603C213.248 96.369 213.231 96.5291 213.122 96.6175C213.075 96.6563 213.019 96.6747 212.962 96.6747Z"
     fill="#DA234F"
     id="path2907" />
  <path
     fill-rule="evenodd"
     clip-rule="evenodd"
     d="M90.4758 107.115C90.4758 107.115 86.8243 108.73 66.8275 105.717L44.5507 104.884L43.2888 98.2388C53.9446 95.5637 68.6883 93.7151 84.1173 92.0047C91.629 91.1721 96.5577 99.8381 91.8511 105.752C91.4542 106.251 90.998 106.709 90.4758 107.115Z"
     fill="#1C2836"
     id="path2909" />
  <path
     fill-rule="evenodd"
     clip-rule="evenodd"
     d="M47.1098 105.023L39.0112 104.762L38.0074 98.9708L42.8776 98.4663L44.0009 98.351L46.5612 98.0858L47.1098 105.023Z"
     fill="#F68E74"
     id="path2911" />
  <path
     fill-rule="evenodd"
     clip-rule="evenodd"
     d="M38.0075 98.9709C38.0075 98.9709 31.2156 94.1343 29.1958 90.4314C27.176 86.7286 26.2311 85.3692 25.5016 85.4124C24.7717 85.4556 25.1354 86.5132 25.5051 87.9254C25.8303 89.169 26.3291 90.7626 26.9656 92.8337C27.6016 94.9047 28.9494 97.3798 29.4812 98.986C29.9419 100.378 30.8 104.208 32.2198 105.705C34.3061 107.905 40.3448 104.619 40.3448 104.619L38.0075 98.9709V98.9709Z"
     fill="#F68E74"
     id="path2913" />
  <path
     fill-rule="evenodd"
     clip-rule="evenodd"
     d="M44.9882 104.955L42.3547 104.87L42.3197 98.5233L44.0012 98.3511L44.9882 104.955Z"
     fill="#1C2836"
     id="path2915" />
  <path
     fill-rule="evenodd"
     clip-rule="evenodd"
     d="M42.6277 97.4305L43.9104 105.926C45.0467 106.534 46.2589 106.502 47.5289 105.985L46.4367 96.793C45.0051 96.5838 43.8931 96.699 42.6277 97.4305Z"
     fill="#3A4A59"
     id="path2917" />
  <path
     fill-rule="evenodd"
     clip-rule="evenodd"
     d="M84.0662 92.0148C84.0662 92.0148 102.273 90.5005 111.189 93.0013C120.106 95.5021 121.76 106.132 86.9866 107.473L84.0662 92.0148Z"
     fill="#1C2836"
     id="path2919" />
  <path
     fill-rule="evenodd"
     clip-rule="evenodd"
     d="M86.0188 105.075C84.2885 105.075 82.4593 105.014 80.5308 104.892C73.7155 104.458 68.0513 103.366 67.5803 103.274L45.1267 103.246C44.9514 103.245 44.8092 103.103 44.8097 102.928C44.8097 102.752 44.9519 102.611 45.1272 102.611C45.1272 102.611 45.1272 102.611 45.1277 102.611L67.6122 102.639C67.633 102.639 67.6538 102.641 67.6742 102.645C67.7321 102.656 73.5365 103.81 80.5794 104.258C89.8652 104.849 97.0788 103.95 101.44 101.66C101.595 101.578 101.787 101.638 101.869 101.794C101.951 101.949 101.891 102.141 101.735 102.222C98.1209 104.12 92.8479 105.075 86.0188 105.075Z"
     fill="#3A4A59"
     id="path2921" />
  <path
     fill-rule="evenodd"
     clip-rule="evenodd"
     d="M82.5029 131.189L76.6288 136.769L71.8019 133.415L74.8636 129.595L75.5708 128.715L77.1805 126.706L82.5029 131.189Z"
     fill="#F68E74"
     id="path2923" />
  <path
     fill-rule="evenodd"
     clip-rule="evenodd"
     d="M71.8018 133.415C71.8018 133.415 63.5884 134.851 59.534 133.687C55.4797 132.524 53.8486 132.241 53.3669 132.791C52.8848 133.34 53.8932 133.825 55.1576 134.554C56.2711 135.196 57.7556 135.96 59.6768 136.962C61.598 137.964 64.3056 138.744 65.8226 139.493C67.1374 140.143 70.4657 142.223 72.5287 142.264C75.5605 142.325 77.4629 135.719 77.4629 135.719L71.8018 133.415V133.415Z"
     fill="#F68E74"
     id="path2925" />
  <path
     fill-rule="evenodd"
     clip-rule="evenodd"
     d="M80.9632 132.651L79.2146 134.312L74.5116 130.033L75.5703 128.715L80.9632 132.651Z"
     fill="#1C2836"
     id="path2927" />
  <path
     fill-rule="evenodd"
     clip-rule="evenodd"
     d="M145.375 134.341C145.338 134.462 145.297 134.581 145.252 134.699C145.168 134.936 145.072 135.165 144.963 135.39C144.904 135.514 144.841 135.636 144.774 135.757C143.002 138.98 138.846 140.789 131.827 138.591C124.639 136.339 114.286 120.278 107.616 108.712C107.182 107.959 106.764 107.227 106.363 106.518C106.241 106.301 106.121 106.088 106.002 105.876C105.83 105.572 105.663 105.272 105.499 104.977C105.378 104.761 105.26 104.548 105.144 104.338C103.535 101.437 102.312 99.1201 101.64 97.8257C101.065 96.7188 100.62 95.5483 100.349 94.3297C99.8831 92.2282 100.036 90.665 100.65 89.5921C100.729 89.4519 100.817 89.3213 100.913 89.1979C100.915 89.1954 100.916 89.1938 100.917 89.1908C103.368 86.0301 110.744 88.2718 117.129 94.0849C124.456 100.757 143.777 122.244 145.425 128.7C145.919 130.63 145.92 132.61 145.375 134.341Z"
     fill="#1C2836"
     id="path2929" />
  <path
     fill-rule="evenodd"
     clip-rule="evenodd"
     d="M112.636 97.9083C112.636 97.9083 113.46 103.403 97.664 113.842L81.4553 131.699L75.5488 128.402C80.6029 117.96 89.2877 104.614 98.4123 90.9167C100.806 87.3236 105.919 86.8166 108.93 89.9108C111.01 92.0492 112.75 94.7867 112.636 97.9083Z"
     fill="#1C2836"
     id="path2931" />
  <path
     fill-rule="evenodd"
     clip-rule="evenodd"
     d="M145.251 134.699C145.167 134.936 145.071 135.165 144.963 135.39C144.904 135.514 144.84 135.636 144.773 135.757C144.084 136.094 143.319 136.366 142.502 136.558C141.57 136.779 140.611 136.887 139.641 136.887C136.17 136.887 132.549 135.497 129.365 132.881C121.83 126.691 110.425 105.103 108.415 101.231C107.636 102.531 106.62 103.793 105.499 104.977C101.539 109.161 96.2764 112.369 95.6501 112.744L80.9303 129.868C80.8068 130.013 80.5895 130.029 80.4457 129.906C80.3029 129.782 80.2861 129.565 80.4101 129.421L95.1654 112.254C95.1904 112.226 95.2188 112.201 95.2518 112.182C95.3259 112.138 101.041 108.72 105.145 104.338C106.333 103.069 107.386 101.72 108.128 100.348C108.189 100.237 108.305 100.169 108.433 100.168C108.56 100.17 108.677 100.242 108.735 100.357C108.866 100.609 121.799 125.777 129.801 132.351C133.709 135.56 138.28 136.851 142.345 135.889C143.426 135.633 144.422 135.219 145.251 134.699Z"
     fill="#3A4A59"
     id="path2933" />
  <path
     fill-rule="evenodd"
     clip-rule="evenodd"
     d="M73.8196 129.093L81.1738 133.534C82.3681 133.049 83.1174 132.096 83.531 130.788L75.7627 125.756C74.6873 126.723 74.0655 127.652 73.8196 129.093Z"
     fill="#3A4A59"
     id="path2935" />
  <path
     fill-rule="evenodd"
     clip-rule="evenodd"
     d="M163.704 99.8548L155.728 105.006L159.686 107.784L166.189 101.855L163.704 99.8548Z"
     fill="#F68E74"
     id="path2937" />
  <path
     fill-rule="evenodd"
     clip-rule="evenodd"
     d="M176.302 91.7471L161.634 98.6874L165.549 104.182C165.549 104.182 173.25 97.3758 176.302 91.7471Z"
     fill="#FF9D14"
     id="path2939" />
  <path
     fill-rule="evenodd"
     clip-rule="evenodd"
     d="M184.477 94.3633C184.477 94.3633 180.041 92.0255 177.157 91.613C174.272 91.201 167.855 101.518 158.705 104.845C147.624 108.875 140.162 111.21 135.217 111.347C130.272 111.484 142.542 121.832 142.267 129.25C141.993 137.08 139.969 141.744 148.724 140.102C159.713 138.041 175.234 129.799 182.102 123.481C188.97 117.162 192.542 113.865 193.228 110.019C193.915 106.173 191.855 100.404 191.855 100.404C191.855 100.404 186.165 99.1735 184.477 94.3633Z"
     fill="#FFC428"
     id="path2941" />
  <path
     fill-rule="evenodd"
     clip-rule="evenodd"
     d="M147.151 128.488C147.1 128.488 147.05 128.473 147.005 128.442C146.89 128.361 146.863 128.203 146.943 128.088C151.37 121.783 150.276 110.993 150.264 110.885C150.249 110.745 150.35 110.62 150.489 110.605C150.628 110.59 150.754 110.692 150.769 110.831C150.781 110.941 151.894 121.92 147.359 128.38C147.31 128.451 147.231 128.488 147.151 128.488Z"
     fill="#FF9D14"
     id="path2943" />
  <path
     fill-rule="evenodd"
     clip-rule="evenodd"
     d="M188.763 102.238C188.748 102.238 188.732 102.236 188.717 102.233C185.228 101.579 183.305 99.772 182.307 98.3709C181.222 96.8478 180.969 95.4921 180.958 95.4351C180.934 95.297 181.025 95.1649 181.164 95.14C181.301 95.1151 181.433 95.207 181.458 95.3448C181.461 95.36 181.708 96.6646 182.734 98.0956C184.108 100.011 186.152 101.236 188.81 101.734C188.948 101.76 189.039 101.892 189.013 102.031C188.99 102.153 188.883 102.238 188.763 102.238Z"
     fill="#FF9D14"
     id="path2945" />
  <path
     fill-rule="evenodd"
     clip-rule="evenodd"
     d="M161.634 122.773C161.615 122.773 161.595 122.771 161.576 122.766C161.439 122.734 161.355 122.597 161.387 122.46C163.454 113.764 167.097 107.398 169.788 103.589C172.709 99.4545 175.181 97.3463 175.206 97.3255C175.313 97.235 175.473 97.2483 175.564 97.3555C175.655 97.4626 175.642 97.6227 175.534 97.7136C175.51 97.7339 173.077 99.8112 170.192 103.899C167.53 107.669 163.928 113.97 161.881 122.579C161.853 122.695 161.749 122.773 161.634 122.773Z"
     fill="#FF9D14"
     id="path2947" />
  <path
     fill-rule="evenodd"
     clip-rule="evenodd"
     d="M160.123 122.773C159.991 122.773 159.88 122.671 159.87 122.537C159.321 114.987 163.983 107.486 164.03 107.411C164.104 107.293 164.261 107.257 164.38 107.332C164.499 107.406 164.534 107.563 164.46 107.682C164.413 107.755 159.84 115.119 160.377 122.5C160.387 122.641 160.282 122.762 160.142 122.772C160.136 122.773 160.129 122.773 160.123 122.773Z"
     fill="#FF9D14"
     id="path2949" />
  <path
     fill-rule="evenodd"
     clip-rule="evenodd"
     d="M175.371 115.494C175.324 115.494 175.277 115.481 175.235 115.454C175.116 115.379 175.081 115.222 175.156 115.103C175.188 115.053 178.403 110.052 183.212 107.326C187.418 104.943 190.994 107.174 191.029 107.196C191.148 107.272 191.182 107.429 191.107 107.547C191.031 107.665 190.874 107.7 190.756 107.624C190.707 107.594 187.385 105.546 183.463 107.768C178.762 110.432 175.616 115.327 175.585 115.376C175.537 115.452 175.455 115.494 175.371 115.494Z"
     fill="#FF9D14"
     id="path2951" />
  <path
     fill-rule="evenodd"
     clip-rule="evenodd"
     d="M187.046 120.322C186.688 120.723 186.33 121.114 185.97 121.496C185.011 122.519 184.056 123.47 183.111 124.353C171.197 135.474 160.867 135.677 162.047 132.135C162.797 129.883 164.882 127.333 167.367 124.908C167.594 124.687 167.824 124.465 168.058 124.246C170.838 121.632 173.991 119.214 176.302 117.544C176.726 117.237 177.12 116.957 177.479 116.705L177.585 116.631C178.836 115.753 179.629 115.239 179.629 115.239L187.046 120.322Z"
     fill="#F78E74"
     id="path2953" />
  <path
     fill-rule="evenodd"
     clip-rule="evenodd"
     d="M168.502 128.243C168.479 126.801 167.366 124.908 167.366 124.908C167.593 124.687 167.823 124.466 168.057 124.246C168.952 126.265 168.502 128.243 168.502 128.243Z"
     fill="#1C2836"
     id="path2955" />
  <path
     fill-rule="evenodd"
     clip-rule="evenodd"
     d="M167.678 125.541C167.678 125.541 165.824 121.558 161.954 116.015C158.451 110.997 157.58 106.359 154.159 106.473C150.737 106.586 158.338 125.246 159.711 129.286C161.085 133.325 162.339 134.781 165.46 134.134C168.58 133.485 167.678 125.541 167.678 125.541Z"
     fill="#F78E74"
     id="path2957" />
  <path
     fill-rule="evenodd"
     clip-rule="evenodd"
     d="M185.969 121.496C185.01 122.519 184.055 123.47 183.111 124.353L176.301 117.544L177.478 116.705L177.584 116.631L185.969 121.496Z"
     fill="#1C2836"
     id="path2959" />
  <path
     fill-rule="evenodd"
     clip-rule="evenodd"
     d="M175.37 116.064L185.398 123.618C185.398 123.618 193.777 116.888 193.365 112.217C192.953 107.547 189.244 106.998 187.87 106.998C186.496 106.998 181.689 106.585 175.37 116.064Z"
     fill="#FFC428"
     id="path2961" />
  <path
     fill-rule="evenodd"
     clip-rule="evenodd"
     d="M158.166 107.993C158.166 107.993 159.986 106.093 159.643 104.754C159.299 103.415 157.07 103.885 157.07 103.885L158.166 107.993Z"
     fill="#FF8780"
     id="path2963" />
  <path
     fill-rule="evenodd"
     clip-rule="evenodd"
     d="M153.552 110.491C153.552 110.491 149.491 108.167 150.874 105.818C152.66 102.785 156.506 103.341 158.017 103.888C159.767 104.521 158.035 108.524 158.702 110.491C158.702 110.491 155.188 112.095 153.552 110.491Z"
     fill="#F78E74"
     id="path2965" />
  <path
     fill-rule="evenodd"
     clip-rule="evenodd"
     d="M147.93 109.002C148.557 108.208 150.398 107.762 150.398 107.762C150.398 107.762 148.756 106.556 144.876 106.814C144.876 106.814 142.163 106.784 140.381 110.099C138.973 112.718 138.797 118.239 139.536 117.913C140.076 117.674 139.828 116.368 140.429 114.822C140.429 114.822 140.174 116.586 140.293 117.459C140.412 118.333 140.253 120.239 141.008 120.159C141.762 120.08 141.27 116.758 141.913 115.328C141.913 115.328 141.709 116.877 141.736 118.478C141.762 120.08 141.864 121.403 142.42 121.283C142.976 121.163 142.848 119.193 142.98 118.32C143.112 117.446 143.006 115.858 143.218 115.487C143.218 115.487 143.191 118.543 143.588 119.548C143.985 120.554 144.498 120.235 144.568 118.214C144.568 118.214 144.624 114.346 145.379 112.926C146.134 111.506 147.93 109.002 147.93 109.002Z"
     fill="#F78E74"
     id="path2967" />
  <path
     fill-rule="evenodd"
     clip-rule="evenodd"
     d="M147.691 109.28L147.555 110.031C147.555 110.031 147.493 111.41 147.185 112.496C146.878 113.583 147.074 114.45 146.865 115.333C146.657 116.216 145.634 115.506 145.805 113.759C145.975 112.012 144.933 111.056 144.933 111.056C144.933 111.056 145.742 108.931 147.691 109.28Z"
     fill="#F78E74"
     id="path2969" />
  <path
     fill-rule="evenodd"
     clip-rule="evenodd"
     d="M206.246 88.1992C206.246 88.1992 205.514 91.8152 201.541 92.3191C197.567 92.823 183.507 93.6673 181.886 90.1261C180.264 86.5848 186.852 79.229 190.742 76.5117C194.632 73.7939 199.576 76.9582 202.395 78.8139C205.213 80.6696 207.181 85.3508 206.246 88.1992Z"
     fill="#F78E74"
     id="path2971" />
  <path
     fill-rule="evenodd"
     clip-rule="evenodd"
     d="M190.252 81.6159C190.247 81.6159 190.244 81.6159 190.24 81.6154C190.205 81.6134 189.374 81.5554 189.007 80.8682C188.57 80.0468 189.26 79.3102 189.29 79.2791C189.363 79.2029 189.483 79.2004 189.559 79.2731C189.635 79.3458 189.638 79.4661 189.565 79.5418C189.543 79.5652 189.036 80.1128 189.343 80.6889C189.61 81.1898 190.256 81.235 190.263 81.235C190.368 81.2411 190.448 81.3316 190.441 81.4367C190.435 81.5382 190.352 81.6159 190.252 81.6159Z"
     fill="#1C2836"
     id="path2973" />
  <path
     fill-rule="evenodd"
     clip-rule="evenodd"
     d="M196.802 91.6561C196.802 91.6561 196.069 91.7531 194.96 91.0541C194.96 91.0541 195.116 92.1189 197.56 92.2144C197.56 92.2144 197.371 91.7612 196.802 91.6561Z"
     fill="#FF8780"
     id="path2975" />
  <path
     fill-rule="evenodd"
     clip-rule="evenodd"
     d="M197.919 92.6365C197.919 92.6365 192.543 98.4059 191.886 100.404C191.886 100.404 189.387 100.499 186.979 98.8097C184.858 97.3222 184.007 95.3289 183.835 94.8727C183.811 94.8108 183.8 94.7767 183.8 94.7767L187.55 92.4826C187.55 92.4826 189.402 91.0403 193.819 91.6474C194.999 91.808 196.36 92.1158 197.919 92.6365Z"
     fill="#F78E74"
     id="path2977" />
  <path
     fill-rule="evenodd"
     clip-rule="evenodd"
     d="M193.819 91.6474C193.162 92.7752 191.41 95.0154 187.733 95.3218C186.195 95.4493 184.895 95.2324 183.834 94.8727C183.811 94.8108 183.8 94.7767 183.8 94.7767L187.55 92.4826C187.55 92.4826 189.402 91.0403 193.819 91.6474Z"
     fill="#FF8780"
     id="path2979" />
  <path
     fill-rule="evenodd"
     clip-rule="evenodd"
     d="M207.577 89.2618C204.86 93.3122 197.92 92.6375 197.92 92.6375L196.802 91.6571C196.802 91.6571 199.874 91.7104 201.964 89.6057C204.055 87.501 201.554 85.4711 198.969 86.5648C198.765 86.6507 198.562 86.7588 198.361 86.8854C198.253 86.953 198.145 87.026 198.038 87.1043C195.831 88.7061 193.777 92.2875 190.851 93.247C187.518 94.3407 182.605 94.2264 181.071 91.5279C179.536 88.8309 182.841 83.7951 184.734 82.3702C184.734 82.3702 186.919 82.5891 187.384 84.519C187.849 86.449 187.594 86.8904 189.431 87.7007C191.27 88.511 194.299 87.53 195.827 85.8932C195.827 85.8932 195.539 85.1845 195.372 84.2355C195.34 84.0598 195.313 83.8774 195.294 83.6885C195.201 82.8223 195.248 81.847 195.683 81.0464C196.727 79.1266 192.634 79.4122 192.88 76.1264C192.88 76.1264 188.328 68.4454 193.044 66.4312C195.034 65.5808 196.751 69.27 196.751 69.27C196.503 65.9035 198.79 66.5222 199.457 67.4834C200.122 68.4456 200.142 72.3369 200.142 72.3369C200.142 72.3369 200.302 69.0175 201.315 68.9495C202.328 68.8804 203.369 70.5746 203.301 74.4892C203.232 78.4038 206.404 80.9327 206.404 80.9327C206.749 81.2349 207.055 81.5774 207.306 81.9604C208.161 83.2542 209.615 86.2245 207.577 89.2618Z"
     fill="#1C2836"
     id="path2981" />
  <path
     fill-rule="evenodd"
     clip-rule="evenodd"
     d="M182.739 86.4796C182.754 86.5136 182.777 86.5447 182.808 86.5695C182.854 86.6076 183.976 87.495 185.734 86.7514C185.857 86.699 185.915 86.5563 185.863 86.4329C185.862 86.4319 185.862 86.4304 185.861 86.4294C185.808 86.3084 185.667 86.2521 185.544 86.304C184.053 86.9348 183.124 86.2003 183.114 86.1927C183.01 86.1079 182.857 86.1236 182.772 86.2278C182.713 86.3013 182.703 86.3988 182.739 86.4796Z"
     fill="#3A4A59"
     id="path2983" />
  <path
     fill-rule="evenodd"
     clip-rule="evenodd"
     d="M192.125 80.9171C192.153 81.008 192.217 81.0882 192.308 81.1345C192.487 81.2239 192.703 81.1528 192.793 80.9755C193.147 80.277 193.449 78.6966 192.061 77.7151C191.898 77.5998 191.672 77.6384 191.557 77.8019C191.441 77.965 191.481 78.1905 191.644 78.3058C192.866 79.1694 192.177 80.5898 192.148 80.6493C192.104 80.7356 192.099 80.8312 192.125 80.9171Z"
     fill="#1C2836"
     id="path2985" />
  <path
     fill-rule="evenodd"
     clip-rule="evenodd"
     d="M188.623 78.5289C188.623 78.5289 186.135 79.5942 184.795 79.7892C183.455 79.9843 185.237 82.0336 185.237 82.0336L188.623 78.5289Z"
     fill="#F68E74"
     id="path2987" />
  <path
     fill-rule="evenodd"
     clip-rule="evenodd"
     d="M196.756 89.4539C196.764 89.4936 196.78 89.5322 196.804 89.5673C196.901 89.7111 197.096 89.7492 197.239 89.6521C198.98 88.4795 200.901 88.9754 200.92 88.9805C201.087 89.0258 201.259 88.9262 201.304 88.7591C201.349 88.5919 201.25 88.4197 201.082 88.3745C200.993 88.3501 198.865 87.801 196.889 89.1315C196.781 89.205 196.732 89.3335 196.756 89.4539Z"
     fill="#FF8780"
     id="path2989" />
  <path
     fill-rule="evenodd"
     clip-rule="evenodd"
     d="M198.551 88.8275C198.562 88.8809 198.587 88.9322 198.626 88.9758C198.762 89.1267 198.821 89.4829 198.829 89.6316C198.837 89.8044 198.986 89.9374 199.159 89.9288C199.332 89.9196 199.465 89.7723 199.456 89.5991C199.452 89.53 199.412 88.9098 199.092 88.5556C198.976 88.4271 198.777 88.4164 198.649 88.5328C198.563 88.6096 198.53 88.7229 198.551 88.8275Z"
     fill="#FF8780"
     id="path2991" />
  <path
     fill-rule="evenodd"
     clip-rule="evenodd"
     d="M197.948 88.8941C197.948 88.8941 197.827 90.2957 198.623 90.3144C199.419 90.3332 198.998 88.538 198.998 88.538C198.568 88.5924 198.212 88.7052 197.948 88.8941Z"
     fill="white"
     id="path2993" />
  <path
     fill-rule="evenodd"
     clip-rule="evenodd"
     d="M198.288 88.9342C198.288 88.9342 195.023 90.0792 195.378 90.7512C195.672 91.308 198.438 89.7865 198.438 89.7865L198.288 88.9342Z"
     fill="white"
     id="path2995" />
  <path
     fill-rule="evenodd"
     clip-rule="evenodd"
     d="M191.48 78.3841C190.722 77.6835 189.395 77.8426 188.304 78.6889C188.196 78.7706 188.091 78.8606 187.989 78.9586C187.915 79.0262 187.844 79.0993 187.773 79.1761C187.221 79.7739 186.863 80.4872 186.763 81.1842C186.659 81.9072 186.845 82.5295 187.285 82.9359C187.608 83.234 188.034 83.3763 188.501 83.3763C188.909 83.3763 189.348 83.268 189.777 83.0597C190.206 82.8515 190.625 82.5425 190.993 82.1444C191.032 82.1012 191.069 82.0585 191.107 82.0153C191.198 81.907 191.285 81.7964 191.361 81.683C192.185 80.5013 192.263 79.1054 191.48 78.3841ZM190.704 81.8775C189.694 82.9739 188.278 83.3193 187.549 82.6472C187.206 82.3322 187.064 81.8309 187.149 81.2379C187.237 80.6192 187.562 79.9802 188.059 79.4396C188.173 79.3172 188.291 79.2039 188.412 79.1008C188.414 79.1008 188.414 79.0993 188.415 79.0993L188.419 79.0951C189.008 78.5953 189.678 78.3255 190.258 78.3255C190.629 78.3255 190.964 78.4373 191.217 78.6694C191.945 79.3421 191.716 80.7812 190.704 81.8775Z"
     fill="white"
     id="path2997" />
  <path
     fill-rule="evenodd"
     clip-rule="evenodd"
     d="M188.296 79.14C188.238 79.14 188.181 79.1146 188.143 79.0654C188.105 79.0192 187.9 78.8063 187.522 79.0409C187.431 79.0978 187.311 79.0698 187.254 78.9784C187.197 78.887 187.225 78.766 187.316 78.7092C187.875 78.3617 188.303 78.633 188.451 78.8255C188.517 78.9109 188.501 79.0338 188.415 79.0994C188.38 79.1268 188.338 79.14 188.296 79.14Z"
     fill="white"
     id="path2999" />
  <path
     fill-rule="evenodd"
     clip-rule="evenodd"
     d="M198.36 86.8848C198.252 86.9524 198.144 87.0255 198.037 87.1037C197.236 85.8977 196.299 84.959 195.372 84.2351C193.451 82.7309 191.582 82.1462 191.107 82.0147C191.035 81.9953 190.994 81.9862 190.991 81.9846C190.885 81.9597 190.82 81.8556 190.845 81.7505C190.868 81.6448 190.974 81.5798 191.078 81.6047C191.085 81.6063 191.185 81.6306 191.361 81.683C191.992 81.8745 193.596 82.4409 195.293 83.6886C196.351 84.4653 197.443 85.5072 198.36 86.8848V86.8848Z"
     fill="white"
     id="path3001" />
  <path
     d="M216.199 185.029C222.762 185.029 228.083 184.32 228.083 183.445C228.083 182.57 222.762 181.861 216.199 181.861C209.635 181.861 204.314 182.57 204.314 183.445C204.314 184.32 209.635 185.029 216.199 185.029Z"
     fill="#C8DFF7"
     id="path3003" />
  <path
     fill-rule="evenodd"
     clip-rule="evenodd"
     d="M215.222 157.825H211.831C211.831 157.825 195.03 123.261 199.59 117.926C205.469 111.047 213.103 130.686 215.222 157.825Z"
     fill="#00C5BB"
     id="path3005" />
  <path
     fill-rule="evenodd"
     clip-rule="evenodd"
     d="M214.155 157.824H213.6L202.921 122.833C202.879 122.693 202.957 122.545 203.097 122.502C203.237 122.46 203.386 122.538 203.428 122.679L214.155 157.824Z"
     fill="#009C97"
     id="path3007" />
  <path
     fill-rule="evenodd"
     clip-rule="evenodd"
     d="M217.219 157.825H220.61C220.61 157.825 237.411 123.261 232.851 117.926C226.972 111.047 219.337 130.686 217.219 157.825Z"
     fill="#00C5BB"
     id="path3009" />
  <path
     fill-rule="evenodd"
     clip-rule="evenodd"
     d="M218.286 157.824H218.84L229.52 122.833C229.562 122.693 229.484 122.545 229.344 122.502C229.204 122.46 229.056 122.538 229.013 122.679L218.286 157.824Z"
     fill="#009C97"
     id="path3011" />
  <path
     fill-rule="evenodd"
     clip-rule="evenodd"
     d="M218.222 157.825H215.221C208.588 126.047 211.239 99.4309 217.957 104.425C224.675 109.417 218.222 157.825 218.222 157.825Z"
     fill="#00C5BB"
     id="path3013" />
  <path
     fill-rule="evenodd"
     clip-rule="evenodd"
     d="M216.463 110.892L216.105 157.825L215.575 157.825L215.934 110.888C215.935 110.741 216.055 110.627 216.201 110.625C216.346 110.626 216.465 110.746 216.463 110.892Z"
     fill="#009C97"
     id="path3015" />
  <path
     fill-rule="evenodd"
     clip-rule="evenodd"
     d="M229.293 157.824L228.798 159.659L228.702 160.012L228.256 161.67L228.16 162.023L223.719 178.487L223.623 178.84L223.176 180.499L223.081 180.852L222.494 183.026C218.242 183.553 214.08 183.614 209.945 183.026L209.358 180.852L209.264 180.499L208.816 178.84L208.72 178.487L204.279 162.023L204.183 161.67L203.737 160.012L203.641 159.659L203.146 157.824H229.293Z"
     fill="#FF416A"
     id="path3017" />
  <path
     fill-rule="evenodd"
     clip-rule="evenodd"
     d="M228.798 159.659L228.703 160.012H203.739L203.643 159.659H228.798Z"
     fill="#812239"
     id="path3019" />
  <path
     fill-rule="evenodd"
     clip-rule="evenodd"
     d="M228.256 161.671L228.161 162.024H204.28L204.185 161.671H228.256Z"
     fill="#812239"
     id="path3021" />
  <path
     fill-rule="evenodd"
     clip-rule="evenodd"
     d="M223.72 178.487L223.624 178.84H208.817L208.722 178.487H223.72Z"
     fill="#812239"
     id="path3023" />
  <path
     fill-rule="evenodd"
     clip-rule="evenodd"
     d="M223.177 180.499L223.082 180.852H209.359L209.265 180.499H223.177Z"
     fill="#812239"
     id="path3025" />
  <path
     d="M20.0264 185.029C27.7221 185.029 33.9608 184.32 33.9608 183.445C33.9608 182.57 27.7221 181.861 20.0264 181.861C12.3306 181.861 6.09192 182.57 6.09192 183.445C6.09192 184.32 12.3306 185.029 20.0264 185.029Z"
     fill="#C8DFF7"
     id="path3027" />
  <path
     fill-rule="evenodd"
     clip-rule="evenodd"
     d="M31.5944 159.571C31.5893 159.677 31.5776 159.786 31.5568 159.894L31.2718 161.77L31.1859 162.336L31.1428 162.617L31.1321 162.689L30.8797 164.348L30.8263 164.701L30.8213 164.733L30.6938 165.58L28.8447 177.745L28.7172 178.592L28.6807 178.831L28.6273 179.185L28.3957 180.708L28.3749 180.844L28.3215 181.197L28.2666 181.555L28.1431 182.369C28.0492 182.987 27.5167 183.446 26.8889 183.446H13.1632C12.5368 183.446 12.0045 182.987 11.9105 182.369L11.7865 181.555L11.7316 181.197L11.6783 180.844L11.6575 180.708L11.4258 179.185L11.3725 178.831L11.336 178.592L11.2085 177.745L9.35936 165.58L9.23187 164.733L9.22679 164.701L9.17345 164.348L8.92102 162.689L8.91086 162.617L8.86768 162.336L8.78181 161.77L8.49684 159.894C8.47604 159.785 8.46431 159.677 8.45923 159.571H31.5944Z"
     fill="#FF416A"
     id="path3029" />
  <path
     fill-rule="evenodd"
     clip-rule="evenodd"
     d="M31.1852 162.336L31.142 162.617L31.1319 162.688H8.92004L8.90988 162.617L8.8667 162.336H31.1852Z"
     fill="#812239"
     id="path3031" />
  <path
     fill-rule="evenodd"
     clip-rule="evenodd"
     d="M30.8791 164.347L30.8257 164.7H9.22656L9.17322 164.347H30.8791Z"
     fill="#812239"
     id="path3033" />
  <path
     fill-rule="evenodd"
     clip-rule="evenodd"
     d="M28.6802 178.831L28.6264 179.184H11.4265L11.3732 178.831H28.6802Z"
     fill="#812239"
     id="path3035" />
  <path
     fill-rule="evenodd"
     clip-rule="evenodd"
     d="M28.3733 180.843L28.3199 181.196H11.7317L11.6783 180.843H28.3733Z"
     fill="#812239"
     id="path3037" />
  <path
     fill-rule="evenodd"
     clip-rule="evenodd"
     d="M37.0826 131.182C31.5845 129.734 23.1838 141.146 20.632 152.273V136.062C21.9142 133.788 24.3598 130.366 28.7991 126.75C35.7028 121.127 42.0584 113.911 36.5502 112.461C31.3884 111.101 23.6683 121.077 20.632 131.51V110.691C21.5215 109.31 22.979 107.499 25.3082 105.601C29.6592 102.057 33.6643 97.5097 30.1931 96.5953C27.1806 95.8018 22.7848 101.134 20.6315 107.149V100.402C20.9876 98.3144 21.4905 95.3335 22.8718 92.2855C26.0722 85.2238 27.801 77.9477 23.5814 78.4892C19.3579 79.0312 16.6198 91.6083 18.9291 101.264V104.736C17.3691 97.6702 12.0168 90.352 8.52323 91.2719C5.05202 92.1863 9.05712 96.7339 13.4081 100.278C16.7203 102.975 18.2702 105.5 18.9285 106.858V123.258C16.4266 112.076 7.96588 100.534 2.43884 101.99C-3.06945 103.441 3.28623 110.657 10.19 116.279C15.4071 120.528 17.8704 124.51 18.9285 126.676V146.342C16.2544 135.364 8.01003 124.285 2.58822 125.713C-2.92007 127.164 1.80384 132.437 9.56258 138.815C14.8356 143.15 17.6596 147.725 18.9285 150.211V159.571L20.631 159.571V155.789C21.7105 153.606 24.1769 149.67 29.3305 145.473C36.2352 139.849 42.5908 132.633 37.0826 131.182Z"
     fill="#00C5BB"
     id="path3039" />
  <path
     fill-rule="evenodd"
     clip-rule="evenodd"
     d="M18.3994 123.992C18.3227 123.992 18.25 123.946 18.2211 123.87C14.0997 113.067 5.98496 106.998 5.90368 106.937C5.81889 106.875 5.80111 106.755 5.86304 106.671C5.92557 106.586 6.04435 106.568 6.12925 106.63C6.2115 106.691 14.4143 112.822 18.5768 123.734C18.6144 123.832 18.5651 123.942 18.4666 123.98C18.4446 123.988 18.4218 123.992 18.3994 123.992Z"
     fill="#009C97"
     id="path3041" />
  <path
     fill-rule="evenodd"
     clip-rule="evenodd"
     d="M19.6864 96.3699C19.6814 96.3699 19.6768 96.3699 19.6717 96.3694C19.5666 96.3613 19.4883 96.2698 19.4964 96.1646C20.2071 86.8347 23.2963 80.9708 23.3272 80.9129C23.3771 80.8199 23.4923 80.7854 23.5847 80.8346C23.6777 80.8844 23.7122 80.9997 23.663 81.0921C23.632 81.1496 20.5804 86.9489 19.8759 96.1934C19.8688 96.2941 19.7855 96.3699 19.6864 96.3699Z"
     fill="#009C97"
     id="path3043" />
  <path
     fill-rule="evenodd"
     clip-rule="evenodd"
     d="M21.5909 107.863C21.5671 107.863 21.5426 107.859 21.5188 107.849C21.4213 107.809 21.3745 107.698 21.4147 107.601C23.3324 102.912 28.5613 98.4978 28.614 98.4537C28.6948 98.386 28.8146 98.3968 28.8823 98.4775C28.9499 98.5583 28.9391 98.6781 28.8584 98.7458C28.8067 98.7889 23.6489 103.145 21.7672 107.745C21.7371 107.819 21.666 107.863 21.5909 107.863Z"
     fill="#009C97"
     id="path3045" />
  <path
     fill-rule="evenodd"
     clip-rule="evenodd"
     d="M21.5908 132.934C21.5715 132.934 21.5518 132.931 21.5319 132.925C21.4319 132.892 21.377 132.785 21.4095 132.685C24.6475 122.694 33.1291 116.86 33.2145 116.802C33.3013 116.743 33.4202 116.766 33.4791 116.853C33.538 116.94 33.5152 117.059 33.4283 117.118C33.344 117.174 24.9685 122.939 21.7723 132.803C21.7458 132.883 21.671 132.934 21.5908 132.934Z"
     fill="#009C97"
     id="path3047" />
  <path
     fill-rule="evenodd"
     clip-rule="evenodd"
     d="M21.2572 152.78C21.2334 152.78 21.2084 152.776 21.1851 152.766C21.0876 152.726 21.0413 152.614 21.081 152.517C25.053 142.841 33.9851 135.133 34.0751 135.056C34.1554 134.988 34.2753 134.997 34.3439 135.077C34.4125 135.157 34.4028 135.277 34.3231 135.346C34.2342 135.422 25.3705 143.073 21.4341 152.662C21.4031 152.736 21.3319 152.78 21.2572 152.78Z"
     fill="#009C97"
     id="path3049" />
  <path
     fill-rule="evenodd"
     clip-rule="evenodd"
     d="M18.3994 147.043C18.3232 147.043 18.2511 146.997 18.2216 146.921C13.9117 135.865 5.98084 129.729 5.90101 129.668C5.81719 129.604 5.80147 129.485 5.86497 129.401C5.92895 129.317 6.04833 129.301 6.13215 129.365C6.21247 129.426 14.2262 135.622 18.5766 146.783C18.6147 146.881 18.5664 146.991 18.4683 147.029C18.4456 147.039 18.4222 147.043 18.3994 147.043Z"
     fill="#009C97"
     id="path3051" />
  <path
     fill-rule="evenodd"
     clip-rule="evenodd"
     d="M17.8913 103.693C17.8146 103.693 17.7424 103.646 17.713 103.57C15.5397 97.8771 10.473 94.5618 10.4216 94.5294C10.3332 94.4725 10.3078 94.3546 10.3648 94.2662C10.4216 94.1777 10.5395 94.1523 10.6279 94.2093C10.6797 94.2428 15.8497 97.6221 18.0686 103.435C18.1062 103.533 18.0568 103.643 17.9589 103.68C17.9365 103.689 17.9136 103.693 17.8913 103.693Z"
     fill="#009C97"
     id="path3053" />
</svg>
